G04 PROTEUS RS274X GERBER FILE*
%FSLAX45Y45*%
%MOMM*%
G01*
%ADD10C,0.635000*%
%ADD11C,3.048000*%
%ADD12C,2.540000*%
%ADD13C,1.016000*%
%ADD14C,0.762000*%
%ADD15C,1.778000*%
%ADD16C,1.270000*%
%ADD17C,1.524000*%
%ADD18C,1.524000*%
%ADD19C,0.508000*%
%ADD70R,1.524000X1.524000*%
%ADD71C,2.540000*%
%ADD20C,3.048000*%
%ADD21R,1.905000X1.905000*%
%ADD22C,2.032000*%
%ADD23C,1.778000*%
%ADD24C,1.397000*%
%ADD25C,7.620000*%
%ADD26C,0.203200*%
%ADD27C,0.457200*%
G36*
X+3266440Y-789941D02*
X-3048000Y-789941D01*
X-3048000Y-406399D01*
X-2958572Y-406399D01*
X-2832101Y-279928D01*
X-2832101Y-101072D01*
X-2958572Y+25399D01*
X-3048000Y+25399D01*
X-3048000Y+101601D01*
X-2958572Y+101601D01*
X-2832101Y+228072D01*
X-2832101Y+406928D01*
X-2958572Y+533399D01*
X-3048000Y+533399D01*
X-3048000Y+609601D01*
X-2958572Y+609601D01*
X-2832101Y+736072D01*
X-2832101Y+914928D01*
X-2958572Y+1041399D01*
X-3048000Y+1041399D01*
X-3048000Y+1117601D01*
X-2958572Y+1117601D01*
X-2882372Y+1193801D01*
X-2388128Y+1193801D01*
X-2311928Y+1117601D01*
X-2133072Y+1117601D01*
X-2069572Y+1181101D01*
X-1750918Y+1181101D01*
X-1642966Y+1073149D01*
X-1644649Y+1073149D01*
X-1644649Y+196851D01*
X-1612899Y+196851D01*
X-1612899Y+73143D01*
X-1724143Y-38101D01*
X-2069572Y-38101D01*
X-2133072Y+25399D01*
X-2311928Y+25399D01*
X-2438399Y-101072D01*
X-2438399Y-279928D01*
X-2311928Y-406399D01*
X-2133072Y-406399D01*
X-2069572Y-342899D01*
X-1597893Y-342899D01*
X-1308101Y-53107D01*
X-1308101Y+196851D01*
X-1276351Y+196851D01*
X-1276351Y+228601D01*
X-381376Y+228601D01*
X+211201Y+821178D01*
X+211201Y+751853D01*
X+315353Y+647701D01*
X+462647Y+647701D01*
X+566799Y+751853D01*
X+566799Y+899147D01*
X+517445Y+948501D01*
X+760555Y+948501D01*
X+711201Y+899147D01*
X+711201Y+751853D01*
X+815353Y+647701D01*
X+962647Y+647701D01*
X+1066799Y+751853D01*
X+1066799Y+899147D01*
X+1015446Y+950500D01*
X+1023797Y+958851D01*
X+1085311Y+958851D01*
X+1112257Y+985797D01*
X+1132853Y+965201D01*
X+1280147Y+965201D01*
X+1384299Y+1069353D01*
X+1384299Y+1216647D01*
X+1280147Y+1320799D01*
X+1132853Y+1320799D01*
X+1075703Y+1263649D01*
X+1066799Y+1263649D01*
X+1066799Y+1399147D01*
X+962647Y+1503299D01*
X+815353Y+1503299D01*
X+764553Y+1452499D01*
X+634999Y+1452499D01*
X+634999Y+1544514D01*
X+673099Y+1582614D01*
X+673099Y+1719386D01*
X+634999Y+1757486D01*
X+634999Y+2101851D01*
X+775527Y+2101851D01*
X+1184550Y+1692828D01*
X+1451001Y+1692828D01*
X+1435101Y+1676928D01*
X+1435101Y+1498072D01*
X+1561572Y+1371601D01*
X+1740428Y+1371601D01*
X+1866899Y+1498072D01*
X+1866899Y+1650979D01*
X+1885101Y+1632777D01*
X+1885101Y+1498072D01*
X+2011572Y+1371601D01*
X+2190428Y+1371601D01*
X+2316899Y+1498072D01*
X+2316899Y+1676928D01*
X+2190428Y+1803399D01*
X+2055723Y+1803399D01*
X+1924996Y+1934126D01*
X+1284496Y+1934126D01*
X+946149Y+2272473D01*
X+946149Y+2470149D01*
X+882649Y+2470149D01*
X+882649Y+2653473D01*
X+819149Y+2716973D01*
X+819149Y+2790203D01*
X+876299Y+2847353D01*
X+876299Y+2994647D01*
X+772147Y+3098799D01*
X+746745Y+3098799D01*
X+749299Y+3101353D01*
X+749299Y+3248647D01*
X+689595Y+3308351D01*
X+1410527Y+3308351D01*
X+1620079Y+3098799D01*
X+1577353Y+3098799D01*
X+1473201Y+2994647D01*
X+1473201Y+2847353D01*
X+1577353Y+2743201D01*
X+1724647Y+2743201D01*
X+1828799Y+2847353D01*
X+1828799Y+2890079D01*
X+2001079Y+2717799D01*
X+1894853Y+2717799D01*
X+1844053Y+2666999D01*
X+1757486Y+2666999D01*
X+1719386Y+2705099D01*
X+1582614Y+2705099D01*
X+1485901Y+2608386D01*
X+1485901Y+2471614D01*
X+1582614Y+2374901D01*
X+1719386Y+2374901D01*
X+1757486Y+2413001D01*
X+1844053Y+2413001D01*
X+1844054Y+2413000D01*
X+1790701Y+2359647D01*
X+1790701Y+2212353D01*
X+1894853Y+2108201D01*
X+2042147Y+2108201D01*
X+2101851Y+2167905D01*
X+2101851Y+2101851D01*
X+2470149Y+2101851D01*
X+2470149Y+2413001D01*
X+2529103Y+2413001D01*
X+2666999Y+2550897D01*
X+2666999Y+2973604D01*
X+2470149Y+3170454D01*
X+2470149Y+3429001D01*
X+2529103Y+3429001D01*
X+2666999Y+3566897D01*
X+2666999Y+6021603D01*
X+2529103Y+6159499D01*
X+2470149Y+6159499D01*
X+2470149Y+6470649D01*
X+2101851Y+6470649D01*
X+2101851Y+6159499D01*
X+2021103Y+6159499D01*
X+1767104Y+6413498D01*
X+751104Y+6413498D01*
X+685799Y+6478803D01*
X+685799Y+6763579D01*
X+839027Y+6610351D01*
X+1012203Y+6610351D01*
X+1069353Y+6553201D01*
X+1216647Y+6553201D01*
X+1320799Y+6657353D01*
X+1320799Y+6763579D01*
X+1474027Y+6610351D01*
X+1629243Y+6610351D01*
X+1699093Y+6540501D01*
X+1856907Y+6540501D01*
X+1968499Y+6652093D01*
X+1968499Y+6809907D01*
X+1856907Y+6921499D01*
X+1699093Y+6921499D01*
X+1629243Y+6851649D01*
X+1573973Y+6851649D01*
X+1192973Y+7232649D01*
X+1069056Y+7232649D01*
X+1030956Y+7270749D01*
X+899444Y+7270749D01*
X+863600Y+7234905D01*
X+827756Y+7270749D01*
X+696244Y+7270749D01*
X+660400Y+7234905D01*
X+624556Y+7270749D01*
X+493044Y+7270749D01*
X+400051Y+7177756D01*
X+400051Y+7046244D01*
X+431801Y+7014494D01*
X+431801Y+6373597D01*
X+588749Y+6216649D01*
X+303973Y+6216649D01*
X+176973Y+6343649D01*
X+112836Y+6343649D01*
X+106617Y+6349868D01*
X+204814Y+6349868D01*
X+374649Y+6519703D01*
X+374649Y+6600203D01*
X+431799Y+6657353D01*
X+431799Y+6804647D01*
X+327647Y+6908799D01*
X+180353Y+6908799D01*
X+76201Y+6804647D01*
X+76201Y+6657353D01*
X+123628Y+6609926D01*
X+112094Y+6598392D01*
X+68386Y+6642099D01*
X-68386Y+6642099D01*
X-165099Y+6545386D01*
X-165099Y+6408614D01*
X-106485Y+6350000D01*
X-165099Y+6291386D01*
X-165099Y+6154614D01*
X-106485Y+6096000D01*
X-165099Y+6037386D01*
X-165099Y+5900614D01*
X-106485Y+5842000D01*
X-165099Y+5783386D01*
X-165099Y+5646614D01*
X-106485Y+5588000D01*
X-165099Y+5529386D01*
X-165099Y+5392614D01*
X-106485Y+5334000D01*
X-165099Y+5275386D01*
X-165099Y+5138614D01*
X-106485Y+5080000D01*
X-106487Y+5079998D01*
X-147513Y+5079998D01*
X-185614Y+5118099D01*
X-322386Y+5118099D01*
X-387351Y+5053134D01*
X-387351Y+5701473D01*
X-521527Y+5835649D01*
X-649164Y+5835649D01*
X-655515Y+5842000D01*
X-596901Y+5900614D01*
X-596901Y+6037386D01*
X-655515Y+6096000D01*
X-596901Y+6154614D01*
X-596901Y+6291386D01*
X-655515Y+6350000D01*
X-596901Y+6408614D01*
X-596901Y+6545386D01*
X-641351Y+6589836D01*
X-641351Y+6617527D01*
X-6351Y+7252527D01*
X-6351Y+7272401D01*
X+114299Y+7393051D01*
X+114299Y+7592949D01*
X-27051Y+7734299D01*
X-226949Y+7734299D01*
X-368299Y+7592949D01*
X-368299Y+7393051D01*
X-287685Y+7312437D01*
X-831851Y+6768271D01*
X-831851Y+6935026D01*
X-506731Y+7260146D01*
X-506731Y+7272401D01*
X-386081Y+7393051D01*
X-386081Y+7592949D01*
X-527431Y+7734299D01*
X-727329Y+7734299D01*
X-868679Y+7592949D01*
X-868679Y+7393051D01*
X-791874Y+7316246D01*
X-958851Y+7149270D01*
X-958851Y+7320661D01*
X-886461Y+7393051D01*
X-886461Y+7592949D01*
X-1027811Y+7734299D01*
X-1227709Y+7734299D01*
X-1369059Y+7592949D01*
X-1369059Y+7393051D01*
X-1227709Y+7251701D01*
X-1200149Y+7251701D01*
X-1200149Y+7085771D01*
X-1447135Y+7332757D01*
X-1386841Y+7393051D01*
X-1386841Y+7592949D01*
X-1528191Y+7734299D01*
X-1728089Y+7734299D01*
X-1869439Y+7592949D01*
X-1869439Y+7393051D01*
X-1728089Y+7251701D01*
X-1707323Y+7251701D01*
X-1327149Y+6871527D01*
X-1327149Y+6704771D01*
X-1950055Y+7327677D01*
X-1884681Y+7393051D01*
X-1884681Y+7592949D01*
X-2026031Y+7734299D01*
X-2225929Y+7734299D01*
X-2367279Y+7592949D01*
X-2367279Y+7393051D01*
X-2225929Y+7251701D01*
X-2215323Y+7251701D01*
X-1454149Y+6490527D01*
X-1454149Y+5474527D01*
X-1319973Y+5340351D01*
X-1319336Y+5340351D01*
X-1274886Y+5295901D01*
X-1138114Y+5295901D01*
X-1093664Y+5340351D01*
X-874836Y+5340351D01*
X-868485Y+5334000D01*
X-927099Y+5275386D01*
X-927099Y+5138614D01*
X-868485Y+5080000D01*
X-927099Y+5021386D01*
X-927099Y+4884614D01*
X-868485Y+4826000D01*
X-927099Y+4767386D01*
X-927099Y+4630614D01*
X-868485Y+4572000D01*
X-874836Y+4565649D01*
X-1410525Y+4565648D01*
X-1466852Y+4621975D01*
X-1466852Y+5320474D01*
X-1593851Y+5447473D01*
X-1593851Y+5891973D01*
X-2172527Y+6470649D01*
X-2427164Y+6470649D01*
X-2471614Y+6515099D01*
X-2608386Y+6515099D01*
X-2705099Y+6418386D01*
X-2705099Y+6281614D01*
X-2684584Y+6261099D01*
X-2705099Y+6261099D01*
X-2705099Y+5930901D01*
X-2374901Y+5930901D01*
X-2374901Y+5975351D01*
X-2208974Y+5975351D01*
X-2052534Y+5818912D01*
X-2082799Y+5788647D01*
X-2082799Y+5641353D01*
X-2023095Y+5581649D01*
X-2427164Y+5581649D01*
X-2471614Y+5626099D01*
X-2608386Y+5626099D01*
X-2667001Y+5567484D01*
X-2667001Y+5590553D01*
X-2616201Y+5641353D01*
X-2616201Y+5788647D01*
X-2720353Y+5892799D01*
X-2867647Y+5892799D01*
X-2908301Y+5852145D01*
X-2908301Y+6598365D01*
X-3048000Y+6738064D01*
X-3048000Y+8028941D01*
X+3266440Y+8028941D01*
X+3266440Y-789941D01*
G37*
%LPC*%
G36*
X-2385061Y+7592949D02*
X-2385061Y+7393051D01*
X-2526411Y+7251701D01*
X-2726309Y+7251701D01*
X-2867659Y+7393051D01*
X-2867659Y+7592949D01*
X-2726309Y+7734299D01*
X-2526411Y+7734299D01*
X-2385061Y+7592949D01*
G37*
G36*
X-2006601Y+914928D02*
X-2006601Y+736072D01*
X-2108201Y+634472D01*
X-2108201Y+508528D01*
X-2006601Y+406928D01*
X-2006601Y+228072D01*
X-2133072Y+101601D01*
X-2311928Y+101601D01*
X-2438399Y+228072D01*
X-2438399Y+406928D01*
X-2336799Y+508528D01*
X-2336799Y+634472D01*
X-2438399Y+736072D01*
X-2438399Y+914928D01*
X-2311928Y+1041399D01*
X-2133072Y+1041399D01*
X-2006601Y+914928D01*
G37*
G36*
X+1885101Y+848072D02*
X+1885101Y+1026928D01*
X+2011572Y+1153399D01*
X+2190428Y+1153399D01*
X+2316899Y+1026928D01*
X+2316899Y+848072D01*
X+2190428Y+721601D01*
X+2011572Y+721601D01*
X+1885101Y+848072D01*
G37*
G36*
X+1435101Y+848072D02*
X+1435101Y+1026928D01*
X+1561572Y+1153399D01*
X+1740428Y+1153399D01*
X+1866899Y+1026928D01*
X+1866899Y+848072D01*
X+1740428Y+721601D01*
X+1561572Y+721601D01*
X+1435101Y+848072D01*
G37*
G36*
X+1856907Y+7302501D02*
X+1699093Y+7302501D01*
X+1587501Y+7414093D01*
X+1587501Y+7571907D01*
X+1699093Y+7683499D01*
X+1856907Y+7683499D01*
X+1968499Y+7571907D01*
X+1968499Y+7414093D01*
X+1856907Y+7302501D01*
G37*
G36*
X+946149Y+438149D02*
X+999892Y+438149D01*
X+1063392Y+374649D01*
X+1075703Y+374649D01*
X+1132853Y+431799D01*
X+1280147Y+431799D01*
X+1384299Y+327647D01*
X+1384299Y+180353D01*
X+1280147Y+76201D01*
X+1132853Y+76201D01*
X+1075703Y+133351D01*
X+963446Y+133351D01*
X+899946Y+196851D01*
X+323851Y+196851D01*
X+323851Y+565149D01*
X+946149Y+565149D01*
X+946149Y+438149D01*
G37*
G36*
X+2324101Y+7361861D02*
X+2324101Y+7751139D01*
X+2599361Y+8026399D01*
X+2988639Y+8026399D01*
X+3263899Y+7751139D01*
X+3263899Y+7361861D01*
X+2988639Y+7086601D01*
X+2599361Y+7086601D01*
X+2324101Y+7361861D01*
G37*
G36*
X+2324101Y-448639D02*
X+2324101Y-59361D01*
X+2599361Y+215899D01*
X+2988639Y+215899D01*
X+3263899Y-59361D01*
X+3263899Y-448639D01*
X+2988639Y-723899D01*
X+2599361Y-723899D01*
X+2324101Y-448639D01*
G37*
%LPD*%
G36*
X-628649Y+2871027D02*
X-357123Y+2599501D01*
X-1096016Y+2599501D01*
X-1138114Y+2641599D01*
X-1274886Y+2641599D01*
X-1371599Y+2544886D01*
X-1371599Y+2408114D01*
X-1274886Y+2311401D01*
X-1138114Y+2311401D01*
X-1117599Y+2331916D01*
X-1117599Y+2217614D01*
X-1020886Y+2120901D01*
X-884114Y+2120901D01*
X-839664Y+2165351D01*
X-692149Y+2165351D01*
X-692149Y+2101851D01*
X+381001Y+2101851D01*
X+381001Y+1757486D01*
X+342901Y+1719386D01*
X+342901Y+1582614D01*
X+381001Y+1544514D01*
X+381001Y+1503299D01*
X+315353Y+1503299D01*
X+211201Y+1399147D01*
X+211201Y+1251853D01*
X+235155Y+1227899D01*
X+186874Y+1227899D01*
X-507626Y+533399D01*
X-1276351Y+533399D01*
X-1276351Y+1073149D01*
X-1308101Y+1073149D01*
X-1308101Y+1169332D01*
X-1624668Y+1485899D01*
X-2069572Y+1485899D01*
X-2133072Y+1549399D01*
X-2311928Y+1549399D01*
X-2388128Y+1473199D01*
X-2882372Y+1473199D01*
X-2958572Y+1549399D01*
X-3048000Y+1549399D01*
X-3048000Y+1727201D01*
X-2974353Y+1727201D01*
X-2921000Y+1780554D01*
X-2920998Y+1780552D01*
X-2920998Y+1757487D01*
X-2959099Y+1719386D01*
X-2959099Y+1582614D01*
X-2862386Y+1485901D01*
X-2725614Y+1485901D01*
X-2628901Y+1582614D01*
X-2628901Y+1719386D01*
X-2667002Y+1757487D01*
X-2667002Y+1780552D01*
X-2616201Y+1831353D01*
X-2616201Y+1978647D01*
X-2631455Y+1993901D01*
X-2374901Y+1993901D01*
X-2374901Y+2038351D01*
X-2081973Y+2038351D01*
X-2052534Y+2008912D01*
X-2082799Y+1978647D01*
X-2082799Y+1831353D01*
X-1978647Y+1727201D01*
X-1831353Y+1727201D01*
X-1727201Y+1831353D01*
X-1727201Y+1978647D01*
X-1784351Y+2035797D01*
X-1784351Y+2081973D01*
X-1982027Y+2279649D01*
X-2374901Y+2279649D01*
X-2374901Y+2292351D01*
X-1824238Y+2292352D01*
X-1060239Y+3056351D01*
X-874836Y+3056351D01*
X-830386Y+3011901D01*
X-693614Y+3011901D01*
X-628649Y+3076866D01*
X-628649Y+2871027D01*
G37*
G36*
X+1982027Y+5149851D02*
X+2101851Y+5149851D01*
X+2101851Y+5137149D01*
X+2045527Y+5137149D01*
X+1791527Y+4883149D01*
X+1506751Y+4883149D01*
X+1523998Y+4900396D01*
X+1523998Y+4955552D01*
X+1574799Y+5006353D01*
X+1574799Y+5153647D01*
X+1523999Y+5204447D01*
X+1523998Y+5334000D01*
X+1523999Y+5463553D01*
X+1574799Y+5514353D01*
X+1574799Y+5557079D01*
X+1982027Y+5149851D01*
G37*
G36*
X+342901Y+2471614D02*
X+344366Y+2470149D01*
X+113473Y+2470149D01*
X+107121Y+2476501D01*
X+342901Y+2476501D01*
X+342901Y+2471614D01*
G37*
D10*
X-3302000Y+6096000D02*
X-3810000Y+6096000D01*
X-3937000Y+5969000D01*
X-3937000Y+5715000D01*
X-3302000Y+5207000D02*
X-3819582Y+5207000D01*
X-3936360Y+5090222D01*
X-3936360Y+4953640D01*
X-3937000Y+4953000D01*
X-3302000Y+4445000D02*
X-3810000Y+4445000D01*
X-3937000Y+4318000D01*
X-3937000Y+4191000D01*
X-3302000Y+3683000D02*
X-3810000Y+3683000D01*
X-3937000Y+3556000D01*
X-3937000Y+3429000D01*
X-3302000Y+3937000D02*
X-4064000Y+3937000D01*
X-4191000Y+4064000D01*
X-4826000Y+4064000D01*
X-3302000Y+4699000D02*
X-3810000Y+4699000D01*
X-4191000Y+4318000D01*
X-4826000Y+4318000D01*
X-3302000Y+5461000D02*
X-3885259Y+5461000D01*
X-4191000Y+5155259D01*
X-4191000Y+4743686D01*
X-4363469Y+4571217D01*
X-4825217Y+4571217D01*
X-4826000Y+4572000D01*
X-3302000Y+2921000D02*
X-3810000Y+2921000D01*
X-3937000Y+2794000D01*
X-3937000Y+2667000D01*
X-3302000Y+3175000D02*
X-4064784Y+3175000D01*
X-4191000Y+3301216D01*
X-4191000Y+3683000D01*
X-4318000Y+3810000D01*
X-4826000Y+3810000D01*
X-3302000Y+2159000D02*
X-3833519Y+2159000D01*
X-3931512Y+2061007D01*
X-3931512Y+1910488D01*
X-3937000Y+1905000D01*
X-3302000Y+2413000D02*
X-4191000Y+2413000D01*
X-4445000Y+2667000D01*
X-4445000Y+3429000D01*
X-4572000Y+3556000D01*
X-4826000Y+3556000D01*
D11*
X-9906000Y+3683000D02*
X-10414000Y+3683000D01*
X-10414000Y+2988518D01*
X-9906000Y+4681220D02*
X-10414000Y+4681220D01*
X-10414000Y+3683000D01*
X-10414000Y+2988518D02*
X-10414000Y+2667000D01*
X-10414000Y+1651000D01*
X-9652000Y+889000D01*
X-8985000Y+889000D01*
D12*
X-7493000Y-127000D02*
X-7239000Y-127000D01*
X-6985000Y+127000D01*
X-6985000Y+889000D01*
X-8636000Y+4756000D02*
X-8636000Y+4572000D01*
X-9024620Y+4183380D01*
X-9906000Y+4183380D01*
X-8636000Y+6534000D02*
X-8635999Y+6350002D01*
X-9804401Y+5181600D01*
X-9906000Y+5181600D01*
D11*
X-7216000Y+4156000D02*
X-8000296Y+4156000D01*
X-8001000Y+4156704D01*
X-8001000Y+2547339D01*
X-8001000Y-127000D02*
X-8001000Y+2547339D01*
X-8001000Y+4156704D02*
X-8001000Y+5715000D01*
X-7782000Y+5934000D01*
X-7216000Y+5934000D01*
X-8001000Y+2547339D02*
X-8000999Y+2368991D01*
X-7225009Y+2368991D01*
X-7216000Y+2378000D01*
D13*
X-7416000Y+6534000D02*
X-6915000Y+6534000D01*
X-6731000Y+6350000D01*
D10*
X-7416000Y+5334000D02*
X-6985000Y+5334000D01*
X-6731000Y+5588000D01*
D13*
X-7416000Y+4756000D02*
X-6915000Y+4756000D01*
X-6731000Y+4572000D01*
D10*
X-7416000Y+3556000D02*
X-6985000Y+3556000D01*
X-6731000Y+3810000D01*
D13*
X-7416000Y+2978000D02*
X-6915000Y+2978000D01*
X-6731000Y+2794000D01*
D10*
X-7416000Y+1778000D02*
X-6985000Y+1778000D01*
X-6731000Y+2032000D01*
X-5588000Y+3810000D02*
X-6731000Y+3810000D01*
D13*
X-5588000Y+5969000D02*
X-5588000Y+5588000D01*
X-4826000Y+5969000D02*
X-4826000Y+5588000D01*
X-5427980Y+7493000D02*
X-5427980Y+7130395D01*
X-5331460Y+7033875D01*
X-5331460Y+6880860D01*
D10*
X-5928360Y+7493000D02*
X-5928360Y+7153450D01*
X-6093460Y+6988350D01*
X-6093460Y+6880860D01*
X-3929380Y+7493000D02*
X-3929380Y+7173893D01*
X-4061460Y+7041813D01*
X-4061460Y+6880860D01*
D13*
X-3429000Y+7493000D02*
X-3429000Y+7259624D01*
X-3299460Y+7130084D01*
X-3299460Y+6880860D01*
D10*
X-4927600Y+7493000D02*
X-4927600Y+7206810D01*
X-5077460Y+7056950D01*
X-5077460Y+6880860D01*
D13*
X-4427220Y+7493000D02*
X-4427220Y+7169921D01*
X-4318000Y+7060701D01*
X-4318000Y+6883400D01*
X-4315460Y+6880860D01*
X-4427220Y+7493000D02*
X-4427220Y+7807714D01*
X-4424434Y+7810500D01*
X-3429000Y+7493000D02*
X-3429000Y+7747000D01*
X-3492500Y+7810500D01*
X-4424434Y+7810500D01*
X-5334000Y+7810500D01*
X-5397500Y+7747000D01*
X-5397500Y+7523480D01*
X-5427980Y+7493000D01*
X-3048000Y+5715000D02*
X-3048000Y+4953000D01*
X-3048000Y+4191000D01*
X-3048000Y+3429000D01*
X-3048000Y+2667000D01*
X-3048000Y+1905000D01*
D14*
X-2794000Y+5715000D02*
X-2794000Y+4953000D01*
X-2794000Y+4191000D01*
X-2794000Y+3429000D01*
X-2794000Y+2667000D01*
X-2794000Y+1905000D01*
D10*
X-3302000Y+6350000D02*
X-3810001Y+6350000D01*
X-4445000Y+5715001D01*
X-4445000Y+4953000D01*
X-4572001Y+4825999D01*
X-4826000Y+4826000D01*
D13*
X-6477000Y+4572000D02*
X-6731000Y+4572000D01*
X-6477000Y+2794000D02*
X-6731000Y+2794000D01*
X-5969000Y+889000D02*
X-5969000Y+1397000D01*
D10*
X-5588000Y+3556000D02*
X-6096000Y+3556000D01*
X-6219472Y+3432528D01*
X-6219472Y+2162528D01*
X-6350000Y+2032000D01*
X-6731000Y+2032000D01*
X-4699000Y+1397000D02*
X-5080000Y+1397000D01*
D15*
X-4953000Y+889000D02*
X-4953000Y-127000D01*
X-5461000Y+889000D02*
X-5461000Y-127000D01*
D13*
X-3299460Y+6880860D02*
X-3299460Y+6794500D01*
X-3299460Y+6733540D01*
X-3299460Y+6604000D01*
X-3111500Y+6604000D01*
X-3048000Y+6540500D01*
X-3048000Y+5715000D01*
X-5588000Y+5588000D02*
X-5397500Y+5588000D01*
X-5334000Y+5524500D01*
X-5334000Y+2730500D01*
X-4826000Y+5588000D02*
X-5016500Y+5588000D01*
X-5080000Y+5524500D01*
X-5080000Y+2539999D01*
X-4829571Y+2289570D01*
X-4829571Y+2035571D01*
X-4826000Y+2032000D01*
X-4604142Y+2032000D01*
X-4445000Y+1872858D01*
X-4445000Y+1397000D01*
X-4445000Y+889000D01*
D10*
X-2540000Y+6096000D02*
X-2159001Y+6096000D01*
X-1905000Y+5841999D01*
X-1905000Y+5715000D01*
X-2540000Y+5207000D02*
X-2032000Y+5207000D01*
X-1905000Y+5080000D01*
X-1905000Y+4953000D01*
X-2540000Y+4445000D02*
X-2032000Y+4445000D01*
X-1905000Y+4318000D01*
X-1905000Y+4191000D01*
X-2540000Y+4699000D02*
X-2095501Y+4699000D01*
X-1333501Y+3937000D01*
X-762000Y+3937000D01*
X-2540000Y+5461000D02*
X-2031999Y+5461000D01*
X-1714500Y+5143501D01*
X-1714500Y+4508499D01*
X-1397001Y+4191000D01*
X-762000Y+4191000D01*
X-2540000Y+3683000D02*
X-2032000Y+3683000D01*
X-1905000Y+3556000D01*
X-1905000Y+3429000D01*
X-762000Y+3683000D02*
X-1852450Y+3683000D01*
X-2106450Y+3937000D01*
X-2540000Y+3937000D01*
X-2540000Y+2921000D02*
X-2024730Y+2921000D01*
X-1906282Y+2802552D01*
X-1906282Y+2668282D01*
X-1905000Y+2667000D01*
X-762000Y+3177000D02*
X-1110212Y+3177000D01*
X-1874212Y+2413000D01*
X-2540000Y+2413000D01*
X-2540000Y+2159000D02*
X-2032000Y+2159000D01*
X-1905000Y+2032000D01*
X-1905000Y+1905000D01*
X+1143000Y+5588000D02*
X+698500Y+5588000D01*
X+1143000Y+5080000D02*
X+698500Y+5080000D01*
X+0Y+5207000D02*
X+444500Y+5207000D01*
X+571500Y+5080000D01*
X+698500Y+5080000D01*
X+698500Y+5588000D02*
X+571500Y+5588000D01*
X+444500Y+5461000D01*
X+0Y+5461000D01*
X+254000Y+6731000D02*
X+254000Y+6569676D01*
X+154841Y+6470517D01*
X+6483Y+6470517D01*
X+0Y+6477000D01*
X+762000Y+7112000D02*
X+762000Y+6858000D01*
X+889000Y+6731000D01*
X+1143000Y+6731000D01*
X+965200Y+7112000D02*
X+1143000Y+7112000D01*
X+1524000Y+6731000D01*
X+1778000Y+6731000D01*
D13*
X-3048000Y+1333500D02*
X-2222500Y+1333500D01*
D16*
X-2222500Y-190500D02*
X-1661018Y-190500D01*
X-1460500Y+10018D01*
X-1460500Y+381000D01*
X-2222500Y+1333500D02*
X-1687793Y+1333500D01*
X-1460500Y+1106207D01*
X-1460500Y+889000D01*
D14*
X+889000Y+1075500D02*
X+389000Y+1075500D01*
X+889000Y+1325500D02*
X+508000Y+1325500D01*
D10*
X+762000Y+381000D02*
X+762000Y+317500D01*
X+949919Y+317500D01*
X+1013419Y+254000D01*
X+1206500Y+254000D01*
X+1206500Y+1143000D02*
X+1098838Y+1143000D01*
X+1035338Y+1079500D01*
X+893000Y+1079500D01*
X+889000Y+1075500D01*
D14*
X+0Y+4699000D02*
X-254000Y+4699000D01*
D13*
X-254000Y+4953000D02*
X+0Y+4953000D01*
D10*
X-1127760Y+7493000D02*
X-1079500Y+7444740D01*
X-1079500Y+6032500D01*
X-1016000Y+5969000D01*
X-952500Y+5969000D01*
D16*
X+389000Y+1075500D02*
X+249999Y+1075500D01*
X-444501Y+381000D01*
X-1460500Y+381000D01*
D17*
X-3048000Y+317500D02*
X-3238500Y+317500D01*
X-3683000Y-127000D01*
X-3937000Y-127000D01*
X-3048000Y+825500D02*
X-3683000Y+825500D01*
X-4445000Y+63500D01*
X-4445000Y-127000D01*
D14*
X+508000Y+2204047D02*
X+508000Y+2286000D01*
X+508000Y+2073791D02*
X+508000Y+2204047D01*
D10*
X-2540000Y+6350000D02*
X-2222500Y+6350000D01*
X-1714500Y+5842000D01*
X-1714500Y+5397500D01*
X-1587500Y+5270500D01*
X-1587500Y+4572001D01*
X-1460499Y+4445000D01*
X-762000Y+4445000D01*
D13*
X+1397000Y+5588000D02*
X+1397000Y+5080000D01*
D10*
X+2286000Y+4064000D02*
X+1523999Y+4064000D01*
X+1142999Y+3683000D01*
X+0Y+3683000D01*
X+2286000Y+4318000D02*
X+1524000Y+4318000D01*
X+1143000Y+3937000D01*
X+0Y+3937000D01*
X+2286000Y+4572000D02*
X+1524000Y+4572000D01*
X+1143000Y+4191000D01*
X+0Y+4191000D01*
X+0Y+4445000D02*
X+1143001Y+4445000D01*
X+1460501Y+4762500D01*
X+1841500Y+4762500D01*
X+2095500Y+5016500D01*
X+2286000Y+5016500D01*
X+0Y+5715000D02*
X+127000Y+5715000D01*
X+254000Y+5842000D01*
X+1460500Y+5842000D01*
X+2032000Y+5270500D01*
X+2286000Y+5270500D01*
X+0Y+5969000D02*
X+1524000Y+5969000D01*
X+1968500Y+5524500D01*
X+2286000Y+5524500D01*
X+0Y+6223000D02*
X+127000Y+6223000D01*
X+254000Y+6096000D01*
X+1587500Y+6096000D01*
X+1905000Y+5778500D01*
X+2286000Y+5778500D01*
X-762000Y+5715000D02*
X-571500Y+5715000D01*
X-508000Y+5651500D01*
X-508000Y+2921000D01*
X+0Y+2413000D01*
X+0Y+2286000D01*
D14*
X-2222500Y+825500D02*
X-2222500Y+317500D01*
D10*
X+762000Y+2286000D02*
X+1234523Y+1813477D01*
X+1875023Y+1813477D01*
X+2101000Y+1587500D01*
X+0Y+3175000D02*
X+317500Y+3175000D01*
X+698500Y+2921000D02*
X+540649Y+2921000D01*
X+317500Y+3144149D01*
X+317500Y+3175000D01*
X+698500Y+2921000D02*
X+698500Y+2667000D01*
X+762000Y+2603500D01*
X+762000Y+2286000D01*
D14*
X-254000Y+4699000D02*
X-254000Y+2984500D01*
X-190500Y+2921000D01*
D10*
X+1651000Y+3810000D02*
X+2286000Y+3810000D01*
D14*
X+1968500Y+2540000D02*
X+2286000Y+2540000D01*
X-190500Y+2921000D02*
X+127000Y+2603500D01*
X+444499Y+2603500D01*
X+508000Y+2540000D01*
D10*
X+0Y+3429000D02*
X+1460500Y+3429000D01*
X+2095500Y+2794000D01*
X+2286000Y+2794000D01*
D14*
X+2286000Y+2286000D02*
X+2057400Y+2286000D01*
X+1968500Y+2286000D01*
X+1968500Y+2540000D02*
X+1651000Y+2540000D01*
X+508000Y+2540000D02*
X+508000Y+2539999D01*
X+508000Y+2476499D01*
X+508000Y+2286000D01*
X+508000Y+2540000D02*
X+508000Y+2476499D01*
D10*
X-508000Y+2286000D02*
X-952500Y+2286000D01*
X-952500Y+5969000D02*
X-762000Y+5969000D01*
X-762000Y+5461000D02*
X-1206500Y+5461000D01*
X-364536Y+2476500D02*
X-254000Y+2365964D01*
X-254000Y+2286000D01*
X-1206500Y+2476500D02*
X-364536Y+2476500D01*
X-366888Y+2478852D01*
X-1204148Y+2478852D01*
X-1206500Y+2476500D01*
D14*
X+1968500Y+6032500D02*
X+2286000Y+6032500D01*
D13*
X-6731000Y+6350000D02*
X-6477000Y+6350000D01*
X-6477000Y+4635500D02*
X-6477000Y+4572000D01*
X-6477000Y+4508500D01*
X-6477000Y+2857500D02*
X-6477000Y+2794000D01*
X-6477000Y+2730500D01*
X-5334000Y+2730500D02*
X-5334000Y+2032000D01*
D14*
X-2794000Y+1905000D02*
X-2794000Y+1651000D01*
X+508000Y+1651000D02*
X+508000Y+1325500D01*
X+389000Y+1325500D01*
X+508000Y+2073791D02*
X+508000Y+1651000D01*
D13*
X-5334000Y+2032000D02*
X-5654636Y+2032000D01*
X-5969000Y+1717636D01*
X-5969000Y+1397000D01*
D10*
X-762000Y+3429000D02*
X-1633682Y+3429000D01*
X-1887682Y+3175000D01*
X-2540000Y+3175000D01*
D13*
X+1397000Y+5080000D02*
X+1397000Y+4953000D01*
X+1270000Y+4826000D01*
X+381000Y+4826000D01*
X+254000Y+4953000D01*
X+0Y+4953000D01*
D14*
X+558800Y+7112000D02*
X+558800Y+6426200D01*
X+698500Y+6286500D01*
X+1714500Y+6286500D01*
X+1968500Y+6032500D01*
D10*
X-6731000Y+5588000D02*
X-6350000Y+5588000D01*
X-6286500Y+5524500D01*
X-6286500Y+4191000D01*
X-6159500Y+4064000D01*
X-5588000Y+4064000D01*
X-6093460Y+6880860D02*
X-6096000Y+6878320D01*
X-6096000Y+4445000D01*
X-5992519Y+4341519D01*
X-5611519Y+4341519D01*
X-5588000Y+4318000D01*
D13*
X-3299460Y+6604000D02*
X-3873500Y+6604000D01*
X-4254500Y+6223000D01*
X-5524500Y+6223000D01*
X-5588000Y+6159500D01*
X-5588000Y+5969000D01*
D10*
X-4061460Y+6880860D02*
X-4061460Y+6733540D01*
X-4381500Y+6413500D01*
X-5778500Y+6413500D01*
X-5842000Y+6350000D01*
X-5842000Y+4953000D01*
X-5715000Y+4826000D01*
X-5588000Y+4826000D01*
X-5077460Y+6880860D02*
X-5077460Y+6733540D01*
X-5207000Y+6604000D01*
X-5841999Y+6604000D01*
X-5969000Y+6476999D01*
X-5969000Y+4698999D01*
X-5842001Y+4572000D01*
X-5588000Y+4572000D01*
D14*
X+2286000Y+6032500D02*
X+2476500Y+6032500D01*
X+2540000Y+5969000D01*
X+2540000Y+3619500D01*
X+2476500Y+3556000D01*
X+2286000Y+3556000D01*
X+2095500Y+3556000D01*
X+2032000Y+3492500D01*
X+2032000Y+3174999D01*
X+2158999Y+3048000D01*
X+2413001Y+3048000D01*
X+2540000Y+2921001D01*
X+2540000Y+2603500D01*
X+2476500Y+2540000D01*
X+2286000Y+2540000D01*
D12*
X-9906000Y+3182620D02*
X-9411292Y+3182620D01*
X-9213172Y+2984500D01*
X-8642500Y+2984500D01*
X-8636000Y+2978000D01*
D11*
X-10414000Y+2667000D02*
X-9922367Y+2665873D01*
X-9906000Y+2682240D01*
D10*
X-627380Y+7493000D02*
X-627380Y+7310119D01*
X-952500Y+6984999D01*
X-952500Y+6305760D01*
X-868020Y+6221280D01*
X-763720Y+6221280D01*
X-762000Y+6223000D01*
X-2125980Y+7493000D02*
X-2125980Y+7332980D01*
X-1333500Y+6540500D01*
X-1333500Y+5524500D01*
X-1270000Y+5461000D01*
X-1206500Y+5461000D01*
X-127000Y+7493000D02*
X-127000Y+7302500D01*
X-762000Y+6667500D01*
X-762000Y+6477000D01*
X-1628140Y+7493000D02*
X-1628140Y+7343140D01*
X-1206500Y+6921500D01*
X-1206500Y+5842000D01*
X-1079500Y+5715000D01*
X-762000Y+5715000D01*
D18*
X+1651000Y+2540000D03*
X+508000Y+2540000D03*
X-952500Y+2286000D03*
X-952500Y+5969000D03*
X-1206500Y+2476500D03*
X-6477000Y+6350000D03*
X-6477000Y+4635500D03*
X-6477000Y+4508500D03*
X-6477000Y+2857500D03*
X-6477000Y+2730500D03*
X-5334000Y+2730500D03*
X-2794000Y+1651000D03*
X+508000Y+1651000D03*
X-1206500Y+5461000D03*
D19*
X+3266440Y-789941D02*
X-3048000Y-789941D01*
X-3048000Y-406399D01*
X-2958572Y-406399D01*
X-2832101Y-279928D01*
X-2832101Y-101072D01*
X-2958572Y+25399D01*
X-3048000Y+25399D01*
X-3048000Y+101601D01*
X-2958572Y+101601D01*
X-2832101Y+228072D01*
X-2832101Y+406928D01*
X-2958572Y+533399D01*
X-3048000Y+533399D01*
X-3048000Y+609601D01*
X-2958572Y+609601D01*
X-2832101Y+736072D01*
X-2832101Y+914928D01*
X-2958572Y+1041399D01*
X-3048000Y+1041399D01*
X-3048000Y+1117601D01*
X-2958572Y+1117601D01*
X-2882372Y+1193801D01*
X-2388128Y+1193801D01*
X-2311928Y+1117601D01*
X-2133072Y+1117601D01*
X-2069572Y+1181101D01*
X-1750918Y+1181101D01*
X-1642966Y+1073149D01*
X-1644649Y+1073149D01*
X-1644649Y+196851D01*
X-1612899Y+196851D01*
X-1612899Y+73143D01*
X-1724143Y-38101D01*
X-2069572Y-38101D01*
X-2133072Y+25399D01*
X-2311928Y+25399D01*
X-2438399Y-101072D01*
X-2438399Y-279928D01*
X-2311928Y-406399D01*
X-2133072Y-406399D01*
X-2069572Y-342899D01*
X-1597893Y-342899D01*
X-1308101Y-53107D01*
X-1308101Y+196851D01*
X-1276351Y+196851D01*
X-1276351Y+228601D01*
X-381376Y+228601D01*
X+211201Y+821178D01*
X+211201Y+751853D01*
X+315353Y+647701D01*
X+462647Y+647701D01*
X+566799Y+751853D01*
X+566799Y+899147D01*
X+517445Y+948501D01*
X+760555Y+948501D01*
X+711201Y+899147D01*
X+711201Y+751853D01*
X+815353Y+647701D01*
X+962647Y+647701D01*
X+1066799Y+751853D01*
X+1066799Y+899147D01*
X+1015446Y+950500D01*
X+1023797Y+958851D01*
X+1085311Y+958851D01*
X+1112257Y+985797D01*
X+1132853Y+965201D01*
X+1280147Y+965201D01*
X+1384299Y+1069353D01*
X+1384299Y+1216647D01*
X+1280147Y+1320799D01*
X+1132853Y+1320799D01*
X+1075703Y+1263649D01*
X+1066799Y+1263649D01*
X+1066799Y+1399147D01*
X+962647Y+1503299D01*
X+815353Y+1503299D01*
X+764553Y+1452499D01*
X+634999Y+1452499D01*
X+634999Y+1544514D01*
X+673099Y+1582614D01*
X+673099Y+1719386D01*
X+634999Y+1757486D01*
X+634999Y+2101851D01*
X+775527Y+2101851D01*
X+1184550Y+1692828D01*
X+1451001Y+1692828D01*
X+1435101Y+1676928D01*
X+1435101Y+1498072D01*
X+1561572Y+1371601D01*
X+1740428Y+1371601D01*
X+1866899Y+1498072D01*
X+1866899Y+1650979D01*
X+1885101Y+1632777D01*
X+1885101Y+1498072D01*
X+2011572Y+1371601D01*
X+2190428Y+1371601D01*
X+2316899Y+1498072D01*
X+2316899Y+1676928D01*
X+2190428Y+1803399D01*
X+2055723Y+1803399D01*
X+1924996Y+1934126D01*
X+1284496Y+1934126D01*
X+946149Y+2272473D01*
X+946149Y+2470149D01*
X+882649Y+2470149D01*
X+882649Y+2653473D01*
X+819149Y+2716973D01*
X+819149Y+2790203D01*
X+876299Y+2847353D01*
X+876299Y+2994647D01*
X+772147Y+3098799D01*
X+746745Y+3098799D01*
X+749299Y+3101353D01*
X+749299Y+3248647D01*
X+689595Y+3308351D01*
X+1410527Y+3308351D01*
X+1620079Y+3098799D01*
X+1577353Y+3098799D01*
X+1473201Y+2994647D01*
X+1473201Y+2847353D01*
X+1577353Y+2743201D01*
X+1724647Y+2743201D01*
X+1828799Y+2847353D01*
X+1828799Y+2890079D01*
X+2001079Y+2717799D01*
X+1894853Y+2717799D01*
X+1844053Y+2666999D01*
X+1757486Y+2666999D01*
X+1719386Y+2705099D01*
X+1582614Y+2705099D01*
X+1485901Y+2608386D01*
X+1485901Y+2471614D01*
X+1582614Y+2374901D01*
X+1719386Y+2374901D01*
X+1757486Y+2413001D01*
X+1844053Y+2413001D01*
X+1844054Y+2413000D01*
X+1790701Y+2359647D01*
X+1790701Y+2212353D01*
X+1894853Y+2108201D01*
X+2042147Y+2108201D01*
X+2101851Y+2167905D01*
X+2101851Y+2101851D01*
X+2470149Y+2101851D01*
X+2470149Y+2413001D01*
X+2529103Y+2413001D01*
X+2666999Y+2550897D01*
X+2666999Y+2973604D01*
X+2470149Y+3170454D01*
X+2470149Y+3429001D01*
X+2529103Y+3429001D01*
X+2666999Y+3566897D01*
X+2666999Y+6021603D01*
X+2529103Y+6159499D01*
X+2470149Y+6159499D01*
X+2470149Y+6470649D01*
X+2101851Y+6470649D01*
X+2101851Y+6159499D01*
X+2021103Y+6159499D01*
X+1767104Y+6413498D01*
X+751104Y+6413498D01*
X+685799Y+6478803D01*
X+685799Y+6763579D01*
X+839027Y+6610351D01*
X+1012203Y+6610351D01*
X+1069353Y+6553201D01*
X+1216647Y+6553201D01*
X+1320799Y+6657353D01*
X+1320799Y+6763579D01*
X+1474027Y+6610351D01*
X+1629243Y+6610351D01*
X+1699093Y+6540501D01*
X+1856907Y+6540501D01*
X+1968499Y+6652093D01*
X+1968499Y+6809907D01*
X+1856907Y+6921499D01*
X+1699093Y+6921499D01*
X+1629243Y+6851649D01*
X+1573973Y+6851649D01*
X+1192973Y+7232649D01*
X+1069056Y+7232649D01*
X+1030956Y+7270749D01*
X+899444Y+7270749D01*
X+863600Y+7234905D01*
X+827756Y+7270749D01*
X+696244Y+7270749D01*
X+660400Y+7234905D01*
X+624556Y+7270749D01*
X+493044Y+7270749D01*
X+400051Y+7177756D01*
X+400051Y+7046244D01*
X+431801Y+7014494D01*
X+431801Y+6373597D01*
X+588749Y+6216649D01*
X+303973Y+6216649D01*
X+176973Y+6343649D01*
X+112836Y+6343649D01*
X+106617Y+6349868D01*
X+204814Y+6349868D01*
X+374649Y+6519703D01*
X+374649Y+6600203D01*
X+431799Y+6657353D01*
X+431799Y+6804647D01*
X+327647Y+6908799D01*
X+180353Y+6908799D01*
X+76201Y+6804647D01*
X+76201Y+6657353D01*
X+123628Y+6609926D01*
X+112094Y+6598392D01*
X+68386Y+6642099D01*
X-68386Y+6642099D01*
X-165099Y+6545386D01*
X-165099Y+6408614D01*
X-106485Y+6350000D01*
X-165099Y+6291386D01*
X-165099Y+6154614D01*
X-106485Y+6096000D01*
X-165099Y+6037386D01*
X-165099Y+5900614D01*
X-106485Y+5842000D01*
X-165099Y+5783386D01*
X-165099Y+5646614D01*
X-106485Y+5588000D01*
X-165099Y+5529386D01*
X-165099Y+5392614D01*
X-106485Y+5334000D01*
X-165099Y+5275386D01*
X-165099Y+5138614D01*
X-106485Y+5080000D01*
X-106487Y+5079998D01*
X-147513Y+5079998D01*
X-185614Y+5118099D01*
X-322386Y+5118099D01*
X-387351Y+5053134D01*
X-387351Y+5701473D01*
X-521527Y+5835649D01*
X-649164Y+5835649D01*
X-655515Y+5842000D01*
X-596901Y+5900614D01*
X-596901Y+6037386D01*
X-655515Y+6096000D01*
X-596901Y+6154614D01*
X-596901Y+6291386D01*
X-655515Y+6350000D01*
X-596901Y+6408614D01*
X-596901Y+6545386D01*
X-641351Y+6589836D01*
X-641351Y+6617527D01*
X-6351Y+7252527D01*
X-6351Y+7272401D01*
X+114299Y+7393051D01*
X+114299Y+7592949D01*
X-27051Y+7734299D01*
X-226949Y+7734299D01*
X-368299Y+7592949D01*
X-368299Y+7393051D01*
X-287685Y+7312437D01*
X-831851Y+6768271D01*
X-831851Y+6935026D01*
X-506731Y+7260146D01*
X-506731Y+7272401D01*
X-386081Y+7393051D01*
X-386081Y+7592949D01*
X-527431Y+7734299D01*
X-727329Y+7734299D01*
X-868679Y+7592949D01*
X-868679Y+7393051D01*
X-791874Y+7316246D01*
X-958851Y+7149270D01*
X-958851Y+7320661D01*
X-886461Y+7393051D01*
X-886461Y+7592949D01*
X-1027811Y+7734299D01*
X-1227709Y+7734299D01*
X-1369059Y+7592949D01*
X-1369059Y+7393051D01*
X-1227709Y+7251701D01*
X-1200149Y+7251701D01*
X-1200149Y+7085771D01*
X-1447135Y+7332757D01*
X-1386841Y+7393051D01*
X-1386841Y+7592949D01*
X-1528191Y+7734299D01*
X-1728089Y+7734299D01*
X-1869439Y+7592949D01*
X-1869439Y+7393051D01*
X-1728089Y+7251701D01*
X-1707323Y+7251701D01*
X-1327149Y+6871527D01*
X-1327149Y+6704771D01*
X-1950055Y+7327677D01*
X-1884681Y+7393051D01*
X-1884681Y+7592949D01*
X-2026031Y+7734299D01*
X-2225929Y+7734299D01*
X-2367279Y+7592949D01*
X-2367279Y+7393051D01*
X-2225929Y+7251701D01*
X-2215323Y+7251701D01*
X-1454149Y+6490527D01*
X-1454149Y+5474527D01*
X-1319973Y+5340351D01*
X-1319336Y+5340351D01*
X-1274886Y+5295901D01*
X-1138114Y+5295901D01*
X-1093664Y+5340351D01*
X-874836Y+5340351D01*
X-868485Y+5334000D01*
X-927099Y+5275386D01*
X-927099Y+5138614D01*
X-868485Y+5080000D01*
X-927099Y+5021386D01*
X-927099Y+4884614D01*
X-868485Y+4826000D01*
X-927099Y+4767386D01*
X-927099Y+4630614D01*
X-868485Y+4572000D01*
X-874836Y+4565649D01*
X-1410525Y+4565648D01*
X-1466852Y+4621975D01*
X-1466852Y+5320474D01*
X-1593851Y+5447473D01*
X-1593851Y+5891973D01*
X-2172527Y+6470649D01*
X-2427164Y+6470649D01*
X-2471614Y+6515099D01*
X-2608386Y+6515099D01*
X-2705099Y+6418386D01*
X-2705099Y+6281614D01*
X-2684584Y+6261099D01*
X-2705099Y+6261099D01*
X-2705099Y+5930901D01*
X-2374901Y+5930901D01*
X-2374901Y+5975351D01*
X-2208974Y+5975351D01*
X-2052534Y+5818912D01*
X-2082799Y+5788647D01*
X-2082799Y+5641353D01*
X-2023095Y+5581649D01*
X-2427164Y+5581649D01*
X-2471614Y+5626099D01*
X-2608386Y+5626099D01*
X-2667001Y+5567484D01*
X-2667001Y+5590553D01*
X-2616201Y+5641353D01*
X-2616201Y+5788647D01*
X-2720353Y+5892799D01*
X-2867647Y+5892799D01*
X-2908301Y+5852145D01*
X-2908301Y+6598365D01*
X-3048000Y+6738064D01*
X-3048000Y+8028941D01*
X+3266440Y+8028941D01*
X+3266440Y-789941D01*
X-2385061Y+7592949D02*
X-2385061Y+7393051D01*
X-2526411Y+7251701D01*
X-2726309Y+7251701D01*
X-2867659Y+7393051D01*
X-2867659Y+7592949D01*
X-2726309Y+7734299D01*
X-2526411Y+7734299D01*
X-2385061Y+7592949D01*
X-2006601Y+914928D02*
X-2006601Y+736072D01*
X-2108201Y+634472D01*
X-2108201Y+508528D01*
X-2006601Y+406928D01*
X-2006601Y+228072D01*
X-2133072Y+101601D01*
X-2311928Y+101601D01*
X-2438399Y+228072D01*
X-2438399Y+406928D01*
X-2336799Y+508528D01*
X-2336799Y+634472D01*
X-2438399Y+736072D01*
X-2438399Y+914928D01*
X-2311928Y+1041399D01*
X-2133072Y+1041399D01*
X-2006601Y+914928D01*
X+1885101Y+848072D02*
X+1885101Y+1026928D01*
X+2011572Y+1153399D01*
X+2190428Y+1153399D01*
X+2316899Y+1026928D01*
X+2316899Y+848072D01*
X+2190428Y+721601D01*
X+2011572Y+721601D01*
X+1885101Y+848072D01*
X+1435101Y+848072D02*
X+1435101Y+1026928D01*
X+1561572Y+1153399D01*
X+1740428Y+1153399D01*
X+1866899Y+1026928D01*
X+1866899Y+848072D01*
X+1740428Y+721601D01*
X+1561572Y+721601D01*
X+1435101Y+848072D01*
X+1856907Y+7302501D02*
X+1699093Y+7302501D01*
X+1587501Y+7414093D01*
X+1587501Y+7571907D01*
X+1699093Y+7683499D01*
X+1856907Y+7683499D01*
X+1968499Y+7571907D01*
X+1968499Y+7414093D01*
X+1856907Y+7302501D01*
X+946149Y+438149D02*
X+999892Y+438149D01*
X+1063392Y+374649D01*
X+1075703Y+374649D01*
X+1132853Y+431799D01*
X+1280147Y+431799D01*
X+1384299Y+327647D01*
X+1384299Y+180353D01*
X+1280147Y+76201D01*
X+1132853Y+76201D01*
X+1075703Y+133351D01*
X+963446Y+133351D01*
X+899946Y+196851D01*
X+323851Y+196851D01*
X+323851Y+565149D01*
X+946149Y+565149D01*
X+946149Y+438149D01*
X+2324101Y+7361861D02*
X+2324101Y+7751139D01*
X+2599361Y+8026399D01*
X+2988639Y+8026399D01*
X+3263899Y+7751139D01*
X+3263899Y+7361861D01*
X+2988639Y+7086601D01*
X+2599361Y+7086601D01*
X+2324101Y+7361861D01*
X+2324101Y-448639D02*
X+2324101Y-59361D01*
X+2599361Y+215899D01*
X+2988639Y+215899D01*
X+3263899Y-59361D01*
X+3263899Y-448639D01*
X+2988639Y-723899D01*
X+2599361Y-723899D01*
X+2324101Y-448639D01*
X-628649Y+2871027D02*
X-357123Y+2599501D01*
X-1096016Y+2599501D01*
X-1138114Y+2641599D01*
X-1274886Y+2641599D01*
X-1371599Y+2544886D01*
X-1371599Y+2408114D01*
X-1274886Y+2311401D01*
X-1138114Y+2311401D01*
X-1117599Y+2331916D01*
X-1117599Y+2217614D01*
X-1020886Y+2120901D01*
X-884114Y+2120901D01*
X-839664Y+2165351D01*
X-692149Y+2165351D01*
X-692149Y+2101851D01*
X+381001Y+2101851D01*
X+381001Y+1757486D01*
X+342901Y+1719386D01*
X+342901Y+1582614D01*
X+381001Y+1544514D01*
X+381001Y+1503299D01*
X+315353Y+1503299D01*
X+211201Y+1399147D01*
X+211201Y+1251853D01*
X+235155Y+1227899D01*
X+186874Y+1227899D01*
X-507626Y+533399D01*
X-1276351Y+533399D01*
X-1276351Y+1073149D01*
X-1308101Y+1073149D01*
X-1308101Y+1169332D01*
X-1624668Y+1485899D01*
X-2069572Y+1485899D01*
X-2133072Y+1549399D01*
X-2311928Y+1549399D01*
X-2388128Y+1473199D01*
X-2882372Y+1473199D01*
X-2958572Y+1549399D01*
X-3048000Y+1549399D01*
X-3048000Y+1727201D01*
X-2974353Y+1727201D01*
X-2921000Y+1780554D01*
X-2920998Y+1780552D01*
X-2920998Y+1757487D01*
X-2959099Y+1719386D01*
X-2959099Y+1582614D01*
X-2862386Y+1485901D01*
X-2725614Y+1485901D01*
X-2628901Y+1582614D01*
X-2628901Y+1719386D01*
X-2667002Y+1757487D01*
X-2667002Y+1780552D01*
X-2616201Y+1831353D01*
X-2616201Y+1978647D01*
X-2631455Y+1993901D01*
X-2374901Y+1993901D01*
X-2374901Y+2038351D01*
X-2081973Y+2038351D01*
X-2052534Y+2008912D01*
X-2082799Y+1978647D01*
X-2082799Y+1831353D01*
X-1978647Y+1727201D01*
X-1831353Y+1727201D01*
X-1727201Y+1831353D01*
X-1727201Y+1978647D01*
X-1784351Y+2035797D01*
X-1784351Y+2081973D01*
X-1982027Y+2279649D01*
X-2374901Y+2279649D01*
X-2374901Y+2292351D01*
X-1824238Y+2292352D01*
X-1060239Y+3056351D01*
X-874836Y+3056351D01*
X-830386Y+3011901D01*
X-693614Y+3011901D01*
X-628649Y+3076866D01*
X-628649Y+2871027D01*
X+1982027Y+5149851D02*
X+2101851Y+5149851D01*
X+2101851Y+5137149D01*
X+2045527Y+5137149D01*
X+1791527Y+4883149D01*
X+1506751Y+4883149D01*
X+1523998Y+4900396D01*
X+1523998Y+4955552D01*
X+1574799Y+5006353D01*
X+1574799Y+5153647D01*
X+1523999Y+5204447D01*
X+1523998Y+5334000D01*
X+1523999Y+5463553D01*
X+1574799Y+5514353D01*
X+1574799Y+5557079D01*
X+1982027Y+5149851D01*
X+342901Y+2471614D02*
X+344366Y+2470149D01*
X+113473Y+2470149D01*
X+107121Y+2476501D01*
X+342901Y+2476501D01*
X+342901Y+2471614D01*
X-927099Y+4699000D02*
X-762000Y+4699000D01*
X-2385061Y+7493000D02*
X-2626360Y+7493000D01*
X-2867659Y+7493000D02*
X-2626360Y+7493000D01*
X-2626360Y+7734299D02*
X-2626360Y+7493000D01*
X-2626360Y+7251701D02*
X-2626360Y+7493000D01*
X+254000Y+2101851D02*
X+254000Y+2286000D01*
X+254000Y+2470149D02*
X+254000Y+2286000D01*
X+2101851Y+6286500D02*
X+2286000Y+6286500D01*
X+2470149Y+6286500D02*
X+2286000Y+6286500D01*
X+2286000Y+6470649D02*
X+2286000Y+6286500D01*
X-3048000Y+25399D02*
X-3048000Y-190500D01*
X-3048000Y-406399D02*
X-3048000Y-190500D01*
X-2832101Y-190500D02*
X-3048000Y-190500D01*
X-2222500Y+1041399D02*
X-2222500Y+825500D01*
X-2438399Y+825500D02*
X-2222500Y+825500D01*
X-2006601Y+825500D02*
X-2222500Y+825500D01*
X-2222500Y+101601D02*
X-2222500Y+317500D01*
X-2006601Y+317500D02*
X-2222500Y+317500D01*
X-2438399Y+317500D02*
X-2222500Y+317500D01*
X+1435101Y+937500D02*
X+1651000Y+937500D01*
X+1866899Y+937500D02*
X+1651000Y+937500D01*
X+1651000Y+721601D02*
X+1651000Y+937500D01*
X+1651000Y+1153399D02*
X+1651000Y+937500D01*
X-1276351Y+635000D02*
X-1460500Y+635000D01*
X-1644649Y+635000D02*
X-1460500Y+635000D01*
X-254000Y+5118099D02*
X-254000Y+4953000D01*
X+749299Y+3175000D02*
X+571500Y+3175000D01*
X+2470149Y+2286000D02*
X+2286000Y+2286000D01*
X+2286000Y+2101851D02*
X+2286000Y+2286000D01*
X+1574799Y+5080000D02*
X+1397000Y+5080000D01*
X+1778000Y+7302501D02*
X+1778000Y+7493000D01*
X+1778000Y+7683499D02*
X+1778000Y+7493000D01*
X+1968499Y+7493000D02*
X+1778000Y+7493000D01*
X+1587501Y+7493000D02*
X+1778000Y+7493000D01*
X+2470149Y+3302000D02*
X+2286000Y+3302000D01*
X+1651000Y+2743201D02*
X+1651000Y+2921000D01*
X+1473201Y+2921000D02*
X+1651000Y+2921000D01*
X+323851Y+381000D02*
X+508000Y+381000D01*
X+508000Y+565149D02*
X+508000Y+381000D01*
X+508000Y+196851D02*
X+508000Y+381000D01*
X+1968500Y+2108201D02*
X+1968500Y+2286000D01*
X+1790701Y+2286000D02*
X+1968500Y+2286000D01*
D70*
X+0Y+3175000D03*
D18*
X+0Y+3429000D03*
X+0Y+3683000D03*
X+0Y+3937000D03*
X+0Y+4191000D03*
X+0Y+4445000D03*
X+0Y+4699000D03*
X+0Y+4953000D03*
X+0Y+5207000D03*
X+0Y+5461000D03*
X+0Y+5715000D03*
X+0Y+5969000D03*
X+0Y+6223000D03*
X+0Y+6477000D03*
X-762000Y+6477000D03*
X-762000Y+6223000D03*
X-762000Y+5969000D03*
X-762000Y+5715000D03*
X-762000Y+5461000D03*
X-762000Y+5207000D03*
X-762000Y+4953000D03*
X-762000Y+4699000D03*
X-762000Y+4445000D03*
X-762000Y+4191000D03*
X-762000Y+3937000D03*
X-762000Y+3683000D03*
X-762000Y+3429000D03*
X-762000Y+3177000D03*
D71*
X-7416000Y+1778000D03*
X-7416000Y+2978000D03*
X-7216000Y+2378000D03*
X-8636000Y+1778000D03*
X-8636000Y+2978000D03*
X-7416000Y+3556000D03*
X-7416000Y+4756000D03*
X-7216000Y+4156000D03*
X-8636000Y+3556000D03*
X-8636000Y+4756000D03*
X-7416000Y+5334000D03*
X-7416000Y+6534000D03*
X-7216000Y+5934000D03*
X-8636000Y+5334000D03*
X-8636000Y+6534000D03*
D70*
X-4826000Y+3556000D03*
D18*
X-4826000Y+3810000D03*
X-4826000Y+4064000D03*
X-4826000Y+4318000D03*
X-4826000Y+4572000D03*
X-4826000Y+4826000D03*
X-4826000Y+5080000D03*
X-4826000Y+5334000D03*
X-4826000Y+5588000D03*
X-5588000Y+5588000D03*
X-5588000Y+5334000D03*
X-5588000Y+5080000D03*
X-5588000Y+4826000D03*
X-5588000Y+4572000D03*
X-5588000Y+4318000D03*
X-5588000Y+4064000D03*
X-5588000Y+3810000D03*
X-5588000Y+3556000D03*
D20*
X-5928360Y+7493000D03*
X-5427980Y+7493000D03*
X-4927600Y+7493000D03*
X-4427220Y+7493000D03*
X-3929380Y+7493000D03*
X-3429000Y+7493000D03*
X-127000Y+7493000D03*
X-627380Y+7493000D03*
X-1127760Y+7493000D03*
X-1628140Y+7493000D03*
X-2125980Y+7493000D03*
X-2626360Y+7493000D03*
D71*
X-5334000Y+2032000D03*
X-4826000Y+2032000D03*
D20*
X-9906000Y+2682240D03*
X-9906000Y+3182620D03*
X-9906000Y+3683000D03*
X-9906000Y+4183380D03*
X-9906000Y+4681220D03*
X-9906000Y+5181600D03*
D21*
X+762000Y+2286000D03*
X+508000Y+2286000D03*
X+254000Y+2286000D03*
X+0Y+2286000D03*
X-254000Y+2286000D03*
X-508000Y+2286000D03*
X+2286000Y+5016500D03*
X+2286000Y+5270500D03*
X+2286000Y+5524500D03*
X+2286000Y+5778500D03*
X+2286000Y+6032500D03*
X+2286000Y+6286500D03*
D22*
X+698500Y+5080000D03*
X+698500Y+5588000D03*
D71*
X-3048000Y+1333500D03*
X-3048000Y-190500D03*
X-3048000Y+825500D03*
X-3048000Y+317500D03*
X-2222500Y+1333500D03*
X-2222500Y+825500D03*
D20*
X-3937000Y-127000D03*
X-4445000Y-127000D03*
D71*
X-5969000Y+889000D03*
X-4445000Y+889000D03*
X-5461000Y+889000D03*
X-4953000Y+889000D03*
X-2222500Y-190500D03*
X-2222500Y+317500D03*
X+2101000Y+1587500D03*
X+2101000Y+937500D03*
X+1651000Y+1587500D03*
X+1651000Y+937500D03*
D21*
X-1460500Y+889000D03*
X-1460500Y+635000D03*
X-1460500Y+381000D03*
D18*
X-254000Y+4699000D03*
X-254000Y+4953000D03*
D23*
X+317500Y+3175000D03*
X+571500Y+3175000D03*
X-190500Y+2921000D03*
X+698500Y+2921000D03*
D21*
X+2286000Y+2794000D03*
X+2286000Y+2540000D03*
X+2286000Y+2286000D03*
D23*
X-6731000Y+2032000D03*
X-6731000Y+2794000D03*
X-6731000Y+3810000D03*
X-6731000Y+4572000D03*
X-6731000Y+5588000D03*
X-6731000Y+6350000D03*
X-6093460Y+6880860D03*
X-5331460Y+6880860D03*
X-5077460Y+6880860D03*
X-4315460Y+6880860D03*
X-4061460Y+6880860D03*
X-3299460Y+6880860D03*
X-4826000Y+5969000D03*
X-5588000Y+5969000D03*
X+389000Y+825500D03*
X+389000Y+1075500D03*
X+389000Y+1325500D03*
X+889000Y+1325500D03*
X+889000Y+1075500D03*
X+889000Y+825500D03*
X+1397000Y+5080000D03*
X+1143000Y+5080000D03*
X+1397000Y+5588000D03*
X+1143000Y+5588000D03*
D22*
X+1778000Y+6731000D03*
X+1778000Y+7493000D03*
D21*
X+2286000Y+3302000D03*
X+2286000Y+3556000D03*
X+2286000Y+3810000D03*
X+2286000Y+4064000D03*
X+2286000Y+4318000D03*
X+2286000Y+4572000D03*
D23*
X+1651000Y+3810000D03*
X+1651000Y+2921000D03*
D70*
X-2540000Y+2159000D03*
D18*
X-2540000Y+2413000D03*
X-3302000Y+2413000D03*
X-3302000Y+2159000D03*
D23*
X-3937000Y+1905000D03*
X-3048000Y+1905000D03*
X-2794000Y+1905000D03*
X-1905000Y+1905000D03*
D70*
X-2540000Y+2921000D03*
D18*
X-2540000Y+3175000D03*
X-3302000Y+3175000D03*
X-3302000Y+2921000D03*
D23*
X-3937000Y+2667000D03*
X-3048000Y+2667000D03*
X-2794000Y+2667000D03*
X-1905000Y+2667000D03*
D70*
X-2540000Y+3683000D03*
D18*
X-2540000Y+3937000D03*
X-3302000Y+3937000D03*
X-3302000Y+3683000D03*
D23*
X-3937000Y+3429000D03*
X-3048000Y+3429000D03*
X-2794000Y+3429000D03*
X-1905000Y+3429000D03*
D70*
X-2540000Y+4445000D03*
D18*
X-2540000Y+4699000D03*
X-3302000Y+4699000D03*
X-3302000Y+4445000D03*
D23*
X-3937000Y+4191000D03*
X-3048000Y+4191000D03*
X-2794000Y+4191000D03*
X-1905000Y+4191000D03*
D70*
X-2540000Y+5207000D03*
D18*
X-2540000Y+5461000D03*
X-3302000Y+5461000D03*
X-3302000Y+5207000D03*
D23*
X-3937000Y+4953000D03*
X-3048000Y+4953000D03*
X-2794000Y+4953000D03*
X-1905000Y+4953000D03*
D70*
X-2540000Y+6096000D03*
D18*
X-2540000Y+6350000D03*
X-3302000Y+6350000D03*
X-3302000Y+6096000D03*
D23*
X-3937000Y+5715000D03*
X-3048000Y+5715000D03*
X-2794000Y+5715000D03*
X-1905000Y+5715000D03*
D20*
X-4953000Y-127000D03*
X-5461000Y-127000D03*
D24*
X+558800Y+7112000D03*
X+762000Y+7112000D03*
X+965200Y+7112000D03*
D23*
X+1143000Y+6731000D03*
X+254000Y+6731000D03*
D21*
X+762000Y+381000D03*
X+508000Y+381000D03*
D23*
X+1206500Y+1143000D03*
X+1206500Y+254000D03*
D21*
X-4699000Y+1397000D03*
X-4445000Y+1397000D03*
D23*
X-5969000Y+1397000D03*
X-5080000Y+1397000D03*
D22*
X-7485000Y+889000D03*
X-6985000Y+889000D03*
X-8985000Y+889000D03*
X-8485000Y+889000D03*
D20*
X-7493000Y-127000D03*
X-8001000Y-127000D03*
D23*
X+1968500Y+2540000D03*
X+1968500Y+2286000D03*
D25*
X-10223500Y+7556500D03*
X-10223500Y-254000D03*
X+2794000Y+7556500D03*
X+2794000Y-254000D03*
D26*
X-11049000Y-889000D02*
X+3365500Y-889000D01*
X+3365500Y+8128000D01*
X-11049000Y+8128000D01*
X-11049000Y-889000D01*
D12*
X-6985000Y+889000D02*
X-7485000Y+889000D01*
X-8485000Y+889000D02*
X-8985000Y+889000D01*
D27*
X-6858000Y+7277100D02*
X-6858000Y+7581900D01*
X-7029450Y+7581900D01*
X-6858000Y+7429500D02*
X-6972300Y+7429500D01*
X-7115175Y+7480300D02*
X-7229475Y+7480300D01*
X-7258050Y+7429500D01*
X-7258050Y+7277100D01*
X-7115175Y+7277100D01*
X-7086600Y+7327900D01*
X-7115175Y+7378700D01*
X-7258050Y+7378700D01*
X-7400925Y+7480300D02*
X-7400925Y+7277100D01*
X-7400925Y+7581900D02*
X-7400925Y+7581900D01*
X-7543800Y+7277100D02*
X-7543800Y+7480300D01*
X-7543800Y+7429500D02*
X-7572375Y+7480300D01*
X-7686675Y+7480300D01*
X-7715250Y+7429500D01*
X-7772400Y+7480300D02*
X-7772400Y+7378700D01*
X-7800975Y+7327900D01*
X-7915275Y+7327900D01*
X-7943850Y+7378700D01*
X-7943850Y+7480300D02*
X-7943850Y+7277100D01*
X-7915275Y+7226300D01*
X-7772400Y+7226300D01*
X-8029575Y+7429500D02*
X-8172450Y+7429500D01*
X-8401050Y+7277100D02*
X-8229600Y+7277100D01*
X-8229600Y+7581900D01*
X-8401050Y+7581900D01*
X-8229600Y+7429500D02*
X-8343900Y+7429500D01*
X-8543925Y+7581900D02*
X-8543925Y+7277100D01*
X-8715375Y+7480300D02*
X-8829675Y+7480300D01*
X-8858250Y+7429500D01*
X-8858250Y+7277100D01*
X-8715375Y+7277100D01*
X-8686800Y+7327900D01*
X-8715375Y+7378700D01*
X-8858250Y+7378700D01*
X-8915400Y+7429500D02*
X-8943975Y+7480300D01*
X-9058275Y+7480300D01*
X-9086850Y+7429500D01*
X-9086850Y+7327900D01*
X-9058275Y+7277100D01*
X-8943975Y+7277100D01*
X-8915400Y+7327900D01*
X-8915400Y+7277100D02*
X-8915400Y+7581900D01*
M02*
