G04 PROTEUS RS274X GERBER FILE*
%FSLAX45Y45*%
%MOMM*%
G01*
%ADD20C,0.203200*%
%ADD55C,0.127000*%
%ADD56C,0.063500*%
D20*
X+1651000Y+2603500D02*
X+1651000Y+2476500D01*
X+1587500Y+2540000D02*
X+1714500Y+2540000D01*
X+508000Y+2603500D02*
X+508000Y+2476500D01*
X+444500Y+2540000D02*
X+571500Y+2540000D01*
X-952500Y+2349500D02*
X-952500Y+2222500D01*
X-1016000Y+2286000D02*
X-889000Y+2286000D01*
X-952500Y+6032500D02*
X-952500Y+5905500D01*
X-1016000Y+5969000D02*
X-889000Y+5969000D01*
X-1206500Y+2540000D02*
X-1206500Y+2413000D01*
X-1270000Y+2476500D02*
X-1143000Y+2476500D01*
X-6477000Y+6413500D02*
X-6477000Y+6286500D01*
X-6540500Y+6350000D02*
X-6413500Y+6350000D01*
X-6477000Y+4699000D02*
X-6477000Y+4572000D01*
X-6540500Y+4635500D02*
X-6413500Y+4635500D01*
X-6477000Y+4572000D02*
X-6477000Y+4445000D01*
X-6540500Y+4508500D02*
X-6413500Y+4508500D01*
X-6477000Y+2921000D02*
X-6477000Y+2794000D01*
X-6540500Y+2857500D02*
X-6413500Y+2857500D01*
X-6477000Y+2794000D02*
X-6477000Y+2667000D01*
X-6540500Y+2730500D02*
X-6413500Y+2730500D01*
X-5334000Y+2794000D02*
X-5334000Y+2667000D01*
X-5397500Y+2730500D02*
X-5270500Y+2730500D01*
X-2794000Y+1714500D02*
X-2794000Y+1587500D01*
X-2857500Y+1651000D02*
X-2730500Y+1651000D01*
X+508000Y+1714500D02*
X+508000Y+1587500D01*
X+444500Y+1651000D02*
X+571500Y+1651000D01*
X-1206500Y+5524500D02*
X-1206500Y+5397500D01*
X-1270000Y+5461000D02*
X-1143000Y+5461000D01*
X-44901Y+3219901D02*
X+44901Y+3130099D01*
X-44901Y+3130099D02*
X+44901Y+3219901D01*
X+0Y+3492500D02*
X+0Y+3365500D01*
X-63500Y+3429000D02*
X+63500Y+3429000D01*
X-44901Y+3473901D02*
X+44901Y+3384099D01*
X-44901Y+3384099D02*
X+44901Y+3473901D01*
X+0Y+3746500D02*
X+0Y+3619500D01*
X-63500Y+3683000D02*
X+63500Y+3683000D01*
X-44901Y+3727901D02*
X+44901Y+3638099D01*
X-44901Y+3638099D02*
X+44901Y+3727901D01*
X+0Y+4000500D02*
X+0Y+3873500D01*
X-63500Y+3937000D02*
X+63500Y+3937000D01*
X-44901Y+3981901D02*
X+44901Y+3892099D01*
X-44901Y+3892099D02*
X+44901Y+3981901D01*
X+0Y+4254500D02*
X+0Y+4127500D01*
X-63500Y+4191000D02*
X+63500Y+4191000D01*
X-44901Y+4235901D02*
X+44901Y+4146099D01*
X-44901Y+4146099D02*
X+44901Y+4235901D01*
X+0Y+4508500D02*
X+0Y+4381500D01*
X-63500Y+4445000D02*
X+63500Y+4445000D01*
X-44901Y+4489901D02*
X+44901Y+4400099D01*
X-44901Y+4400099D02*
X+44901Y+4489901D01*
X+0Y+4762500D02*
X+0Y+4635500D01*
X-63500Y+4699000D02*
X+63500Y+4699000D01*
X-44901Y+4743901D02*
X+44901Y+4654099D01*
X-44901Y+4654099D02*
X+44901Y+4743901D01*
X+0Y+5016500D02*
X+0Y+4889500D01*
X-63500Y+4953000D02*
X+63500Y+4953000D01*
X-44901Y+4997901D02*
X+44901Y+4908099D01*
X-44901Y+4908099D02*
X+44901Y+4997901D01*
X+0Y+5270500D02*
X+0Y+5143500D01*
X-63500Y+5207000D02*
X+63500Y+5207000D01*
X-44901Y+5251901D02*
X+44901Y+5162099D01*
X-44901Y+5162099D02*
X+44901Y+5251901D01*
X+0Y+5524500D02*
X+0Y+5397500D01*
X-63500Y+5461000D02*
X+63500Y+5461000D01*
X-44901Y+5505901D02*
X+44901Y+5416099D01*
X-44901Y+5416099D02*
X+44901Y+5505901D01*
X+0Y+5778500D02*
X+0Y+5651500D01*
X-63500Y+5715000D02*
X+63500Y+5715000D01*
X-44901Y+5759901D02*
X+44901Y+5670099D01*
X-44901Y+5670099D02*
X+44901Y+5759901D01*
X+0Y+6032500D02*
X+0Y+5905500D01*
X-63500Y+5969000D02*
X+63500Y+5969000D01*
X-44901Y+6013901D02*
X+44901Y+5924099D01*
X-44901Y+5924099D02*
X+44901Y+6013901D01*
X+0Y+6286500D02*
X+0Y+6159500D01*
X-63500Y+6223000D02*
X+63500Y+6223000D01*
X-44901Y+6267901D02*
X+44901Y+6178099D01*
X-44901Y+6178099D02*
X+44901Y+6267901D01*
X+0Y+6540500D02*
X+0Y+6413500D01*
X-63500Y+6477000D02*
X+63500Y+6477000D01*
X-44901Y+6521901D02*
X+44901Y+6432099D01*
X-44901Y+6432099D02*
X+44901Y+6521901D01*
X-762000Y+6540500D02*
X-762000Y+6413500D01*
X-825500Y+6477000D02*
X-698500Y+6477000D01*
X-806901Y+6521901D02*
X-717099Y+6432099D01*
X-806901Y+6432099D02*
X-717099Y+6521901D01*
X-762000Y+6286500D02*
X-762000Y+6159500D01*
X-825500Y+6223000D02*
X-698500Y+6223000D01*
X-806901Y+6267901D02*
X-717099Y+6178099D01*
X-806901Y+6178099D02*
X-717099Y+6267901D01*
X-762000Y+6032500D02*
X-762000Y+5905500D01*
X-825500Y+5969000D02*
X-698500Y+5969000D01*
X-806901Y+6013901D02*
X-717099Y+5924099D01*
X-806901Y+5924099D02*
X-717099Y+6013901D01*
X-762000Y+5778500D02*
X-762000Y+5651500D01*
X-825500Y+5715000D02*
X-698500Y+5715000D01*
X-806901Y+5759901D02*
X-717099Y+5670099D01*
X-806901Y+5670099D02*
X-717099Y+5759901D01*
X-762000Y+5524500D02*
X-762000Y+5397500D01*
X-825500Y+5461000D02*
X-698500Y+5461000D01*
X-806901Y+5505901D02*
X-717099Y+5416099D01*
X-806901Y+5416099D02*
X-717099Y+5505901D01*
X-762000Y+5270500D02*
X-762000Y+5143500D01*
X-825500Y+5207000D02*
X-698500Y+5207000D01*
X-806901Y+5251901D02*
X-717099Y+5162099D01*
X-806901Y+5162099D02*
X-717099Y+5251901D01*
X-762000Y+5016500D02*
X-762000Y+4889500D01*
X-825500Y+4953000D02*
X-698500Y+4953000D01*
X-806901Y+4997901D02*
X-717099Y+4908099D01*
X-806901Y+4908099D02*
X-717099Y+4997901D01*
X-762000Y+4762500D02*
X-762000Y+4635500D01*
X-825500Y+4699000D02*
X-698500Y+4699000D01*
X-806901Y+4743901D02*
X-717099Y+4654099D01*
X-806901Y+4654099D02*
X-717099Y+4743901D01*
X-762000Y+4508500D02*
X-762000Y+4381500D01*
X-825500Y+4445000D02*
X-698500Y+4445000D01*
X-806901Y+4489901D02*
X-717099Y+4400099D01*
X-806901Y+4400099D02*
X-717099Y+4489901D01*
X-762000Y+4254500D02*
X-762000Y+4127500D01*
X-825500Y+4191000D02*
X-698500Y+4191000D01*
X-806901Y+4235901D02*
X-717099Y+4146099D01*
X-806901Y+4146099D02*
X-717099Y+4235901D01*
X-762000Y+4000500D02*
X-762000Y+3873500D01*
X-825500Y+3937000D02*
X-698500Y+3937000D01*
X-806901Y+3981901D02*
X-717099Y+3892099D01*
X-806901Y+3892099D02*
X-717099Y+3981901D01*
X-762000Y+3746500D02*
X-762000Y+3619500D01*
X-825500Y+3683000D02*
X-698500Y+3683000D01*
X-806901Y+3727901D02*
X-717099Y+3638099D01*
X-806901Y+3638099D02*
X-717099Y+3727901D01*
X-762000Y+3492500D02*
X-762000Y+3365500D01*
X-825500Y+3429000D02*
X-698500Y+3429000D01*
X-806901Y+3473901D02*
X-717099Y+3384099D01*
X-806901Y+3384099D02*
X-717099Y+3473901D01*
X-762000Y+3240500D02*
X-762000Y+3113500D01*
X-825500Y+3177000D02*
X-698500Y+3177000D01*
X-806901Y+3221901D02*
X-717099Y+3132099D01*
X-806901Y+3132099D02*
X-717099Y+3221901D01*
X-7352500Y+1778000D02*
X-7352717Y+1783247D01*
X-7354482Y+1793742D01*
X-7358174Y+1804237D01*
X-7364202Y+1814732D01*
X-7373424Y+1825112D01*
X-7383919Y+1832800D01*
X-7394414Y+1837718D01*
X-7404909Y+1840524D01*
X-7415404Y+1841497D01*
X-7416000Y+1841500D01*
X-7479500Y+1778000D02*
X-7479283Y+1783247D01*
X-7477518Y+1793742D01*
X-7473826Y+1804237D01*
X-7467798Y+1814732D01*
X-7458576Y+1825112D01*
X-7448081Y+1832800D01*
X-7437586Y+1837718D01*
X-7427091Y+1840524D01*
X-7416596Y+1841497D01*
X-7416000Y+1841500D01*
X-7479500Y+1778000D02*
X-7479283Y+1772753D01*
X-7477518Y+1762258D01*
X-7473826Y+1751763D01*
X-7467798Y+1741268D01*
X-7458576Y+1730888D01*
X-7448081Y+1723200D01*
X-7437586Y+1718282D01*
X-7427091Y+1715476D01*
X-7416596Y+1714503D01*
X-7416000Y+1714500D01*
X-7352500Y+1778000D02*
X-7352717Y+1772753D01*
X-7354482Y+1762258D01*
X-7358174Y+1751763D01*
X-7364202Y+1741268D01*
X-7373424Y+1730888D01*
X-7383919Y+1723200D01*
X-7394414Y+1718282D01*
X-7404909Y+1715476D01*
X-7415404Y+1714503D01*
X-7416000Y+1714500D01*
X-7416000Y+1841500D02*
X-7416000Y+1714500D01*
X-7479500Y+1778000D02*
X-7352500Y+1778000D01*
X-7352717Y+1783247D01*
X-7354482Y+1793742D01*
X-7358174Y+1804237D01*
X-7364202Y+1814732D01*
X-7373424Y+1825112D01*
X-7383919Y+1832800D01*
X-7394414Y+1837718D01*
X-7404909Y+1840524D01*
X-7415404Y+1841497D01*
X-7416000Y+1841500D01*
X-7479500Y+1778000D02*
X-7479283Y+1783247D01*
X-7477518Y+1793742D01*
X-7473826Y+1804237D01*
X-7467798Y+1814732D01*
X-7458576Y+1825112D01*
X-7448081Y+1832800D01*
X-7437586Y+1837718D01*
X-7427091Y+1840524D01*
X-7416596Y+1841497D01*
X-7416000Y+1841500D01*
X-7479500Y+1778000D02*
X-7479283Y+1772753D01*
X-7477518Y+1762258D01*
X-7473826Y+1751763D01*
X-7467798Y+1741268D01*
X-7458576Y+1730888D01*
X-7448081Y+1723200D01*
X-7437586Y+1718282D01*
X-7427091Y+1715476D01*
X-7416596Y+1714503D01*
X-7416000Y+1714500D01*
X-7352500Y+1778000D02*
X-7352717Y+1772753D01*
X-7354482Y+1762258D01*
X-7358174Y+1751763D01*
X-7364202Y+1741268D01*
X-7373424Y+1730888D01*
X-7383919Y+1723200D01*
X-7394414Y+1718282D01*
X-7404909Y+1715476D01*
X-7415404Y+1714503D01*
X-7416000Y+1714500D01*
X-7460901Y+1822901D02*
X-7371099Y+1733099D01*
X-7460901Y+1733099D02*
X-7371099Y+1822901D01*
X-7352500Y+2978000D02*
X-7352717Y+2983247D01*
X-7354482Y+2993742D01*
X-7358174Y+3004237D01*
X-7364202Y+3014732D01*
X-7373424Y+3025112D01*
X-7383919Y+3032800D01*
X-7394414Y+3037718D01*
X-7404909Y+3040524D01*
X-7415404Y+3041497D01*
X-7416000Y+3041500D01*
X-7479500Y+2978000D02*
X-7479283Y+2983247D01*
X-7477518Y+2993742D01*
X-7473826Y+3004237D01*
X-7467798Y+3014732D01*
X-7458576Y+3025112D01*
X-7448081Y+3032800D01*
X-7437586Y+3037718D01*
X-7427091Y+3040524D01*
X-7416596Y+3041497D01*
X-7416000Y+3041500D01*
X-7479500Y+2978000D02*
X-7479283Y+2972753D01*
X-7477518Y+2962258D01*
X-7473826Y+2951763D01*
X-7467798Y+2941268D01*
X-7458576Y+2930888D01*
X-7448081Y+2923200D01*
X-7437586Y+2918282D01*
X-7427091Y+2915476D01*
X-7416596Y+2914503D01*
X-7416000Y+2914500D01*
X-7352500Y+2978000D02*
X-7352717Y+2972753D01*
X-7354482Y+2962258D01*
X-7358174Y+2951763D01*
X-7364202Y+2941268D01*
X-7373424Y+2930888D01*
X-7383919Y+2923200D01*
X-7394414Y+2918282D01*
X-7404909Y+2915476D01*
X-7415404Y+2914503D01*
X-7416000Y+2914500D01*
X-7416000Y+3041500D02*
X-7416000Y+2914500D01*
X-7479500Y+2978000D02*
X-7352500Y+2978000D01*
X-7352717Y+2983247D01*
X-7354482Y+2993742D01*
X-7358174Y+3004237D01*
X-7364202Y+3014732D01*
X-7373424Y+3025112D01*
X-7383919Y+3032800D01*
X-7394414Y+3037718D01*
X-7404909Y+3040524D01*
X-7415404Y+3041497D01*
X-7416000Y+3041500D01*
X-7479500Y+2978000D02*
X-7479283Y+2983247D01*
X-7477518Y+2993742D01*
X-7473826Y+3004237D01*
X-7467798Y+3014732D01*
X-7458576Y+3025112D01*
X-7448081Y+3032800D01*
X-7437586Y+3037718D01*
X-7427091Y+3040524D01*
X-7416596Y+3041497D01*
X-7416000Y+3041500D01*
X-7479500Y+2978000D02*
X-7479283Y+2972753D01*
X-7477518Y+2962258D01*
X-7473826Y+2951763D01*
X-7467798Y+2941268D01*
X-7458576Y+2930888D01*
X-7448081Y+2923200D01*
X-7437586Y+2918282D01*
X-7427091Y+2915476D01*
X-7416596Y+2914503D01*
X-7416000Y+2914500D01*
X-7352500Y+2978000D02*
X-7352717Y+2972753D01*
X-7354482Y+2962258D01*
X-7358174Y+2951763D01*
X-7364202Y+2941268D01*
X-7373424Y+2930888D01*
X-7383919Y+2923200D01*
X-7394414Y+2918282D01*
X-7404909Y+2915476D01*
X-7415404Y+2914503D01*
X-7416000Y+2914500D01*
X-7460901Y+3022901D02*
X-7371099Y+2933099D01*
X-7460901Y+2933099D02*
X-7371099Y+3022901D01*
X-7152500Y+2378000D02*
X-7152717Y+2383247D01*
X-7154482Y+2393742D01*
X-7158174Y+2404237D01*
X-7164202Y+2414732D01*
X-7173424Y+2425112D01*
X-7183919Y+2432800D01*
X-7194414Y+2437718D01*
X-7204909Y+2440524D01*
X-7215404Y+2441497D01*
X-7216000Y+2441500D01*
X-7279500Y+2378000D02*
X-7279283Y+2383247D01*
X-7277518Y+2393742D01*
X-7273826Y+2404237D01*
X-7267798Y+2414732D01*
X-7258576Y+2425112D01*
X-7248081Y+2432800D01*
X-7237586Y+2437718D01*
X-7227091Y+2440524D01*
X-7216596Y+2441497D01*
X-7216000Y+2441500D01*
X-7279500Y+2378000D02*
X-7279283Y+2372753D01*
X-7277518Y+2362258D01*
X-7273826Y+2351763D01*
X-7267798Y+2341268D01*
X-7258576Y+2330888D01*
X-7248081Y+2323200D01*
X-7237586Y+2318282D01*
X-7227091Y+2315476D01*
X-7216596Y+2314503D01*
X-7216000Y+2314500D01*
X-7152500Y+2378000D02*
X-7152717Y+2372753D01*
X-7154482Y+2362258D01*
X-7158174Y+2351763D01*
X-7164202Y+2341268D01*
X-7173424Y+2330888D01*
X-7183919Y+2323200D01*
X-7194414Y+2318282D01*
X-7204909Y+2315476D01*
X-7215404Y+2314503D01*
X-7216000Y+2314500D01*
X-7216000Y+2441500D02*
X-7216000Y+2314500D01*
X-7279500Y+2378000D02*
X-7152500Y+2378000D01*
X-7152717Y+2383247D01*
X-7154482Y+2393742D01*
X-7158174Y+2404237D01*
X-7164202Y+2414732D01*
X-7173424Y+2425112D01*
X-7183919Y+2432800D01*
X-7194414Y+2437718D01*
X-7204909Y+2440524D01*
X-7215404Y+2441497D01*
X-7216000Y+2441500D01*
X-7279500Y+2378000D02*
X-7279283Y+2383247D01*
X-7277518Y+2393742D01*
X-7273826Y+2404237D01*
X-7267798Y+2414732D01*
X-7258576Y+2425112D01*
X-7248081Y+2432800D01*
X-7237586Y+2437718D01*
X-7227091Y+2440524D01*
X-7216596Y+2441497D01*
X-7216000Y+2441500D01*
X-7279500Y+2378000D02*
X-7279283Y+2372753D01*
X-7277518Y+2362258D01*
X-7273826Y+2351763D01*
X-7267798Y+2341268D01*
X-7258576Y+2330888D01*
X-7248081Y+2323200D01*
X-7237586Y+2318282D01*
X-7227091Y+2315476D01*
X-7216596Y+2314503D01*
X-7216000Y+2314500D01*
X-7152500Y+2378000D02*
X-7152717Y+2372753D01*
X-7154482Y+2362258D01*
X-7158174Y+2351763D01*
X-7164202Y+2341268D01*
X-7173424Y+2330888D01*
X-7183919Y+2323200D01*
X-7194414Y+2318282D01*
X-7204909Y+2315476D01*
X-7215404Y+2314503D01*
X-7216000Y+2314500D01*
X-7260901Y+2422901D02*
X-7171099Y+2333099D01*
X-7260901Y+2333099D02*
X-7171099Y+2422901D01*
X-8572500Y+1778000D02*
X-8572717Y+1783247D01*
X-8574482Y+1793742D01*
X-8578174Y+1804237D01*
X-8584202Y+1814732D01*
X-8593424Y+1825112D01*
X-8603919Y+1832800D01*
X-8614414Y+1837718D01*
X-8624909Y+1840524D01*
X-8635404Y+1841497D01*
X-8636000Y+1841500D01*
X-8699500Y+1778000D02*
X-8699283Y+1783247D01*
X-8697518Y+1793742D01*
X-8693826Y+1804237D01*
X-8687798Y+1814732D01*
X-8678576Y+1825112D01*
X-8668081Y+1832800D01*
X-8657586Y+1837718D01*
X-8647091Y+1840524D01*
X-8636596Y+1841497D01*
X-8636000Y+1841500D01*
X-8699500Y+1778000D02*
X-8699283Y+1772753D01*
X-8697518Y+1762258D01*
X-8693826Y+1751763D01*
X-8687798Y+1741268D01*
X-8678576Y+1730888D01*
X-8668081Y+1723200D01*
X-8657586Y+1718282D01*
X-8647091Y+1715476D01*
X-8636596Y+1714503D01*
X-8636000Y+1714500D01*
X-8572500Y+1778000D02*
X-8572717Y+1772753D01*
X-8574482Y+1762258D01*
X-8578174Y+1751763D01*
X-8584202Y+1741268D01*
X-8593424Y+1730888D01*
X-8603919Y+1723200D01*
X-8614414Y+1718282D01*
X-8624909Y+1715476D01*
X-8635404Y+1714503D01*
X-8636000Y+1714500D01*
X-8636000Y+1841500D02*
X-8636000Y+1714500D01*
X-8699500Y+1778000D02*
X-8572500Y+1778000D01*
X-8572717Y+1783247D01*
X-8574482Y+1793742D01*
X-8578174Y+1804237D01*
X-8584202Y+1814732D01*
X-8593424Y+1825112D01*
X-8603919Y+1832800D01*
X-8614414Y+1837718D01*
X-8624909Y+1840524D01*
X-8635404Y+1841497D01*
X-8636000Y+1841500D01*
X-8699500Y+1778000D02*
X-8699283Y+1783247D01*
X-8697518Y+1793742D01*
X-8693826Y+1804237D01*
X-8687798Y+1814732D01*
X-8678576Y+1825112D01*
X-8668081Y+1832800D01*
X-8657586Y+1837718D01*
X-8647091Y+1840524D01*
X-8636596Y+1841497D01*
X-8636000Y+1841500D01*
X-8699500Y+1778000D02*
X-8699283Y+1772753D01*
X-8697518Y+1762258D01*
X-8693826Y+1751763D01*
X-8687798Y+1741268D01*
X-8678576Y+1730888D01*
X-8668081Y+1723200D01*
X-8657586Y+1718282D01*
X-8647091Y+1715476D01*
X-8636596Y+1714503D01*
X-8636000Y+1714500D01*
X-8572500Y+1778000D02*
X-8572717Y+1772753D01*
X-8574482Y+1762258D01*
X-8578174Y+1751763D01*
X-8584202Y+1741268D01*
X-8593424Y+1730888D01*
X-8603919Y+1723200D01*
X-8614414Y+1718282D01*
X-8624909Y+1715476D01*
X-8635404Y+1714503D01*
X-8636000Y+1714500D01*
X-8680901Y+1822901D02*
X-8591099Y+1733099D01*
X-8680901Y+1733099D02*
X-8591099Y+1822901D01*
X-8572500Y+2978000D02*
X-8572717Y+2983247D01*
X-8574482Y+2993742D01*
X-8578174Y+3004237D01*
X-8584202Y+3014732D01*
X-8593424Y+3025112D01*
X-8603919Y+3032800D01*
X-8614414Y+3037718D01*
X-8624909Y+3040524D01*
X-8635404Y+3041497D01*
X-8636000Y+3041500D01*
X-8699500Y+2978000D02*
X-8699283Y+2983247D01*
X-8697518Y+2993742D01*
X-8693826Y+3004237D01*
X-8687798Y+3014732D01*
X-8678576Y+3025112D01*
X-8668081Y+3032800D01*
X-8657586Y+3037718D01*
X-8647091Y+3040524D01*
X-8636596Y+3041497D01*
X-8636000Y+3041500D01*
X-8699500Y+2978000D02*
X-8699283Y+2972753D01*
X-8697518Y+2962258D01*
X-8693826Y+2951763D01*
X-8687798Y+2941268D01*
X-8678576Y+2930888D01*
X-8668081Y+2923200D01*
X-8657586Y+2918282D01*
X-8647091Y+2915476D01*
X-8636596Y+2914503D01*
X-8636000Y+2914500D01*
X-8572500Y+2978000D02*
X-8572717Y+2972753D01*
X-8574482Y+2962258D01*
X-8578174Y+2951763D01*
X-8584202Y+2941268D01*
X-8593424Y+2930888D01*
X-8603919Y+2923200D01*
X-8614414Y+2918282D01*
X-8624909Y+2915476D01*
X-8635404Y+2914503D01*
X-8636000Y+2914500D01*
X-8636000Y+3041500D02*
X-8636000Y+2914500D01*
X-8699500Y+2978000D02*
X-8572500Y+2978000D01*
X-8572717Y+2983247D01*
X-8574482Y+2993742D01*
X-8578174Y+3004237D01*
X-8584202Y+3014732D01*
X-8593424Y+3025112D01*
X-8603919Y+3032800D01*
X-8614414Y+3037718D01*
X-8624909Y+3040524D01*
X-8635404Y+3041497D01*
X-8636000Y+3041500D01*
X-8699500Y+2978000D02*
X-8699283Y+2983247D01*
X-8697518Y+2993742D01*
X-8693826Y+3004237D01*
X-8687798Y+3014732D01*
X-8678576Y+3025112D01*
X-8668081Y+3032800D01*
X-8657586Y+3037718D01*
X-8647091Y+3040524D01*
X-8636596Y+3041497D01*
X-8636000Y+3041500D01*
X-8699500Y+2978000D02*
X-8699283Y+2972753D01*
X-8697518Y+2962258D01*
X-8693826Y+2951763D01*
X-8687798Y+2941268D01*
X-8678576Y+2930888D01*
X-8668081Y+2923200D01*
X-8657586Y+2918282D01*
X-8647091Y+2915476D01*
X-8636596Y+2914503D01*
X-8636000Y+2914500D01*
X-8572500Y+2978000D02*
X-8572717Y+2972753D01*
X-8574482Y+2962258D01*
X-8578174Y+2951763D01*
X-8584202Y+2941268D01*
X-8593424Y+2930888D01*
X-8603919Y+2923200D01*
X-8614414Y+2918282D01*
X-8624909Y+2915476D01*
X-8635404Y+2914503D01*
X-8636000Y+2914500D01*
X-8680901Y+3022901D02*
X-8591099Y+2933099D01*
X-8680901Y+2933099D02*
X-8591099Y+3022901D01*
X-7352500Y+3556000D02*
X-7352717Y+3561247D01*
X-7354482Y+3571742D01*
X-7358174Y+3582237D01*
X-7364202Y+3592732D01*
X-7373424Y+3603112D01*
X-7383919Y+3610800D01*
X-7394414Y+3615718D01*
X-7404909Y+3618524D01*
X-7415404Y+3619497D01*
X-7416000Y+3619500D01*
X-7479500Y+3556000D02*
X-7479283Y+3561247D01*
X-7477518Y+3571742D01*
X-7473826Y+3582237D01*
X-7467798Y+3592732D01*
X-7458576Y+3603112D01*
X-7448081Y+3610800D01*
X-7437586Y+3615718D01*
X-7427091Y+3618524D01*
X-7416596Y+3619497D01*
X-7416000Y+3619500D01*
X-7479500Y+3556000D02*
X-7479283Y+3550753D01*
X-7477518Y+3540258D01*
X-7473826Y+3529763D01*
X-7467798Y+3519268D01*
X-7458576Y+3508888D01*
X-7448081Y+3501200D01*
X-7437586Y+3496282D01*
X-7427091Y+3493476D01*
X-7416596Y+3492503D01*
X-7416000Y+3492500D01*
X-7352500Y+3556000D02*
X-7352717Y+3550753D01*
X-7354482Y+3540258D01*
X-7358174Y+3529763D01*
X-7364202Y+3519268D01*
X-7373424Y+3508888D01*
X-7383919Y+3501200D01*
X-7394414Y+3496282D01*
X-7404909Y+3493476D01*
X-7415404Y+3492503D01*
X-7416000Y+3492500D01*
X-7416000Y+3619500D02*
X-7416000Y+3492500D01*
X-7479500Y+3556000D02*
X-7352500Y+3556000D01*
X-7352717Y+3561247D01*
X-7354482Y+3571742D01*
X-7358174Y+3582237D01*
X-7364202Y+3592732D01*
X-7373424Y+3603112D01*
X-7383919Y+3610800D01*
X-7394414Y+3615718D01*
X-7404909Y+3618524D01*
X-7415404Y+3619497D01*
X-7416000Y+3619500D01*
X-7479500Y+3556000D02*
X-7479283Y+3561247D01*
X-7477518Y+3571742D01*
X-7473826Y+3582237D01*
X-7467798Y+3592732D01*
X-7458576Y+3603112D01*
X-7448081Y+3610800D01*
X-7437586Y+3615718D01*
X-7427091Y+3618524D01*
X-7416596Y+3619497D01*
X-7416000Y+3619500D01*
X-7479500Y+3556000D02*
X-7479283Y+3550753D01*
X-7477518Y+3540258D01*
X-7473826Y+3529763D01*
X-7467798Y+3519268D01*
X-7458576Y+3508888D01*
X-7448081Y+3501200D01*
X-7437586Y+3496282D01*
X-7427091Y+3493476D01*
X-7416596Y+3492503D01*
X-7416000Y+3492500D01*
X-7352500Y+3556000D02*
X-7352717Y+3550753D01*
X-7354482Y+3540258D01*
X-7358174Y+3529763D01*
X-7364202Y+3519268D01*
X-7373424Y+3508888D01*
X-7383919Y+3501200D01*
X-7394414Y+3496282D01*
X-7404909Y+3493476D01*
X-7415404Y+3492503D01*
X-7416000Y+3492500D01*
X-7460901Y+3600901D02*
X-7371099Y+3511099D01*
X-7460901Y+3511099D02*
X-7371099Y+3600901D01*
X-7352500Y+4756000D02*
X-7352717Y+4761247D01*
X-7354482Y+4771742D01*
X-7358174Y+4782237D01*
X-7364202Y+4792732D01*
X-7373424Y+4803112D01*
X-7383919Y+4810800D01*
X-7394414Y+4815718D01*
X-7404909Y+4818524D01*
X-7415404Y+4819497D01*
X-7416000Y+4819500D01*
X-7479500Y+4756000D02*
X-7479283Y+4761247D01*
X-7477518Y+4771742D01*
X-7473826Y+4782237D01*
X-7467798Y+4792732D01*
X-7458576Y+4803112D01*
X-7448081Y+4810800D01*
X-7437586Y+4815718D01*
X-7427091Y+4818524D01*
X-7416596Y+4819497D01*
X-7416000Y+4819500D01*
X-7479500Y+4756000D02*
X-7479283Y+4750753D01*
X-7477518Y+4740258D01*
X-7473826Y+4729763D01*
X-7467798Y+4719268D01*
X-7458576Y+4708888D01*
X-7448081Y+4701200D01*
X-7437586Y+4696282D01*
X-7427091Y+4693476D01*
X-7416596Y+4692503D01*
X-7416000Y+4692500D01*
X-7352500Y+4756000D02*
X-7352717Y+4750753D01*
X-7354482Y+4740258D01*
X-7358174Y+4729763D01*
X-7364202Y+4719268D01*
X-7373424Y+4708888D01*
X-7383919Y+4701200D01*
X-7394414Y+4696282D01*
X-7404909Y+4693476D01*
X-7415404Y+4692503D01*
X-7416000Y+4692500D01*
X-7416000Y+4819500D02*
X-7416000Y+4692500D01*
X-7479500Y+4756000D02*
X-7352500Y+4756000D01*
X-7352717Y+4761247D01*
X-7354482Y+4771742D01*
X-7358174Y+4782237D01*
X-7364202Y+4792732D01*
X-7373424Y+4803112D01*
X-7383919Y+4810800D01*
X-7394414Y+4815718D01*
X-7404909Y+4818524D01*
X-7415404Y+4819497D01*
X-7416000Y+4819500D01*
X-7479500Y+4756000D02*
X-7479283Y+4761247D01*
X-7477518Y+4771742D01*
X-7473826Y+4782237D01*
X-7467798Y+4792732D01*
X-7458576Y+4803112D01*
X-7448081Y+4810800D01*
X-7437586Y+4815718D01*
X-7427091Y+4818524D01*
X-7416596Y+4819497D01*
X-7416000Y+4819500D01*
X-7479500Y+4756000D02*
X-7479283Y+4750753D01*
X-7477518Y+4740258D01*
X-7473826Y+4729763D01*
X-7467798Y+4719268D01*
X-7458576Y+4708888D01*
X-7448081Y+4701200D01*
X-7437586Y+4696282D01*
X-7427091Y+4693476D01*
X-7416596Y+4692503D01*
X-7416000Y+4692500D01*
X-7352500Y+4756000D02*
X-7352717Y+4750753D01*
X-7354482Y+4740258D01*
X-7358174Y+4729763D01*
X-7364202Y+4719268D01*
X-7373424Y+4708888D01*
X-7383919Y+4701200D01*
X-7394414Y+4696282D01*
X-7404909Y+4693476D01*
X-7415404Y+4692503D01*
X-7416000Y+4692500D01*
X-7460901Y+4800901D02*
X-7371099Y+4711099D01*
X-7460901Y+4711099D02*
X-7371099Y+4800901D01*
X-7152500Y+4156000D02*
X-7152717Y+4161247D01*
X-7154482Y+4171742D01*
X-7158174Y+4182237D01*
X-7164202Y+4192732D01*
X-7173424Y+4203112D01*
X-7183919Y+4210800D01*
X-7194414Y+4215718D01*
X-7204909Y+4218524D01*
X-7215404Y+4219497D01*
X-7216000Y+4219500D01*
X-7279500Y+4156000D02*
X-7279283Y+4161247D01*
X-7277518Y+4171742D01*
X-7273826Y+4182237D01*
X-7267798Y+4192732D01*
X-7258576Y+4203112D01*
X-7248081Y+4210800D01*
X-7237586Y+4215718D01*
X-7227091Y+4218524D01*
X-7216596Y+4219497D01*
X-7216000Y+4219500D01*
X-7279500Y+4156000D02*
X-7279283Y+4150753D01*
X-7277518Y+4140258D01*
X-7273826Y+4129763D01*
X-7267798Y+4119268D01*
X-7258576Y+4108888D01*
X-7248081Y+4101200D01*
X-7237586Y+4096282D01*
X-7227091Y+4093476D01*
X-7216596Y+4092503D01*
X-7216000Y+4092500D01*
X-7152500Y+4156000D02*
X-7152717Y+4150753D01*
X-7154482Y+4140258D01*
X-7158174Y+4129763D01*
X-7164202Y+4119268D01*
X-7173424Y+4108888D01*
X-7183919Y+4101200D01*
X-7194414Y+4096282D01*
X-7204909Y+4093476D01*
X-7215404Y+4092503D01*
X-7216000Y+4092500D01*
X-7216000Y+4219500D02*
X-7216000Y+4092500D01*
X-7279500Y+4156000D02*
X-7152500Y+4156000D01*
X-7152717Y+4161247D01*
X-7154482Y+4171742D01*
X-7158174Y+4182237D01*
X-7164202Y+4192732D01*
X-7173424Y+4203112D01*
X-7183919Y+4210800D01*
X-7194414Y+4215718D01*
X-7204909Y+4218524D01*
X-7215404Y+4219497D01*
X-7216000Y+4219500D01*
X-7279500Y+4156000D02*
X-7279283Y+4161247D01*
X-7277518Y+4171742D01*
X-7273826Y+4182237D01*
X-7267798Y+4192732D01*
X-7258576Y+4203112D01*
X-7248081Y+4210800D01*
X-7237586Y+4215718D01*
X-7227091Y+4218524D01*
X-7216596Y+4219497D01*
X-7216000Y+4219500D01*
X-7279500Y+4156000D02*
X-7279283Y+4150753D01*
X-7277518Y+4140258D01*
X-7273826Y+4129763D01*
X-7267798Y+4119268D01*
X-7258576Y+4108888D01*
X-7248081Y+4101200D01*
X-7237586Y+4096282D01*
X-7227091Y+4093476D01*
X-7216596Y+4092503D01*
X-7216000Y+4092500D01*
X-7152500Y+4156000D02*
X-7152717Y+4150753D01*
X-7154482Y+4140258D01*
X-7158174Y+4129763D01*
X-7164202Y+4119268D01*
X-7173424Y+4108888D01*
X-7183919Y+4101200D01*
X-7194414Y+4096282D01*
X-7204909Y+4093476D01*
X-7215404Y+4092503D01*
X-7216000Y+4092500D01*
X-7260901Y+4200901D02*
X-7171099Y+4111099D01*
X-7260901Y+4111099D02*
X-7171099Y+4200901D01*
X-8572500Y+3556000D02*
X-8572717Y+3561247D01*
X-8574482Y+3571742D01*
X-8578174Y+3582237D01*
X-8584202Y+3592732D01*
X-8593424Y+3603112D01*
X-8603919Y+3610800D01*
X-8614414Y+3615718D01*
X-8624909Y+3618524D01*
X-8635404Y+3619497D01*
X-8636000Y+3619500D01*
X-8699500Y+3556000D02*
X-8699283Y+3561247D01*
X-8697518Y+3571742D01*
X-8693826Y+3582237D01*
X-8687798Y+3592732D01*
X-8678576Y+3603112D01*
X-8668081Y+3610800D01*
X-8657586Y+3615718D01*
X-8647091Y+3618524D01*
X-8636596Y+3619497D01*
X-8636000Y+3619500D01*
X-8699500Y+3556000D02*
X-8699283Y+3550753D01*
X-8697518Y+3540258D01*
X-8693826Y+3529763D01*
X-8687798Y+3519268D01*
X-8678576Y+3508888D01*
X-8668081Y+3501200D01*
X-8657586Y+3496282D01*
X-8647091Y+3493476D01*
X-8636596Y+3492503D01*
X-8636000Y+3492500D01*
X-8572500Y+3556000D02*
X-8572717Y+3550753D01*
X-8574482Y+3540258D01*
X-8578174Y+3529763D01*
X-8584202Y+3519268D01*
X-8593424Y+3508888D01*
X-8603919Y+3501200D01*
X-8614414Y+3496282D01*
X-8624909Y+3493476D01*
X-8635404Y+3492503D01*
X-8636000Y+3492500D01*
X-8636000Y+3619500D02*
X-8636000Y+3492500D01*
X-8699500Y+3556000D02*
X-8572500Y+3556000D01*
X-8572717Y+3561247D01*
X-8574482Y+3571742D01*
X-8578174Y+3582237D01*
X-8584202Y+3592732D01*
X-8593424Y+3603112D01*
X-8603919Y+3610800D01*
X-8614414Y+3615718D01*
X-8624909Y+3618524D01*
X-8635404Y+3619497D01*
X-8636000Y+3619500D01*
X-8699500Y+3556000D02*
X-8699283Y+3561247D01*
X-8697518Y+3571742D01*
X-8693826Y+3582237D01*
X-8687798Y+3592732D01*
X-8678576Y+3603112D01*
X-8668081Y+3610800D01*
X-8657586Y+3615718D01*
X-8647091Y+3618524D01*
X-8636596Y+3619497D01*
X-8636000Y+3619500D01*
X-8699500Y+3556000D02*
X-8699283Y+3550753D01*
X-8697518Y+3540258D01*
X-8693826Y+3529763D01*
X-8687798Y+3519268D01*
X-8678576Y+3508888D01*
X-8668081Y+3501200D01*
X-8657586Y+3496282D01*
X-8647091Y+3493476D01*
X-8636596Y+3492503D01*
X-8636000Y+3492500D01*
X-8572500Y+3556000D02*
X-8572717Y+3550753D01*
X-8574482Y+3540258D01*
X-8578174Y+3529763D01*
X-8584202Y+3519268D01*
X-8593424Y+3508888D01*
X-8603919Y+3501200D01*
X-8614414Y+3496282D01*
X-8624909Y+3493476D01*
X-8635404Y+3492503D01*
X-8636000Y+3492500D01*
X-8680901Y+3600901D02*
X-8591099Y+3511099D01*
X-8680901Y+3511099D02*
X-8591099Y+3600901D01*
X-8572500Y+4756000D02*
X-8572717Y+4761247D01*
X-8574482Y+4771742D01*
X-8578174Y+4782237D01*
X-8584202Y+4792732D01*
X-8593424Y+4803112D01*
X-8603919Y+4810800D01*
X-8614414Y+4815718D01*
X-8624909Y+4818524D01*
X-8635404Y+4819497D01*
X-8636000Y+4819500D01*
X-8699500Y+4756000D02*
X-8699283Y+4761247D01*
X-8697518Y+4771742D01*
X-8693826Y+4782237D01*
X-8687798Y+4792732D01*
X-8678576Y+4803112D01*
X-8668081Y+4810800D01*
X-8657586Y+4815718D01*
X-8647091Y+4818524D01*
X-8636596Y+4819497D01*
X-8636000Y+4819500D01*
X-8699500Y+4756000D02*
X-8699283Y+4750753D01*
X-8697518Y+4740258D01*
X-8693826Y+4729763D01*
X-8687798Y+4719268D01*
X-8678576Y+4708888D01*
X-8668081Y+4701200D01*
X-8657586Y+4696282D01*
X-8647091Y+4693476D01*
X-8636596Y+4692503D01*
X-8636000Y+4692500D01*
X-8572500Y+4756000D02*
X-8572717Y+4750753D01*
X-8574482Y+4740258D01*
X-8578174Y+4729763D01*
X-8584202Y+4719268D01*
X-8593424Y+4708888D01*
X-8603919Y+4701200D01*
X-8614414Y+4696282D01*
X-8624909Y+4693476D01*
X-8635404Y+4692503D01*
X-8636000Y+4692500D01*
X-8636000Y+4819500D02*
X-8636000Y+4692500D01*
X-8699500Y+4756000D02*
X-8572500Y+4756000D01*
X-8572717Y+4761247D01*
X-8574482Y+4771742D01*
X-8578174Y+4782237D01*
X-8584202Y+4792732D01*
X-8593424Y+4803112D01*
X-8603919Y+4810800D01*
X-8614414Y+4815718D01*
X-8624909Y+4818524D01*
X-8635404Y+4819497D01*
X-8636000Y+4819500D01*
X-8699500Y+4756000D02*
X-8699283Y+4761247D01*
X-8697518Y+4771742D01*
X-8693826Y+4782237D01*
X-8687798Y+4792732D01*
X-8678576Y+4803112D01*
X-8668081Y+4810800D01*
X-8657586Y+4815718D01*
X-8647091Y+4818524D01*
X-8636596Y+4819497D01*
X-8636000Y+4819500D01*
X-8699500Y+4756000D02*
X-8699283Y+4750753D01*
X-8697518Y+4740258D01*
X-8693826Y+4729763D01*
X-8687798Y+4719268D01*
X-8678576Y+4708888D01*
X-8668081Y+4701200D01*
X-8657586Y+4696282D01*
X-8647091Y+4693476D01*
X-8636596Y+4692503D01*
X-8636000Y+4692500D01*
X-8572500Y+4756000D02*
X-8572717Y+4750753D01*
X-8574482Y+4740258D01*
X-8578174Y+4729763D01*
X-8584202Y+4719268D01*
X-8593424Y+4708888D01*
X-8603919Y+4701200D01*
X-8614414Y+4696282D01*
X-8624909Y+4693476D01*
X-8635404Y+4692503D01*
X-8636000Y+4692500D01*
X-8680901Y+4800901D02*
X-8591099Y+4711099D01*
X-8680901Y+4711099D02*
X-8591099Y+4800901D01*
X-7352500Y+5334000D02*
X-7352717Y+5339247D01*
X-7354482Y+5349742D01*
X-7358174Y+5360237D01*
X-7364202Y+5370732D01*
X-7373424Y+5381112D01*
X-7383919Y+5388800D01*
X-7394414Y+5393718D01*
X-7404909Y+5396524D01*
X-7415404Y+5397497D01*
X-7416000Y+5397500D01*
X-7479500Y+5334000D02*
X-7479283Y+5339247D01*
X-7477518Y+5349742D01*
X-7473826Y+5360237D01*
X-7467798Y+5370732D01*
X-7458576Y+5381112D01*
X-7448081Y+5388800D01*
X-7437586Y+5393718D01*
X-7427091Y+5396524D01*
X-7416596Y+5397497D01*
X-7416000Y+5397500D01*
X-7479500Y+5334000D02*
X-7479283Y+5328753D01*
X-7477518Y+5318258D01*
X-7473826Y+5307763D01*
X-7467798Y+5297268D01*
X-7458576Y+5286888D01*
X-7448081Y+5279200D01*
X-7437586Y+5274282D01*
X-7427091Y+5271476D01*
X-7416596Y+5270503D01*
X-7416000Y+5270500D01*
X-7352500Y+5334000D02*
X-7352717Y+5328753D01*
X-7354482Y+5318258D01*
X-7358174Y+5307763D01*
X-7364202Y+5297268D01*
X-7373424Y+5286888D01*
X-7383919Y+5279200D01*
X-7394414Y+5274282D01*
X-7404909Y+5271476D01*
X-7415404Y+5270503D01*
X-7416000Y+5270500D01*
X-7416000Y+5397500D02*
X-7416000Y+5270500D01*
X-7479500Y+5334000D02*
X-7352500Y+5334000D01*
X-7352717Y+5339247D01*
X-7354482Y+5349742D01*
X-7358174Y+5360237D01*
X-7364202Y+5370732D01*
X-7373424Y+5381112D01*
X-7383919Y+5388800D01*
X-7394414Y+5393718D01*
X-7404909Y+5396524D01*
X-7415404Y+5397497D01*
X-7416000Y+5397500D01*
X-7479500Y+5334000D02*
X-7479283Y+5339247D01*
X-7477518Y+5349742D01*
X-7473826Y+5360237D01*
X-7467798Y+5370732D01*
X-7458576Y+5381112D01*
X-7448081Y+5388800D01*
X-7437586Y+5393718D01*
X-7427091Y+5396524D01*
X-7416596Y+5397497D01*
X-7416000Y+5397500D01*
X-7479500Y+5334000D02*
X-7479283Y+5328753D01*
X-7477518Y+5318258D01*
X-7473826Y+5307763D01*
X-7467798Y+5297268D01*
X-7458576Y+5286888D01*
X-7448081Y+5279200D01*
X-7437586Y+5274282D01*
X-7427091Y+5271476D01*
X-7416596Y+5270503D01*
X-7416000Y+5270500D01*
X-7352500Y+5334000D02*
X-7352717Y+5328753D01*
X-7354482Y+5318258D01*
X-7358174Y+5307763D01*
X-7364202Y+5297268D01*
X-7373424Y+5286888D01*
X-7383919Y+5279200D01*
X-7394414Y+5274282D01*
X-7404909Y+5271476D01*
X-7415404Y+5270503D01*
X-7416000Y+5270500D01*
X-7460901Y+5378901D02*
X-7371099Y+5289099D01*
X-7460901Y+5289099D02*
X-7371099Y+5378901D01*
X-7352500Y+6534000D02*
X-7352717Y+6539247D01*
X-7354482Y+6549742D01*
X-7358174Y+6560237D01*
X-7364202Y+6570732D01*
X-7373424Y+6581112D01*
X-7383919Y+6588800D01*
X-7394414Y+6593718D01*
X-7404909Y+6596524D01*
X-7415404Y+6597497D01*
X-7416000Y+6597500D01*
X-7479500Y+6534000D02*
X-7479283Y+6539247D01*
X-7477518Y+6549742D01*
X-7473826Y+6560237D01*
X-7467798Y+6570732D01*
X-7458576Y+6581112D01*
X-7448081Y+6588800D01*
X-7437586Y+6593718D01*
X-7427091Y+6596524D01*
X-7416596Y+6597497D01*
X-7416000Y+6597500D01*
X-7479500Y+6534000D02*
X-7479283Y+6528753D01*
X-7477518Y+6518258D01*
X-7473826Y+6507763D01*
X-7467798Y+6497268D01*
X-7458576Y+6486888D01*
X-7448081Y+6479200D01*
X-7437586Y+6474282D01*
X-7427091Y+6471476D01*
X-7416596Y+6470503D01*
X-7416000Y+6470500D01*
X-7352500Y+6534000D02*
X-7352717Y+6528753D01*
X-7354482Y+6518258D01*
X-7358174Y+6507763D01*
X-7364202Y+6497268D01*
X-7373424Y+6486888D01*
X-7383919Y+6479200D01*
X-7394414Y+6474282D01*
X-7404909Y+6471476D01*
X-7415404Y+6470503D01*
X-7416000Y+6470500D01*
X-7416000Y+6597500D02*
X-7416000Y+6470500D01*
X-7479500Y+6534000D02*
X-7352500Y+6534000D01*
X-7352717Y+6539247D01*
X-7354482Y+6549742D01*
X-7358174Y+6560237D01*
X-7364202Y+6570732D01*
X-7373424Y+6581112D01*
X-7383919Y+6588800D01*
X-7394414Y+6593718D01*
X-7404909Y+6596524D01*
X-7415404Y+6597497D01*
X-7416000Y+6597500D01*
X-7479500Y+6534000D02*
X-7479283Y+6539247D01*
X-7477518Y+6549742D01*
X-7473826Y+6560237D01*
X-7467798Y+6570732D01*
X-7458576Y+6581112D01*
X-7448081Y+6588800D01*
X-7437586Y+6593718D01*
X-7427091Y+6596524D01*
X-7416596Y+6597497D01*
X-7416000Y+6597500D01*
X-7479500Y+6534000D02*
X-7479283Y+6528753D01*
X-7477518Y+6518258D01*
X-7473826Y+6507763D01*
X-7467798Y+6497268D01*
X-7458576Y+6486888D01*
X-7448081Y+6479200D01*
X-7437586Y+6474282D01*
X-7427091Y+6471476D01*
X-7416596Y+6470503D01*
X-7416000Y+6470500D01*
X-7352500Y+6534000D02*
X-7352717Y+6528753D01*
X-7354482Y+6518258D01*
X-7358174Y+6507763D01*
X-7364202Y+6497268D01*
X-7373424Y+6486888D01*
X-7383919Y+6479200D01*
X-7394414Y+6474282D01*
X-7404909Y+6471476D01*
X-7415404Y+6470503D01*
X-7416000Y+6470500D01*
X-7460901Y+6578901D02*
X-7371099Y+6489099D01*
X-7460901Y+6489099D02*
X-7371099Y+6578901D01*
X-7152500Y+5934000D02*
X-7152717Y+5939247D01*
X-7154482Y+5949742D01*
X-7158174Y+5960237D01*
X-7164202Y+5970732D01*
X-7173424Y+5981112D01*
X-7183919Y+5988800D01*
X-7194414Y+5993718D01*
X-7204909Y+5996524D01*
X-7215404Y+5997497D01*
X-7216000Y+5997500D01*
X-7279500Y+5934000D02*
X-7279283Y+5939247D01*
X-7277518Y+5949742D01*
X-7273826Y+5960237D01*
X-7267798Y+5970732D01*
X-7258576Y+5981112D01*
X-7248081Y+5988800D01*
X-7237586Y+5993718D01*
X-7227091Y+5996524D01*
X-7216596Y+5997497D01*
X-7216000Y+5997500D01*
X-7279500Y+5934000D02*
X-7279283Y+5928753D01*
X-7277518Y+5918258D01*
X-7273826Y+5907763D01*
X-7267798Y+5897268D01*
X-7258576Y+5886888D01*
X-7248081Y+5879200D01*
X-7237586Y+5874282D01*
X-7227091Y+5871476D01*
X-7216596Y+5870503D01*
X-7216000Y+5870500D01*
X-7152500Y+5934000D02*
X-7152717Y+5928753D01*
X-7154482Y+5918258D01*
X-7158174Y+5907763D01*
X-7164202Y+5897268D01*
X-7173424Y+5886888D01*
X-7183919Y+5879200D01*
X-7194414Y+5874282D01*
X-7204909Y+5871476D01*
X-7215404Y+5870503D01*
X-7216000Y+5870500D01*
X-7216000Y+5997500D02*
X-7216000Y+5870500D01*
X-7279500Y+5934000D02*
X-7152500Y+5934000D01*
X-7152717Y+5939247D01*
X-7154482Y+5949742D01*
X-7158174Y+5960237D01*
X-7164202Y+5970732D01*
X-7173424Y+5981112D01*
X-7183919Y+5988800D01*
X-7194414Y+5993718D01*
X-7204909Y+5996524D01*
X-7215404Y+5997497D01*
X-7216000Y+5997500D01*
X-7279500Y+5934000D02*
X-7279283Y+5939247D01*
X-7277518Y+5949742D01*
X-7273826Y+5960237D01*
X-7267798Y+5970732D01*
X-7258576Y+5981112D01*
X-7248081Y+5988800D01*
X-7237586Y+5993718D01*
X-7227091Y+5996524D01*
X-7216596Y+5997497D01*
X-7216000Y+5997500D01*
X-7279500Y+5934000D02*
X-7279283Y+5928753D01*
X-7277518Y+5918258D01*
X-7273826Y+5907763D01*
X-7267798Y+5897268D01*
X-7258576Y+5886888D01*
X-7248081Y+5879200D01*
X-7237586Y+5874282D01*
X-7227091Y+5871476D01*
X-7216596Y+5870503D01*
X-7216000Y+5870500D01*
X-7152500Y+5934000D02*
X-7152717Y+5928753D01*
X-7154482Y+5918258D01*
X-7158174Y+5907763D01*
X-7164202Y+5897268D01*
X-7173424Y+5886888D01*
X-7183919Y+5879200D01*
X-7194414Y+5874282D01*
X-7204909Y+5871476D01*
X-7215404Y+5870503D01*
X-7216000Y+5870500D01*
X-7260901Y+5978901D02*
X-7171099Y+5889099D01*
X-7260901Y+5889099D02*
X-7171099Y+5978901D01*
X-8572500Y+5334000D02*
X-8572717Y+5339247D01*
X-8574482Y+5349742D01*
X-8578174Y+5360237D01*
X-8584202Y+5370732D01*
X-8593424Y+5381112D01*
X-8603919Y+5388800D01*
X-8614414Y+5393718D01*
X-8624909Y+5396524D01*
X-8635404Y+5397497D01*
X-8636000Y+5397500D01*
X-8699500Y+5334000D02*
X-8699283Y+5339247D01*
X-8697518Y+5349742D01*
X-8693826Y+5360237D01*
X-8687798Y+5370732D01*
X-8678576Y+5381112D01*
X-8668081Y+5388800D01*
X-8657586Y+5393718D01*
X-8647091Y+5396524D01*
X-8636596Y+5397497D01*
X-8636000Y+5397500D01*
X-8699500Y+5334000D02*
X-8699283Y+5328753D01*
X-8697518Y+5318258D01*
X-8693826Y+5307763D01*
X-8687798Y+5297268D01*
X-8678576Y+5286888D01*
X-8668081Y+5279200D01*
X-8657586Y+5274282D01*
X-8647091Y+5271476D01*
X-8636596Y+5270503D01*
X-8636000Y+5270500D01*
X-8572500Y+5334000D02*
X-8572717Y+5328753D01*
X-8574482Y+5318258D01*
X-8578174Y+5307763D01*
X-8584202Y+5297268D01*
X-8593424Y+5286888D01*
X-8603919Y+5279200D01*
X-8614414Y+5274282D01*
X-8624909Y+5271476D01*
X-8635404Y+5270503D01*
X-8636000Y+5270500D01*
X-8636000Y+5397500D02*
X-8636000Y+5270500D01*
X-8699500Y+5334000D02*
X-8572500Y+5334000D01*
X-8572717Y+5339247D01*
X-8574482Y+5349742D01*
X-8578174Y+5360237D01*
X-8584202Y+5370732D01*
X-8593424Y+5381112D01*
X-8603919Y+5388800D01*
X-8614414Y+5393718D01*
X-8624909Y+5396524D01*
X-8635404Y+5397497D01*
X-8636000Y+5397500D01*
X-8699500Y+5334000D02*
X-8699283Y+5339247D01*
X-8697518Y+5349742D01*
X-8693826Y+5360237D01*
X-8687798Y+5370732D01*
X-8678576Y+5381112D01*
X-8668081Y+5388800D01*
X-8657586Y+5393718D01*
X-8647091Y+5396524D01*
X-8636596Y+5397497D01*
X-8636000Y+5397500D01*
X-8699500Y+5334000D02*
X-8699283Y+5328753D01*
X-8697518Y+5318258D01*
X-8693826Y+5307763D01*
X-8687798Y+5297268D01*
X-8678576Y+5286888D01*
X-8668081Y+5279200D01*
X-8657586Y+5274282D01*
X-8647091Y+5271476D01*
X-8636596Y+5270503D01*
X-8636000Y+5270500D01*
X-8572500Y+5334000D02*
X-8572717Y+5328753D01*
X-8574482Y+5318258D01*
X-8578174Y+5307763D01*
X-8584202Y+5297268D01*
X-8593424Y+5286888D01*
X-8603919Y+5279200D01*
X-8614414Y+5274282D01*
X-8624909Y+5271476D01*
X-8635404Y+5270503D01*
X-8636000Y+5270500D01*
X-8680901Y+5378901D02*
X-8591099Y+5289099D01*
X-8680901Y+5289099D02*
X-8591099Y+5378901D01*
X-8572500Y+6534000D02*
X-8572717Y+6539247D01*
X-8574482Y+6549742D01*
X-8578174Y+6560237D01*
X-8584202Y+6570732D01*
X-8593424Y+6581112D01*
X-8603919Y+6588800D01*
X-8614414Y+6593718D01*
X-8624909Y+6596524D01*
X-8635404Y+6597497D01*
X-8636000Y+6597500D01*
X-8699500Y+6534000D02*
X-8699283Y+6539247D01*
X-8697518Y+6549742D01*
X-8693826Y+6560237D01*
X-8687798Y+6570732D01*
X-8678576Y+6581112D01*
X-8668081Y+6588800D01*
X-8657586Y+6593718D01*
X-8647091Y+6596524D01*
X-8636596Y+6597497D01*
X-8636000Y+6597500D01*
X-8699500Y+6534000D02*
X-8699283Y+6528753D01*
X-8697518Y+6518258D01*
X-8693826Y+6507763D01*
X-8687798Y+6497268D01*
X-8678576Y+6486888D01*
X-8668081Y+6479200D01*
X-8657586Y+6474282D01*
X-8647091Y+6471476D01*
X-8636596Y+6470503D01*
X-8636000Y+6470500D01*
X-8572500Y+6534000D02*
X-8572717Y+6528753D01*
X-8574482Y+6518258D01*
X-8578174Y+6507763D01*
X-8584202Y+6497268D01*
X-8593424Y+6486888D01*
X-8603919Y+6479200D01*
X-8614414Y+6474282D01*
X-8624909Y+6471476D01*
X-8635404Y+6470503D01*
X-8636000Y+6470500D01*
X-8636000Y+6597500D02*
X-8636000Y+6470500D01*
X-8699500Y+6534000D02*
X-8572500Y+6534000D01*
X-8572717Y+6539247D01*
X-8574482Y+6549742D01*
X-8578174Y+6560237D01*
X-8584202Y+6570732D01*
X-8593424Y+6581112D01*
X-8603919Y+6588800D01*
X-8614414Y+6593718D01*
X-8624909Y+6596524D01*
X-8635404Y+6597497D01*
X-8636000Y+6597500D01*
X-8699500Y+6534000D02*
X-8699283Y+6539247D01*
X-8697518Y+6549742D01*
X-8693826Y+6560237D01*
X-8687798Y+6570732D01*
X-8678576Y+6581112D01*
X-8668081Y+6588800D01*
X-8657586Y+6593718D01*
X-8647091Y+6596524D01*
X-8636596Y+6597497D01*
X-8636000Y+6597500D01*
X-8699500Y+6534000D02*
X-8699283Y+6528753D01*
X-8697518Y+6518258D01*
X-8693826Y+6507763D01*
X-8687798Y+6497268D01*
X-8678576Y+6486888D01*
X-8668081Y+6479200D01*
X-8657586Y+6474282D01*
X-8647091Y+6471476D01*
X-8636596Y+6470503D01*
X-8636000Y+6470500D01*
X-8572500Y+6534000D02*
X-8572717Y+6528753D01*
X-8574482Y+6518258D01*
X-8578174Y+6507763D01*
X-8584202Y+6497268D01*
X-8593424Y+6486888D01*
X-8603919Y+6479200D01*
X-8614414Y+6474282D01*
X-8624909Y+6471476D01*
X-8635404Y+6470503D01*
X-8636000Y+6470500D01*
X-8680901Y+6578901D02*
X-8591099Y+6489099D01*
X-8680901Y+6489099D02*
X-8591099Y+6578901D01*
X-4870901Y+3600901D02*
X-4781099Y+3511099D01*
X-4870901Y+3511099D02*
X-4781099Y+3600901D01*
X-4826000Y+3873500D02*
X-4826000Y+3746500D01*
X-4889500Y+3810000D02*
X-4762500Y+3810000D01*
X-4870901Y+3854901D02*
X-4781099Y+3765099D01*
X-4870901Y+3765099D02*
X-4781099Y+3854901D01*
X-4826000Y+4127500D02*
X-4826000Y+4000500D01*
X-4889500Y+4064000D02*
X-4762500Y+4064000D01*
X-4870901Y+4108901D02*
X-4781099Y+4019099D01*
X-4870901Y+4019099D02*
X-4781099Y+4108901D01*
X-4826000Y+4381500D02*
X-4826000Y+4254500D01*
X-4889500Y+4318000D02*
X-4762500Y+4318000D01*
X-4870901Y+4362901D02*
X-4781099Y+4273099D01*
X-4870901Y+4273099D02*
X-4781099Y+4362901D01*
X-4826000Y+4635500D02*
X-4826000Y+4508500D01*
X-4889500Y+4572000D02*
X-4762500Y+4572000D01*
X-4870901Y+4616901D02*
X-4781099Y+4527099D01*
X-4870901Y+4527099D02*
X-4781099Y+4616901D01*
X-4826000Y+4889500D02*
X-4826000Y+4762500D01*
X-4889500Y+4826000D02*
X-4762500Y+4826000D01*
X-4870901Y+4870901D02*
X-4781099Y+4781099D01*
X-4870901Y+4781099D02*
X-4781099Y+4870901D01*
X-4826000Y+5143500D02*
X-4826000Y+5016500D01*
X-4889500Y+5080000D02*
X-4762500Y+5080000D01*
X-4870901Y+5124901D02*
X-4781099Y+5035099D01*
X-4870901Y+5035099D02*
X-4781099Y+5124901D01*
X-4826000Y+5397500D02*
X-4826000Y+5270500D01*
X-4889500Y+5334000D02*
X-4762500Y+5334000D01*
X-4870901Y+5378901D02*
X-4781099Y+5289099D01*
X-4870901Y+5289099D02*
X-4781099Y+5378901D01*
X-4826000Y+5651500D02*
X-4826000Y+5524500D01*
X-4889500Y+5588000D02*
X-4762500Y+5588000D01*
X-4870901Y+5632901D02*
X-4781099Y+5543099D01*
X-4870901Y+5543099D02*
X-4781099Y+5632901D01*
X-5588000Y+5651500D02*
X-5588000Y+5524500D01*
X-5651500Y+5588000D02*
X-5524500Y+5588000D01*
X-5632901Y+5632901D02*
X-5543099Y+5543099D01*
X-5632901Y+5543099D02*
X-5543099Y+5632901D01*
X-5588000Y+5397500D02*
X-5588000Y+5270500D01*
X-5651500Y+5334000D02*
X-5524500Y+5334000D01*
X-5632901Y+5378901D02*
X-5543099Y+5289099D01*
X-5632901Y+5289099D02*
X-5543099Y+5378901D01*
X-5588000Y+5143500D02*
X-5588000Y+5016500D01*
X-5651500Y+5080000D02*
X-5524500Y+5080000D01*
X-5632901Y+5124901D02*
X-5543099Y+5035099D01*
X-5632901Y+5035099D02*
X-5543099Y+5124901D01*
X-5588000Y+4889500D02*
X-5588000Y+4762500D01*
X-5651500Y+4826000D02*
X-5524500Y+4826000D01*
X-5632901Y+4870901D02*
X-5543099Y+4781099D01*
X-5632901Y+4781099D02*
X-5543099Y+4870901D01*
X-5588000Y+4635500D02*
X-5588000Y+4508500D01*
X-5651500Y+4572000D02*
X-5524500Y+4572000D01*
X-5632901Y+4616901D02*
X-5543099Y+4527099D01*
X-5632901Y+4527099D02*
X-5543099Y+4616901D01*
X-5588000Y+4381500D02*
X-5588000Y+4254500D01*
X-5651500Y+4318000D02*
X-5524500Y+4318000D01*
X-5632901Y+4362901D02*
X-5543099Y+4273099D01*
X-5632901Y+4273099D02*
X-5543099Y+4362901D01*
X-5588000Y+4127500D02*
X-5588000Y+4000500D01*
X-5651500Y+4064000D02*
X-5524500Y+4064000D01*
X-5632901Y+4108901D02*
X-5543099Y+4019099D01*
X-5632901Y+4019099D02*
X-5543099Y+4108901D01*
X-5588000Y+3873500D02*
X-5588000Y+3746500D01*
X-5651500Y+3810000D02*
X-5524500Y+3810000D01*
X-5632901Y+3854901D02*
X-5543099Y+3765099D01*
X-5632901Y+3765099D02*
X-5543099Y+3854901D01*
X-5588000Y+3619500D02*
X-5588000Y+3492500D01*
X-5651500Y+3556000D02*
X-5524500Y+3556000D01*
X-5632901Y+3600901D02*
X-5543099Y+3511099D01*
X-5632901Y+3511099D02*
X-5543099Y+3600901D01*
X-5864860Y+7493000D02*
X-5865077Y+7498247D01*
X-5866842Y+7508742D01*
X-5870534Y+7519237D01*
X-5876562Y+7529732D01*
X-5885784Y+7540112D01*
X-5896279Y+7547800D01*
X-5906774Y+7552718D01*
X-5917269Y+7555524D01*
X-5927764Y+7556497D01*
X-5928360Y+7556500D01*
X-5991860Y+7493000D02*
X-5991643Y+7498247D01*
X-5989878Y+7508742D01*
X-5986186Y+7519237D01*
X-5980158Y+7529732D01*
X-5970936Y+7540112D01*
X-5960441Y+7547800D01*
X-5949946Y+7552718D01*
X-5939451Y+7555524D01*
X-5928956Y+7556497D01*
X-5928360Y+7556500D01*
X-5991860Y+7493000D02*
X-5991643Y+7487753D01*
X-5989878Y+7477258D01*
X-5986186Y+7466763D01*
X-5980158Y+7456268D01*
X-5970936Y+7445888D01*
X-5960441Y+7438200D01*
X-5949946Y+7433282D01*
X-5939451Y+7430476D01*
X-5928956Y+7429503D01*
X-5928360Y+7429500D01*
X-5864860Y+7493000D02*
X-5865077Y+7487753D01*
X-5866842Y+7477258D01*
X-5870534Y+7466763D01*
X-5876562Y+7456268D01*
X-5885784Y+7445888D01*
X-5896279Y+7438200D01*
X-5906774Y+7433282D01*
X-5917269Y+7430476D01*
X-5927764Y+7429503D01*
X-5928360Y+7429500D01*
X-5928360Y+7556500D02*
X-5928360Y+7429500D01*
X-5991860Y+7493000D02*
X-5864860Y+7493000D01*
X-5865077Y+7498247D01*
X-5866842Y+7508742D01*
X-5870534Y+7519237D01*
X-5876562Y+7529732D01*
X-5885784Y+7540112D01*
X-5896279Y+7547800D01*
X-5906774Y+7552718D01*
X-5917269Y+7555524D01*
X-5927764Y+7556497D01*
X-5928360Y+7556500D01*
X-5991860Y+7493000D02*
X-5991643Y+7498247D01*
X-5989878Y+7508742D01*
X-5986186Y+7519237D01*
X-5980158Y+7529732D01*
X-5970936Y+7540112D01*
X-5960441Y+7547800D01*
X-5949946Y+7552718D01*
X-5939451Y+7555524D01*
X-5928956Y+7556497D01*
X-5928360Y+7556500D01*
X-5991860Y+7493000D02*
X-5991643Y+7487753D01*
X-5989878Y+7477258D01*
X-5986186Y+7466763D01*
X-5980158Y+7456268D01*
X-5970936Y+7445888D01*
X-5960441Y+7438200D01*
X-5949946Y+7433282D01*
X-5939451Y+7430476D01*
X-5928956Y+7429503D01*
X-5928360Y+7429500D01*
X-5864860Y+7493000D02*
X-5865077Y+7487753D01*
X-5866842Y+7477258D01*
X-5870534Y+7466763D01*
X-5876562Y+7456268D01*
X-5885784Y+7445888D01*
X-5896279Y+7438200D01*
X-5906774Y+7433282D01*
X-5917269Y+7430476D01*
X-5927764Y+7429503D01*
X-5928360Y+7429500D01*
X-5973261Y+7537901D02*
X-5883459Y+7448099D01*
X-5973261Y+7448099D02*
X-5883459Y+7537901D01*
X-5364480Y+7493000D02*
X-5364697Y+7498247D01*
X-5366462Y+7508742D01*
X-5370154Y+7519237D01*
X-5376182Y+7529732D01*
X-5385404Y+7540112D01*
X-5395899Y+7547800D01*
X-5406394Y+7552718D01*
X-5416889Y+7555524D01*
X-5427384Y+7556497D01*
X-5427980Y+7556500D01*
X-5491480Y+7493000D02*
X-5491263Y+7498247D01*
X-5489498Y+7508742D01*
X-5485806Y+7519237D01*
X-5479778Y+7529732D01*
X-5470556Y+7540112D01*
X-5460061Y+7547800D01*
X-5449566Y+7552718D01*
X-5439071Y+7555524D01*
X-5428576Y+7556497D01*
X-5427980Y+7556500D01*
X-5491480Y+7493000D02*
X-5491263Y+7487753D01*
X-5489498Y+7477258D01*
X-5485806Y+7466763D01*
X-5479778Y+7456268D01*
X-5470556Y+7445888D01*
X-5460061Y+7438200D01*
X-5449566Y+7433282D01*
X-5439071Y+7430476D01*
X-5428576Y+7429503D01*
X-5427980Y+7429500D01*
X-5364480Y+7493000D02*
X-5364697Y+7487753D01*
X-5366462Y+7477258D01*
X-5370154Y+7466763D01*
X-5376182Y+7456268D01*
X-5385404Y+7445888D01*
X-5395899Y+7438200D01*
X-5406394Y+7433282D01*
X-5416889Y+7430476D01*
X-5427384Y+7429503D01*
X-5427980Y+7429500D01*
X-5427980Y+7556500D02*
X-5427980Y+7429500D01*
X-5491480Y+7493000D02*
X-5364480Y+7493000D01*
X-5364697Y+7498247D01*
X-5366462Y+7508742D01*
X-5370154Y+7519237D01*
X-5376182Y+7529732D01*
X-5385404Y+7540112D01*
X-5395899Y+7547800D01*
X-5406394Y+7552718D01*
X-5416889Y+7555524D01*
X-5427384Y+7556497D01*
X-5427980Y+7556500D01*
X-5491480Y+7493000D02*
X-5491263Y+7498247D01*
X-5489498Y+7508742D01*
X-5485806Y+7519237D01*
X-5479778Y+7529732D01*
X-5470556Y+7540112D01*
X-5460061Y+7547800D01*
X-5449566Y+7552718D01*
X-5439071Y+7555524D01*
X-5428576Y+7556497D01*
X-5427980Y+7556500D01*
X-5491480Y+7493000D02*
X-5491263Y+7487753D01*
X-5489498Y+7477258D01*
X-5485806Y+7466763D01*
X-5479778Y+7456268D01*
X-5470556Y+7445888D01*
X-5460061Y+7438200D01*
X-5449566Y+7433282D01*
X-5439071Y+7430476D01*
X-5428576Y+7429503D01*
X-5427980Y+7429500D01*
X-5364480Y+7493000D02*
X-5364697Y+7487753D01*
X-5366462Y+7477258D01*
X-5370154Y+7466763D01*
X-5376182Y+7456268D01*
X-5385404Y+7445888D01*
X-5395899Y+7438200D01*
X-5406394Y+7433282D01*
X-5416889Y+7430476D01*
X-5427384Y+7429503D01*
X-5427980Y+7429500D01*
X-5472881Y+7537901D02*
X-5383079Y+7448099D01*
X-5472881Y+7448099D02*
X-5383079Y+7537901D01*
X-4864100Y+7493000D02*
X-4864317Y+7498247D01*
X-4866082Y+7508742D01*
X-4869774Y+7519237D01*
X-4875802Y+7529732D01*
X-4885024Y+7540112D01*
X-4895519Y+7547800D01*
X-4906014Y+7552718D01*
X-4916509Y+7555524D01*
X-4927004Y+7556497D01*
X-4927600Y+7556500D01*
X-4991100Y+7493000D02*
X-4990883Y+7498247D01*
X-4989118Y+7508742D01*
X-4985426Y+7519237D01*
X-4979398Y+7529732D01*
X-4970176Y+7540112D01*
X-4959681Y+7547800D01*
X-4949186Y+7552718D01*
X-4938691Y+7555524D01*
X-4928196Y+7556497D01*
X-4927600Y+7556500D01*
X-4991100Y+7493000D02*
X-4990883Y+7487753D01*
X-4989118Y+7477258D01*
X-4985426Y+7466763D01*
X-4979398Y+7456268D01*
X-4970176Y+7445888D01*
X-4959681Y+7438200D01*
X-4949186Y+7433282D01*
X-4938691Y+7430476D01*
X-4928196Y+7429503D01*
X-4927600Y+7429500D01*
X-4864100Y+7493000D02*
X-4864317Y+7487753D01*
X-4866082Y+7477258D01*
X-4869774Y+7466763D01*
X-4875802Y+7456268D01*
X-4885024Y+7445888D01*
X-4895519Y+7438200D01*
X-4906014Y+7433282D01*
X-4916509Y+7430476D01*
X-4927004Y+7429503D01*
X-4927600Y+7429500D01*
X-4927600Y+7556500D02*
X-4927600Y+7429500D01*
X-4991100Y+7493000D02*
X-4864100Y+7493000D01*
X-4864317Y+7498247D01*
X-4866082Y+7508742D01*
X-4869774Y+7519237D01*
X-4875802Y+7529732D01*
X-4885024Y+7540112D01*
X-4895519Y+7547800D01*
X-4906014Y+7552718D01*
X-4916509Y+7555524D01*
X-4927004Y+7556497D01*
X-4927600Y+7556500D01*
X-4991100Y+7493000D02*
X-4990883Y+7498247D01*
X-4989118Y+7508742D01*
X-4985426Y+7519237D01*
X-4979398Y+7529732D01*
X-4970176Y+7540112D01*
X-4959681Y+7547800D01*
X-4949186Y+7552718D01*
X-4938691Y+7555524D01*
X-4928196Y+7556497D01*
X-4927600Y+7556500D01*
X-4991100Y+7493000D02*
X-4990883Y+7487753D01*
X-4989118Y+7477258D01*
X-4985426Y+7466763D01*
X-4979398Y+7456268D01*
X-4970176Y+7445888D01*
X-4959681Y+7438200D01*
X-4949186Y+7433282D01*
X-4938691Y+7430476D01*
X-4928196Y+7429503D01*
X-4927600Y+7429500D01*
X-4864100Y+7493000D02*
X-4864317Y+7487753D01*
X-4866082Y+7477258D01*
X-4869774Y+7466763D01*
X-4875802Y+7456268D01*
X-4885024Y+7445888D01*
X-4895519Y+7438200D01*
X-4906014Y+7433282D01*
X-4916509Y+7430476D01*
X-4927004Y+7429503D01*
X-4927600Y+7429500D01*
X-4972501Y+7537901D02*
X-4882699Y+7448099D01*
X-4972501Y+7448099D02*
X-4882699Y+7537901D01*
X-4363720Y+7493000D02*
X-4363937Y+7498247D01*
X-4365702Y+7508742D01*
X-4369394Y+7519237D01*
X-4375422Y+7529732D01*
X-4384644Y+7540112D01*
X-4395139Y+7547800D01*
X-4405634Y+7552718D01*
X-4416129Y+7555524D01*
X-4426624Y+7556497D01*
X-4427220Y+7556500D01*
X-4490720Y+7493000D02*
X-4490503Y+7498247D01*
X-4488738Y+7508742D01*
X-4485046Y+7519237D01*
X-4479018Y+7529732D01*
X-4469796Y+7540112D01*
X-4459301Y+7547800D01*
X-4448806Y+7552718D01*
X-4438311Y+7555524D01*
X-4427816Y+7556497D01*
X-4427220Y+7556500D01*
X-4490720Y+7493000D02*
X-4490503Y+7487753D01*
X-4488738Y+7477258D01*
X-4485046Y+7466763D01*
X-4479018Y+7456268D01*
X-4469796Y+7445888D01*
X-4459301Y+7438200D01*
X-4448806Y+7433282D01*
X-4438311Y+7430476D01*
X-4427816Y+7429503D01*
X-4427220Y+7429500D01*
X-4363720Y+7493000D02*
X-4363937Y+7487753D01*
X-4365702Y+7477258D01*
X-4369394Y+7466763D01*
X-4375422Y+7456268D01*
X-4384644Y+7445888D01*
X-4395139Y+7438200D01*
X-4405634Y+7433282D01*
X-4416129Y+7430476D01*
X-4426624Y+7429503D01*
X-4427220Y+7429500D01*
X-4427220Y+7556500D02*
X-4427220Y+7429500D01*
X-4490720Y+7493000D02*
X-4363720Y+7493000D01*
X-4363937Y+7498247D01*
X-4365702Y+7508742D01*
X-4369394Y+7519237D01*
X-4375422Y+7529732D01*
X-4384644Y+7540112D01*
X-4395139Y+7547800D01*
X-4405634Y+7552718D01*
X-4416129Y+7555524D01*
X-4426624Y+7556497D01*
X-4427220Y+7556500D01*
X-4490720Y+7493000D02*
X-4490503Y+7498247D01*
X-4488738Y+7508742D01*
X-4485046Y+7519237D01*
X-4479018Y+7529732D01*
X-4469796Y+7540112D01*
X-4459301Y+7547800D01*
X-4448806Y+7552718D01*
X-4438311Y+7555524D01*
X-4427816Y+7556497D01*
X-4427220Y+7556500D01*
X-4490720Y+7493000D02*
X-4490503Y+7487753D01*
X-4488738Y+7477258D01*
X-4485046Y+7466763D01*
X-4479018Y+7456268D01*
X-4469796Y+7445888D01*
X-4459301Y+7438200D01*
X-4448806Y+7433282D01*
X-4438311Y+7430476D01*
X-4427816Y+7429503D01*
X-4427220Y+7429500D01*
X-4363720Y+7493000D02*
X-4363937Y+7487753D01*
X-4365702Y+7477258D01*
X-4369394Y+7466763D01*
X-4375422Y+7456268D01*
X-4384644Y+7445888D01*
X-4395139Y+7438200D01*
X-4405634Y+7433282D01*
X-4416129Y+7430476D01*
X-4426624Y+7429503D01*
X-4427220Y+7429500D01*
X-4472121Y+7537901D02*
X-4382319Y+7448099D01*
X-4472121Y+7448099D02*
X-4382319Y+7537901D01*
X-3865880Y+7493000D02*
X-3866097Y+7498247D01*
X-3867862Y+7508742D01*
X-3871554Y+7519237D01*
X-3877582Y+7529732D01*
X-3886804Y+7540112D01*
X-3897299Y+7547800D01*
X-3907794Y+7552718D01*
X-3918289Y+7555524D01*
X-3928784Y+7556497D01*
X-3929380Y+7556500D01*
X-3992880Y+7493000D02*
X-3992663Y+7498247D01*
X-3990898Y+7508742D01*
X-3987206Y+7519237D01*
X-3981178Y+7529732D01*
X-3971956Y+7540112D01*
X-3961461Y+7547800D01*
X-3950966Y+7552718D01*
X-3940471Y+7555524D01*
X-3929976Y+7556497D01*
X-3929380Y+7556500D01*
X-3992880Y+7493000D02*
X-3992663Y+7487753D01*
X-3990898Y+7477258D01*
X-3987206Y+7466763D01*
X-3981178Y+7456268D01*
X-3971956Y+7445888D01*
X-3961461Y+7438200D01*
X-3950966Y+7433282D01*
X-3940471Y+7430476D01*
X-3929976Y+7429503D01*
X-3929380Y+7429500D01*
X-3865880Y+7493000D02*
X-3866097Y+7487753D01*
X-3867862Y+7477258D01*
X-3871554Y+7466763D01*
X-3877582Y+7456268D01*
X-3886804Y+7445888D01*
X-3897299Y+7438200D01*
X-3907794Y+7433282D01*
X-3918289Y+7430476D01*
X-3928784Y+7429503D01*
X-3929380Y+7429500D01*
X-3929380Y+7556500D02*
X-3929380Y+7429500D01*
X-3992880Y+7493000D02*
X-3865880Y+7493000D01*
X-3866097Y+7498247D01*
X-3867862Y+7508742D01*
X-3871554Y+7519237D01*
X-3877582Y+7529732D01*
X-3886804Y+7540112D01*
X-3897299Y+7547800D01*
X-3907794Y+7552718D01*
X-3918289Y+7555524D01*
X-3928784Y+7556497D01*
X-3929380Y+7556500D01*
X-3992880Y+7493000D02*
X-3992663Y+7498247D01*
X-3990898Y+7508742D01*
X-3987206Y+7519237D01*
X-3981178Y+7529732D01*
X-3971956Y+7540112D01*
X-3961461Y+7547800D01*
X-3950966Y+7552718D01*
X-3940471Y+7555524D01*
X-3929976Y+7556497D01*
X-3929380Y+7556500D01*
X-3992880Y+7493000D02*
X-3992663Y+7487753D01*
X-3990898Y+7477258D01*
X-3987206Y+7466763D01*
X-3981178Y+7456268D01*
X-3971956Y+7445888D01*
X-3961461Y+7438200D01*
X-3950966Y+7433282D01*
X-3940471Y+7430476D01*
X-3929976Y+7429503D01*
X-3929380Y+7429500D01*
X-3865880Y+7493000D02*
X-3866097Y+7487753D01*
X-3867862Y+7477258D01*
X-3871554Y+7466763D01*
X-3877582Y+7456268D01*
X-3886804Y+7445888D01*
X-3897299Y+7438200D01*
X-3907794Y+7433282D01*
X-3918289Y+7430476D01*
X-3928784Y+7429503D01*
X-3929380Y+7429500D01*
X-3974281Y+7537901D02*
X-3884479Y+7448099D01*
X-3974281Y+7448099D02*
X-3884479Y+7537901D01*
X-3365500Y+7493000D02*
X-3365717Y+7498247D01*
X-3367482Y+7508742D01*
X-3371174Y+7519237D01*
X-3377202Y+7529732D01*
X-3386424Y+7540112D01*
X-3396919Y+7547800D01*
X-3407414Y+7552718D01*
X-3417909Y+7555524D01*
X-3428404Y+7556497D01*
X-3429000Y+7556500D01*
X-3492500Y+7493000D02*
X-3492283Y+7498247D01*
X-3490518Y+7508742D01*
X-3486826Y+7519237D01*
X-3480798Y+7529732D01*
X-3471576Y+7540112D01*
X-3461081Y+7547800D01*
X-3450586Y+7552718D01*
X-3440091Y+7555524D01*
X-3429596Y+7556497D01*
X-3429000Y+7556500D01*
X-3492500Y+7493000D02*
X-3492283Y+7487753D01*
X-3490518Y+7477258D01*
X-3486826Y+7466763D01*
X-3480798Y+7456268D01*
X-3471576Y+7445888D01*
X-3461081Y+7438200D01*
X-3450586Y+7433282D01*
X-3440091Y+7430476D01*
X-3429596Y+7429503D01*
X-3429000Y+7429500D01*
X-3365500Y+7493000D02*
X-3365717Y+7487753D01*
X-3367482Y+7477258D01*
X-3371174Y+7466763D01*
X-3377202Y+7456268D01*
X-3386424Y+7445888D01*
X-3396919Y+7438200D01*
X-3407414Y+7433282D01*
X-3417909Y+7430476D01*
X-3428404Y+7429503D01*
X-3429000Y+7429500D01*
X-3429000Y+7556500D02*
X-3429000Y+7429500D01*
X-3492500Y+7493000D02*
X-3365500Y+7493000D01*
X-3365717Y+7498247D01*
X-3367482Y+7508742D01*
X-3371174Y+7519237D01*
X-3377202Y+7529732D01*
X-3386424Y+7540112D01*
X-3396919Y+7547800D01*
X-3407414Y+7552718D01*
X-3417909Y+7555524D01*
X-3428404Y+7556497D01*
X-3429000Y+7556500D01*
X-3492500Y+7493000D02*
X-3492283Y+7498247D01*
X-3490518Y+7508742D01*
X-3486826Y+7519237D01*
X-3480798Y+7529732D01*
X-3471576Y+7540112D01*
X-3461081Y+7547800D01*
X-3450586Y+7552718D01*
X-3440091Y+7555524D01*
X-3429596Y+7556497D01*
X-3429000Y+7556500D01*
X-3492500Y+7493000D02*
X-3492283Y+7487753D01*
X-3490518Y+7477258D01*
X-3486826Y+7466763D01*
X-3480798Y+7456268D01*
X-3471576Y+7445888D01*
X-3461081Y+7438200D01*
X-3450586Y+7433282D01*
X-3440091Y+7430476D01*
X-3429596Y+7429503D01*
X-3429000Y+7429500D01*
X-3365500Y+7493000D02*
X-3365717Y+7487753D01*
X-3367482Y+7477258D01*
X-3371174Y+7466763D01*
X-3377202Y+7456268D01*
X-3386424Y+7445888D01*
X-3396919Y+7438200D01*
X-3407414Y+7433282D01*
X-3417909Y+7430476D01*
X-3428404Y+7429503D01*
X-3429000Y+7429500D01*
X-3473901Y+7537901D02*
X-3384099Y+7448099D01*
X-3473901Y+7448099D02*
X-3384099Y+7537901D01*
X-63500Y+7493000D02*
X-63717Y+7498247D01*
X-65482Y+7508742D01*
X-69174Y+7519237D01*
X-75202Y+7529732D01*
X-84424Y+7540112D01*
X-94919Y+7547800D01*
X-105414Y+7552718D01*
X-115909Y+7555524D01*
X-126404Y+7556497D01*
X-127000Y+7556500D01*
X-190500Y+7493000D02*
X-190283Y+7498247D01*
X-188518Y+7508742D01*
X-184826Y+7519237D01*
X-178798Y+7529732D01*
X-169576Y+7540112D01*
X-159081Y+7547800D01*
X-148586Y+7552718D01*
X-138091Y+7555524D01*
X-127596Y+7556497D01*
X-127000Y+7556500D01*
X-190500Y+7493000D02*
X-190283Y+7487753D01*
X-188518Y+7477258D01*
X-184826Y+7466763D01*
X-178798Y+7456268D01*
X-169576Y+7445888D01*
X-159081Y+7438200D01*
X-148586Y+7433282D01*
X-138091Y+7430476D01*
X-127596Y+7429503D01*
X-127000Y+7429500D01*
X-63500Y+7493000D02*
X-63717Y+7487753D01*
X-65482Y+7477258D01*
X-69174Y+7466763D01*
X-75202Y+7456268D01*
X-84424Y+7445888D01*
X-94919Y+7438200D01*
X-105414Y+7433282D01*
X-115909Y+7430476D01*
X-126404Y+7429503D01*
X-127000Y+7429500D01*
X-127000Y+7556500D02*
X-127000Y+7429500D01*
X-190500Y+7493000D02*
X-63500Y+7493000D01*
X-63717Y+7498247D01*
X-65482Y+7508742D01*
X-69174Y+7519237D01*
X-75202Y+7529732D01*
X-84424Y+7540112D01*
X-94919Y+7547800D01*
X-105414Y+7552718D01*
X-115909Y+7555524D01*
X-126404Y+7556497D01*
X-127000Y+7556500D01*
X-190500Y+7493000D02*
X-190283Y+7498247D01*
X-188518Y+7508742D01*
X-184826Y+7519237D01*
X-178798Y+7529732D01*
X-169576Y+7540112D01*
X-159081Y+7547800D01*
X-148586Y+7552718D01*
X-138091Y+7555524D01*
X-127596Y+7556497D01*
X-127000Y+7556500D01*
X-190500Y+7493000D02*
X-190283Y+7487753D01*
X-188518Y+7477258D01*
X-184826Y+7466763D01*
X-178798Y+7456268D01*
X-169576Y+7445888D01*
X-159081Y+7438200D01*
X-148586Y+7433282D01*
X-138091Y+7430476D01*
X-127596Y+7429503D01*
X-127000Y+7429500D01*
X-63500Y+7493000D02*
X-63717Y+7487753D01*
X-65482Y+7477258D01*
X-69174Y+7466763D01*
X-75202Y+7456268D01*
X-84424Y+7445888D01*
X-94919Y+7438200D01*
X-105414Y+7433282D01*
X-115909Y+7430476D01*
X-126404Y+7429503D01*
X-127000Y+7429500D01*
X-171901Y+7537901D02*
X-82099Y+7448099D01*
X-171901Y+7448099D02*
X-82099Y+7537901D01*
X-563880Y+7493000D02*
X-564097Y+7498247D01*
X-565862Y+7508742D01*
X-569554Y+7519237D01*
X-575582Y+7529732D01*
X-584804Y+7540112D01*
X-595299Y+7547800D01*
X-605794Y+7552718D01*
X-616289Y+7555524D01*
X-626784Y+7556497D01*
X-627380Y+7556500D01*
X-690880Y+7493000D02*
X-690663Y+7498247D01*
X-688898Y+7508742D01*
X-685206Y+7519237D01*
X-679178Y+7529732D01*
X-669956Y+7540112D01*
X-659461Y+7547800D01*
X-648966Y+7552718D01*
X-638471Y+7555524D01*
X-627976Y+7556497D01*
X-627380Y+7556500D01*
X-690880Y+7493000D02*
X-690663Y+7487753D01*
X-688898Y+7477258D01*
X-685206Y+7466763D01*
X-679178Y+7456268D01*
X-669956Y+7445888D01*
X-659461Y+7438200D01*
X-648966Y+7433282D01*
X-638471Y+7430476D01*
X-627976Y+7429503D01*
X-627380Y+7429500D01*
X-563880Y+7493000D02*
X-564097Y+7487753D01*
X-565862Y+7477258D01*
X-569554Y+7466763D01*
X-575582Y+7456268D01*
X-584804Y+7445888D01*
X-595299Y+7438200D01*
X-605794Y+7433282D01*
X-616289Y+7430476D01*
X-626784Y+7429503D01*
X-627380Y+7429500D01*
X-627380Y+7556500D02*
X-627380Y+7429500D01*
X-690880Y+7493000D02*
X-563880Y+7493000D01*
X-564097Y+7498247D01*
X-565862Y+7508742D01*
X-569554Y+7519237D01*
X-575582Y+7529732D01*
X-584804Y+7540112D01*
X-595299Y+7547800D01*
X-605794Y+7552718D01*
X-616289Y+7555524D01*
X-626784Y+7556497D01*
X-627380Y+7556500D01*
X-690880Y+7493000D02*
X-690663Y+7498247D01*
X-688898Y+7508742D01*
X-685206Y+7519237D01*
X-679178Y+7529732D01*
X-669956Y+7540112D01*
X-659461Y+7547800D01*
X-648966Y+7552718D01*
X-638471Y+7555524D01*
X-627976Y+7556497D01*
X-627380Y+7556500D01*
X-690880Y+7493000D02*
X-690663Y+7487753D01*
X-688898Y+7477258D01*
X-685206Y+7466763D01*
X-679178Y+7456268D01*
X-669956Y+7445888D01*
X-659461Y+7438200D01*
X-648966Y+7433282D01*
X-638471Y+7430476D01*
X-627976Y+7429503D01*
X-627380Y+7429500D01*
X-563880Y+7493000D02*
X-564097Y+7487753D01*
X-565862Y+7477258D01*
X-569554Y+7466763D01*
X-575582Y+7456268D01*
X-584804Y+7445888D01*
X-595299Y+7438200D01*
X-605794Y+7433282D01*
X-616289Y+7430476D01*
X-626784Y+7429503D01*
X-627380Y+7429500D01*
X-672281Y+7537901D02*
X-582479Y+7448099D01*
X-672281Y+7448099D02*
X-582479Y+7537901D01*
X-1064260Y+7493000D02*
X-1064477Y+7498247D01*
X-1066242Y+7508742D01*
X-1069934Y+7519237D01*
X-1075962Y+7529732D01*
X-1085184Y+7540112D01*
X-1095679Y+7547800D01*
X-1106174Y+7552718D01*
X-1116669Y+7555524D01*
X-1127164Y+7556497D01*
X-1127760Y+7556500D01*
X-1191260Y+7493000D02*
X-1191043Y+7498247D01*
X-1189278Y+7508742D01*
X-1185586Y+7519237D01*
X-1179558Y+7529732D01*
X-1170336Y+7540112D01*
X-1159841Y+7547800D01*
X-1149346Y+7552718D01*
X-1138851Y+7555524D01*
X-1128356Y+7556497D01*
X-1127760Y+7556500D01*
X-1191260Y+7493000D02*
X-1191043Y+7487753D01*
X-1189278Y+7477258D01*
X-1185586Y+7466763D01*
X-1179558Y+7456268D01*
X-1170336Y+7445888D01*
X-1159841Y+7438200D01*
X-1149346Y+7433282D01*
X-1138851Y+7430476D01*
X-1128356Y+7429503D01*
X-1127760Y+7429500D01*
X-1064260Y+7493000D02*
X-1064477Y+7487753D01*
X-1066242Y+7477258D01*
X-1069934Y+7466763D01*
X-1075962Y+7456268D01*
X-1085184Y+7445888D01*
X-1095679Y+7438200D01*
X-1106174Y+7433282D01*
X-1116669Y+7430476D01*
X-1127164Y+7429503D01*
X-1127760Y+7429500D01*
X-1127760Y+7556500D02*
X-1127760Y+7429500D01*
X-1191260Y+7493000D02*
X-1064260Y+7493000D01*
X-1064477Y+7498247D01*
X-1066242Y+7508742D01*
X-1069934Y+7519237D01*
X-1075962Y+7529732D01*
X-1085184Y+7540112D01*
X-1095679Y+7547800D01*
X-1106174Y+7552718D01*
X-1116669Y+7555524D01*
X-1127164Y+7556497D01*
X-1127760Y+7556500D01*
X-1191260Y+7493000D02*
X-1191043Y+7498247D01*
X-1189278Y+7508742D01*
X-1185586Y+7519237D01*
X-1179558Y+7529732D01*
X-1170336Y+7540112D01*
X-1159841Y+7547800D01*
X-1149346Y+7552718D01*
X-1138851Y+7555524D01*
X-1128356Y+7556497D01*
X-1127760Y+7556500D01*
X-1191260Y+7493000D02*
X-1191043Y+7487753D01*
X-1189278Y+7477258D01*
X-1185586Y+7466763D01*
X-1179558Y+7456268D01*
X-1170336Y+7445888D01*
X-1159841Y+7438200D01*
X-1149346Y+7433282D01*
X-1138851Y+7430476D01*
X-1128356Y+7429503D01*
X-1127760Y+7429500D01*
X-1064260Y+7493000D02*
X-1064477Y+7487753D01*
X-1066242Y+7477258D01*
X-1069934Y+7466763D01*
X-1075962Y+7456268D01*
X-1085184Y+7445888D01*
X-1095679Y+7438200D01*
X-1106174Y+7433282D01*
X-1116669Y+7430476D01*
X-1127164Y+7429503D01*
X-1127760Y+7429500D01*
X-1172661Y+7537901D02*
X-1082859Y+7448099D01*
X-1172661Y+7448099D02*
X-1082859Y+7537901D01*
X-1564640Y+7493000D02*
X-1564857Y+7498247D01*
X-1566622Y+7508742D01*
X-1570314Y+7519237D01*
X-1576342Y+7529732D01*
X-1585564Y+7540112D01*
X-1596059Y+7547800D01*
X-1606554Y+7552718D01*
X-1617049Y+7555524D01*
X-1627544Y+7556497D01*
X-1628140Y+7556500D01*
X-1691640Y+7493000D02*
X-1691423Y+7498247D01*
X-1689658Y+7508742D01*
X-1685966Y+7519237D01*
X-1679938Y+7529732D01*
X-1670716Y+7540112D01*
X-1660221Y+7547800D01*
X-1649726Y+7552718D01*
X-1639231Y+7555524D01*
X-1628736Y+7556497D01*
X-1628140Y+7556500D01*
X-1691640Y+7493000D02*
X-1691423Y+7487753D01*
X-1689658Y+7477258D01*
X-1685966Y+7466763D01*
X-1679938Y+7456268D01*
X-1670716Y+7445888D01*
X-1660221Y+7438200D01*
X-1649726Y+7433282D01*
X-1639231Y+7430476D01*
X-1628736Y+7429503D01*
X-1628140Y+7429500D01*
X-1564640Y+7493000D02*
X-1564857Y+7487753D01*
X-1566622Y+7477258D01*
X-1570314Y+7466763D01*
X-1576342Y+7456268D01*
X-1585564Y+7445888D01*
X-1596059Y+7438200D01*
X-1606554Y+7433282D01*
X-1617049Y+7430476D01*
X-1627544Y+7429503D01*
X-1628140Y+7429500D01*
X-1628140Y+7556500D02*
X-1628140Y+7429500D01*
X-1691640Y+7493000D02*
X-1564640Y+7493000D01*
X-1564857Y+7498247D01*
X-1566622Y+7508742D01*
X-1570314Y+7519237D01*
X-1576342Y+7529732D01*
X-1585564Y+7540112D01*
X-1596059Y+7547800D01*
X-1606554Y+7552718D01*
X-1617049Y+7555524D01*
X-1627544Y+7556497D01*
X-1628140Y+7556500D01*
X-1691640Y+7493000D02*
X-1691423Y+7498247D01*
X-1689658Y+7508742D01*
X-1685966Y+7519237D01*
X-1679938Y+7529732D01*
X-1670716Y+7540112D01*
X-1660221Y+7547800D01*
X-1649726Y+7552718D01*
X-1639231Y+7555524D01*
X-1628736Y+7556497D01*
X-1628140Y+7556500D01*
X-1691640Y+7493000D02*
X-1691423Y+7487753D01*
X-1689658Y+7477258D01*
X-1685966Y+7466763D01*
X-1679938Y+7456268D01*
X-1670716Y+7445888D01*
X-1660221Y+7438200D01*
X-1649726Y+7433282D01*
X-1639231Y+7430476D01*
X-1628736Y+7429503D01*
X-1628140Y+7429500D01*
X-1564640Y+7493000D02*
X-1564857Y+7487753D01*
X-1566622Y+7477258D01*
X-1570314Y+7466763D01*
X-1576342Y+7456268D01*
X-1585564Y+7445888D01*
X-1596059Y+7438200D01*
X-1606554Y+7433282D01*
X-1617049Y+7430476D01*
X-1627544Y+7429503D01*
X-1628140Y+7429500D01*
X-1673041Y+7537901D02*
X-1583239Y+7448099D01*
X-1673041Y+7448099D02*
X-1583239Y+7537901D01*
X-2062480Y+7493000D02*
X-2062697Y+7498247D01*
X-2064462Y+7508742D01*
X-2068154Y+7519237D01*
X-2074182Y+7529732D01*
X-2083404Y+7540112D01*
X-2093899Y+7547800D01*
X-2104394Y+7552718D01*
X-2114889Y+7555524D01*
X-2125384Y+7556497D01*
X-2125980Y+7556500D01*
X-2189480Y+7493000D02*
X-2189263Y+7498247D01*
X-2187498Y+7508742D01*
X-2183806Y+7519237D01*
X-2177778Y+7529732D01*
X-2168556Y+7540112D01*
X-2158061Y+7547800D01*
X-2147566Y+7552718D01*
X-2137071Y+7555524D01*
X-2126576Y+7556497D01*
X-2125980Y+7556500D01*
X-2189480Y+7493000D02*
X-2189263Y+7487753D01*
X-2187498Y+7477258D01*
X-2183806Y+7466763D01*
X-2177778Y+7456268D01*
X-2168556Y+7445888D01*
X-2158061Y+7438200D01*
X-2147566Y+7433282D01*
X-2137071Y+7430476D01*
X-2126576Y+7429503D01*
X-2125980Y+7429500D01*
X-2062480Y+7493000D02*
X-2062697Y+7487753D01*
X-2064462Y+7477258D01*
X-2068154Y+7466763D01*
X-2074182Y+7456268D01*
X-2083404Y+7445888D01*
X-2093899Y+7438200D01*
X-2104394Y+7433282D01*
X-2114889Y+7430476D01*
X-2125384Y+7429503D01*
X-2125980Y+7429500D01*
X-2125980Y+7556500D02*
X-2125980Y+7429500D01*
X-2189480Y+7493000D02*
X-2062480Y+7493000D01*
X-2062697Y+7498247D01*
X-2064462Y+7508742D01*
X-2068154Y+7519237D01*
X-2074182Y+7529732D01*
X-2083404Y+7540112D01*
X-2093899Y+7547800D01*
X-2104394Y+7552718D01*
X-2114889Y+7555524D01*
X-2125384Y+7556497D01*
X-2125980Y+7556500D01*
X-2189480Y+7493000D02*
X-2189263Y+7498247D01*
X-2187498Y+7508742D01*
X-2183806Y+7519237D01*
X-2177778Y+7529732D01*
X-2168556Y+7540112D01*
X-2158061Y+7547800D01*
X-2147566Y+7552718D01*
X-2137071Y+7555524D01*
X-2126576Y+7556497D01*
X-2125980Y+7556500D01*
X-2189480Y+7493000D02*
X-2189263Y+7487753D01*
X-2187498Y+7477258D01*
X-2183806Y+7466763D01*
X-2177778Y+7456268D01*
X-2168556Y+7445888D01*
X-2158061Y+7438200D01*
X-2147566Y+7433282D01*
X-2137071Y+7430476D01*
X-2126576Y+7429503D01*
X-2125980Y+7429500D01*
X-2062480Y+7493000D02*
X-2062697Y+7487753D01*
X-2064462Y+7477258D01*
X-2068154Y+7466763D01*
X-2074182Y+7456268D01*
X-2083404Y+7445888D01*
X-2093899Y+7438200D01*
X-2104394Y+7433282D01*
X-2114889Y+7430476D01*
X-2125384Y+7429503D01*
X-2125980Y+7429500D01*
X-2170881Y+7537901D02*
X-2081079Y+7448099D01*
X-2170881Y+7448099D02*
X-2081079Y+7537901D01*
X-2562860Y+7493000D02*
X-2563077Y+7498247D01*
X-2564842Y+7508742D01*
X-2568534Y+7519237D01*
X-2574562Y+7529732D01*
X-2583784Y+7540112D01*
X-2594279Y+7547800D01*
X-2604774Y+7552718D01*
X-2615269Y+7555524D01*
X-2625764Y+7556497D01*
X-2626360Y+7556500D01*
X-2689860Y+7493000D02*
X-2689643Y+7498247D01*
X-2687878Y+7508742D01*
X-2684186Y+7519237D01*
X-2678158Y+7529732D01*
X-2668936Y+7540112D01*
X-2658441Y+7547800D01*
X-2647946Y+7552718D01*
X-2637451Y+7555524D01*
X-2626956Y+7556497D01*
X-2626360Y+7556500D01*
X-2689860Y+7493000D02*
X-2689643Y+7487753D01*
X-2687878Y+7477258D01*
X-2684186Y+7466763D01*
X-2678158Y+7456268D01*
X-2668936Y+7445888D01*
X-2658441Y+7438200D01*
X-2647946Y+7433282D01*
X-2637451Y+7430476D01*
X-2626956Y+7429503D01*
X-2626360Y+7429500D01*
X-2562860Y+7493000D02*
X-2563077Y+7487753D01*
X-2564842Y+7477258D01*
X-2568534Y+7466763D01*
X-2574562Y+7456268D01*
X-2583784Y+7445888D01*
X-2594279Y+7438200D01*
X-2604774Y+7433282D01*
X-2615269Y+7430476D01*
X-2625764Y+7429503D01*
X-2626360Y+7429500D01*
X-2626360Y+7556500D02*
X-2626360Y+7429500D01*
X-2689860Y+7493000D02*
X-2562860Y+7493000D01*
X-2563077Y+7498247D01*
X-2564842Y+7508742D01*
X-2568534Y+7519237D01*
X-2574562Y+7529732D01*
X-2583784Y+7540112D01*
X-2594279Y+7547800D01*
X-2604774Y+7552718D01*
X-2615269Y+7555524D01*
X-2625764Y+7556497D01*
X-2626360Y+7556500D01*
X-2689860Y+7493000D02*
X-2689643Y+7498247D01*
X-2687878Y+7508742D01*
X-2684186Y+7519237D01*
X-2678158Y+7529732D01*
X-2668936Y+7540112D01*
X-2658441Y+7547800D01*
X-2647946Y+7552718D01*
X-2637451Y+7555524D01*
X-2626956Y+7556497D01*
X-2626360Y+7556500D01*
X-2689860Y+7493000D02*
X-2689643Y+7487753D01*
X-2687878Y+7477258D01*
X-2684186Y+7466763D01*
X-2678158Y+7456268D01*
X-2668936Y+7445888D01*
X-2658441Y+7438200D01*
X-2647946Y+7433282D01*
X-2637451Y+7430476D01*
X-2626956Y+7429503D01*
X-2626360Y+7429500D01*
X-2562860Y+7493000D02*
X-2563077Y+7487753D01*
X-2564842Y+7477258D01*
X-2568534Y+7466763D01*
X-2574562Y+7456268D01*
X-2583784Y+7445888D01*
X-2594279Y+7438200D01*
X-2604774Y+7433282D01*
X-2615269Y+7430476D01*
X-2625764Y+7429503D01*
X-2626360Y+7429500D01*
X-2671261Y+7537901D02*
X-2581459Y+7448099D01*
X-2671261Y+7448099D02*
X-2581459Y+7537901D01*
X-5270500Y+2032000D02*
X-5270717Y+2037247D01*
X-5272482Y+2047742D01*
X-5276174Y+2058237D01*
X-5282202Y+2068732D01*
X-5291424Y+2079112D01*
X-5301919Y+2086800D01*
X-5312414Y+2091718D01*
X-5322909Y+2094524D01*
X-5333404Y+2095497D01*
X-5334000Y+2095500D01*
X-5397500Y+2032000D02*
X-5397283Y+2037247D01*
X-5395518Y+2047742D01*
X-5391826Y+2058237D01*
X-5385798Y+2068732D01*
X-5376576Y+2079112D01*
X-5366081Y+2086800D01*
X-5355586Y+2091718D01*
X-5345091Y+2094524D01*
X-5334596Y+2095497D01*
X-5334000Y+2095500D01*
X-5397500Y+2032000D02*
X-5397283Y+2026753D01*
X-5395518Y+2016258D01*
X-5391826Y+2005763D01*
X-5385798Y+1995268D01*
X-5376576Y+1984888D01*
X-5366081Y+1977200D01*
X-5355586Y+1972282D01*
X-5345091Y+1969476D01*
X-5334596Y+1968503D01*
X-5334000Y+1968500D01*
X-5270500Y+2032000D02*
X-5270717Y+2026753D01*
X-5272482Y+2016258D01*
X-5276174Y+2005763D01*
X-5282202Y+1995268D01*
X-5291424Y+1984888D01*
X-5301919Y+1977200D01*
X-5312414Y+1972282D01*
X-5322909Y+1969476D01*
X-5333404Y+1968503D01*
X-5334000Y+1968500D01*
X-5378901Y+2076901D02*
X-5289099Y+1987099D01*
X-5378901Y+1987099D02*
X-5289099Y+2076901D01*
X-4762500Y+2032000D02*
X-4762717Y+2037247D01*
X-4764482Y+2047742D01*
X-4768174Y+2058237D01*
X-4774202Y+2068732D01*
X-4783424Y+2079112D01*
X-4793919Y+2086800D01*
X-4804414Y+2091718D01*
X-4814909Y+2094524D01*
X-4825404Y+2095497D01*
X-4826000Y+2095500D01*
X-4889500Y+2032000D02*
X-4889283Y+2037247D01*
X-4887518Y+2047742D01*
X-4883826Y+2058237D01*
X-4877798Y+2068732D01*
X-4868576Y+2079112D01*
X-4858081Y+2086800D01*
X-4847586Y+2091718D01*
X-4837091Y+2094524D01*
X-4826596Y+2095497D01*
X-4826000Y+2095500D01*
X-4889500Y+2032000D02*
X-4889283Y+2026753D01*
X-4887518Y+2016258D01*
X-4883826Y+2005763D01*
X-4877798Y+1995268D01*
X-4868576Y+1984888D01*
X-4858081Y+1977200D01*
X-4847586Y+1972282D01*
X-4837091Y+1969476D01*
X-4826596Y+1968503D01*
X-4826000Y+1968500D01*
X-4762500Y+2032000D02*
X-4762717Y+2026753D01*
X-4764482Y+2016258D01*
X-4768174Y+2005763D01*
X-4774202Y+1995268D01*
X-4783424Y+1984888D01*
X-4793919Y+1977200D01*
X-4804414Y+1972282D01*
X-4814909Y+1969476D01*
X-4825404Y+1968503D01*
X-4826000Y+1968500D01*
X-4870901Y+2076901D02*
X-4781099Y+1987099D01*
X-4870901Y+1987099D02*
X-4781099Y+2076901D01*
X-9842500Y+2682240D02*
X-9842717Y+2687487D01*
X-9844482Y+2697982D01*
X-9848174Y+2708477D01*
X-9854202Y+2718972D01*
X-9863424Y+2729352D01*
X-9873919Y+2737040D01*
X-9884414Y+2741958D01*
X-9894909Y+2744764D01*
X-9905404Y+2745737D01*
X-9906000Y+2745740D01*
X-9969500Y+2682240D02*
X-9969283Y+2687487D01*
X-9967518Y+2697982D01*
X-9963826Y+2708477D01*
X-9957798Y+2718972D01*
X-9948576Y+2729352D01*
X-9938081Y+2737040D01*
X-9927586Y+2741958D01*
X-9917091Y+2744764D01*
X-9906596Y+2745737D01*
X-9906000Y+2745740D01*
X-9969500Y+2682240D02*
X-9969283Y+2676993D01*
X-9967518Y+2666498D01*
X-9963826Y+2656003D01*
X-9957798Y+2645508D01*
X-9948576Y+2635128D01*
X-9938081Y+2627440D01*
X-9927586Y+2622522D01*
X-9917091Y+2619716D01*
X-9906596Y+2618743D01*
X-9906000Y+2618740D01*
X-9842500Y+2682240D02*
X-9842717Y+2676993D01*
X-9844482Y+2666498D01*
X-9848174Y+2656003D01*
X-9854202Y+2645508D01*
X-9863424Y+2635128D01*
X-9873919Y+2627440D01*
X-9884414Y+2622522D01*
X-9894909Y+2619716D01*
X-9905404Y+2618743D01*
X-9906000Y+2618740D01*
X-9906000Y+2745740D02*
X-9906000Y+2618740D01*
X-9969500Y+2682240D02*
X-9842500Y+2682240D01*
X-9842717Y+2687487D01*
X-9844482Y+2697982D01*
X-9848174Y+2708477D01*
X-9854202Y+2718972D01*
X-9863424Y+2729352D01*
X-9873919Y+2737040D01*
X-9884414Y+2741958D01*
X-9894909Y+2744764D01*
X-9905404Y+2745737D01*
X-9906000Y+2745740D01*
X-9969500Y+2682240D02*
X-9969283Y+2687487D01*
X-9967518Y+2697982D01*
X-9963826Y+2708477D01*
X-9957798Y+2718972D01*
X-9948576Y+2729352D01*
X-9938081Y+2737040D01*
X-9927586Y+2741958D01*
X-9917091Y+2744764D01*
X-9906596Y+2745737D01*
X-9906000Y+2745740D01*
X-9969500Y+2682240D02*
X-9969283Y+2676993D01*
X-9967518Y+2666498D01*
X-9963826Y+2656003D01*
X-9957798Y+2645508D01*
X-9948576Y+2635128D01*
X-9938081Y+2627440D01*
X-9927586Y+2622522D01*
X-9917091Y+2619716D01*
X-9906596Y+2618743D01*
X-9906000Y+2618740D01*
X-9842500Y+2682240D02*
X-9842717Y+2676993D01*
X-9844482Y+2666498D01*
X-9848174Y+2656003D01*
X-9854202Y+2645508D01*
X-9863424Y+2635128D01*
X-9873919Y+2627440D01*
X-9884414Y+2622522D01*
X-9894909Y+2619716D01*
X-9905404Y+2618743D01*
X-9906000Y+2618740D01*
X-9950901Y+2727141D02*
X-9861099Y+2637339D01*
X-9950901Y+2637339D02*
X-9861099Y+2727141D01*
X-9842500Y+3182620D02*
X-9842717Y+3187867D01*
X-9844482Y+3198362D01*
X-9848174Y+3208857D01*
X-9854202Y+3219352D01*
X-9863424Y+3229732D01*
X-9873919Y+3237420D01*
X-9884414Y+3242338D01*
X-9894909Y+3245144D01*
X-9905404Y+3246117D01*
X-9906000Y+3246120D01*
X-9969500Y+3182620D02*
X-9969283Y+3187867D01*
X-9967518Y+3198362D01*
X-9963826Y+3208857D01*
X-9957798Y+3219352D01*
X-9948576Y+3229732D01*
X-9938081Y+3237420D01*
X-9927586Y+3242338D01*
X-9917091Y+3245144D01*
X-9906596Y+3246117D01*
X-9906000Y+3246120D01*
X-9969500Y+3182620D02*
X-9969283Y+3177373D01*
X-9967518Y+3166878D01*
X-9963826Y+3156383D01*
X-9957798Y+3145888D01*
X-9948576Y+3135508D01*
X-9938081Y+3127820D01*
X-9927586Y+3122902D01*
X-9917091Y+3120096D01*
X-9906596Y+3119123D01*
X-9906000Y+3119120D01*
X-9842500Y+3182620D02*
X-9842717Y+3177373D01*
X-9844482Y+3166878D01*
X-9848174Y+3156383D01*
X-9854202Y+3145888D01*
X-9863424Y+3135508D01*
X-9873919Y+3127820D01*
X-9884414Y+3122902D01*
X-9894909Y+3120096D01*
X-9905404Y+3119123D01*
X-9906000Y+3119120D01*
X-9906000Y+3246120D02*
X-9906000Y+3119120D01*
X-9969500Y+3182620D02*
X-9842500Y+3182620D01*
X-9842717Y+3187867D01*
X-9844482Y+3198362D01*
X-9848174Y+3208857D01*
X-9854202Y+3219352D01*
X-9863424Y+3229732D01*
X-9873919Y+3237420D01*
X-9884414Y+3242338D01*
X-9894909Y+3245144D01*
X-9905404Y+3246117D01*
X-9906000Y+3246120D01*
X-9969500Y+3182620D02*
X-9969283Y+3187867D01*
X-9967518Y+3198362D01*
X-9963826Y+3208857D01*
X-9957798Y+3219352D01*
X-9948576Y+3229732D01*
X-9938081Y+3237420D01*
X-9927586Y+3242338D01*
X-9917091Y+3245144D01*
X-9906596Y+3246117D01*
X-9906000Y+3246120D01*
X-9969500Y+3182620D02*
X-9969283Y+3177373D01*
X-9967518Y+3166878D01*
X-9963826Y+3156383D01*
X-9957798Y+3145888D01*
X-9948576Y+3135508D01*
X-9938081Y+3127820D01*
X-9927586Y+3122902D01*
X-9917091Y+3120096D01*
X-9906596Y+3119123D01*
X-9906000Y+3119120D01*
X-9842500Y+3182620D02*
X-9842717Y+3177373D01*
X-9844482Y+3166878D01*
X-9848174Y+3156383D01*
X-9854202Y+3145888D01*
X-9863424Y+3135508D01*
X-9873919Y+3127820D01*
X-9884414Y+3122902D01*
X-9894909Y+3120096D01*
X-9905404Y+3119123D01*
X-9906000Y+3119120D01*
X-9950901Y+3227521D02*
X-9861099Y+3137719D01*
X-9950901Y+3137719D02*
X-9861099Y+3227521D01*
X-9842500Y+3683000D02*
X-9842717Y+3688247D01*
X-9844482Y+3698742D01*
X-9848174Y+3709237D01*
X-9854202Y+3719732D01*
X-9863424Y+3730112D01*
X-9873919Y+3737800D01*
X-9884414Y+3742718D01*
X-9894909Y+3745524D01*
X-9905404Y+3746497D01*
X-9906000Y+3746500D01*
X-9969500Y+3683000D02*
X-9969283Y+3688247D01*
X-9967518Y+3698742D01*
X-9963826Y+3709237D01*
X-9957798Y+3719732D01*
X-9948576Y+3730112D01*
X-9938081Y+3737800D01*
X-9927586Y+3742718D01*
X-9917091Y+3745524D01*
X-9906596Y+3746497D01*
X-9906000Y+3746500D01*
X-9969500Y+3683000D02*
X-9969283Y+3677753D01*
X-9967518Y+3667258D01*
X-9963826Y+3656763D01*
X-9957798Y+3646268D01*
X-9948576Y+3635888D01*
X-9938081Y+3628200D01*
X-9927586Y+3623282D01*
X-9917091Y+3620476D01*
X-9906596Y+3619503D01*
X-9906000Y+3619500D01*
X-9842500Y+3683000D02*
X-9842717Y+3677753D01*
X-9844482Y+3667258D01*
X-9848174Y+3656763D01*
X-9854202Y+3646268D01*
X-9863424Y+3635888D01*
X-9873919Y+3628200D01*
X-9884414Y+3623282D01*
X-9894909Y+3620476D01*
X-9905404Y+3619503D01*
X-9906000Y+3619500D01*
X-9906000Y+3746500D02*
X-9906000Y+3619500D01*
X-9969500Y+3683000D02*
X-9842500Y+3683000D01*
X-9842717Y+3688247D01*
X-9844482Y+3698742D01*
X-9848174Y+3709237D01*
X-9854202Y+3719732D01*
X-9863424Y+3730112D01*
X-9873919Y+3737800D01*
X-9884414Y+3742718D01*
X-9894909Y+3745524D01*
X-9905404Y+3746497D01*
X-9906000Y+3746500D01*
X-9969500Y+3683000D02*
X-9969283Y+3688247D01*
X-9967518Y+3698742D01*
X-9963826Y+3709237D01*
X-9957798Y+3719732D01*
X-9948576Y+3730112D01*
X-9938081Y+3737800D01*
X-9927586Y+3742718D01*
X-9917091Y+3745524D01*
X-9906596Y+3746497D01*
X-9906000Y+3746500D01*
X-9969500Y+3683000D02*
X-9969283Y+3677753D01*
X-9967518Y+3667258D01*
X-9963826Y+3656763D01*
X-9957798Y+3646268D01*
X-9948576Y+3635888D01*
X-9938081Y+3628200D01*
X-9927586Y+3623282D01*
X-9917091Y+3620476D01*
X-9906596Y+3619503D01*
X-9906000Y+3619500D01*
X-9842500Y+3683000D02*
X-9842717Y+3677753D01*
X-9844482Y+3667258D01*
X-9848174Y+3656763D01*
X-9854202Y+3646268D01*
X-9863424Y+3635888D01*
X-9873919Y+3628200D01*
X-9884414Y+3623282D01*
X-9894909Y+3620476D01*
X-9905404Y+3619503D01*
X-9906000Y+3619500D01*
X-9950901Y+3727901D02*
X-9861099Y+3638099D01*
X-9950901Y+3638099D02*
X-9861099Y+3727901D01*
X-9842500Y+4183380D02*
X-9842717Y+4188627D01*
X-9844482Y+4199122D01*
X-9848174Y+4209617D01*
X-9854202Y+4220112D01*
X-9863424Y+4230492D01*
X-9873919Y+4238180D01*
X-9884414Y+4243098D01*
X-9894909Y+4245904D01*
X-9905404Y+4246877D01*
X-9906000Y+4246880D01*
X-9969500Y+4183380D02*
X-9969283Y+4188627D01*
X-9967518Y+4199122D01*
X-9963826Y+4209617D01*
X-9957798Y+4220112D01*
X-9948576Y+4230492D01*
X-9938081Y+4238180D01*
X-9927586Y+4243098D01*
X-9917091Y+4245904D01*
X-9906596Y+4246877D01*
X-9906000Y+4246880D01*
X-9969500Y+4183380D02*
X-9969283Y+4178133D01*
X-9967518Y+4167638D01*
X-9963826Y+4157143D01*
X-9957798Y+4146648D01*
X-9948576Y+4136268D01*
X-9938081Y+4128580D01*
X-9927586Y+4123662D01*
X-9917091Y+4120856D01*
X-9906596Y+4119883D01*
X-9906000Y+4119880D01*
X-9842500Y+4183380D02*
X-9842717Y+4178133D01*
X-9844482Y+4167638D01*
X-9848174Y+4157143D01*
X-9854202Y+4146648D01*
X-9863424Y+4136268D01*
X-9873919Y+4128580D01*
X-9884414Y+4123662D01*
X-9894909Y+4120856D01*
X-9905404Y+4119883D01*
X-9906000Y+4119880D01*
X-9906000Y+4246880D02*
X-9906000Y+4119880D01*
X-9969500Y+4183380D02*
X-9842500Y+4183380D01*
X-9842717Y+4188627D01*
X-9844482Y+4199122D01*
X-9848174Y+4209617D01*
X-9854202Y+4220112D01*
X-9863424Y+4230492D01*
X-9873919Y+4238180D01*
X-9884414Y+4243098D01*
X-9894909Y+4245904D01*
X-9905404Y+4246877D01*
X-9906000Y+4246880D01*
X-9969500Y+4183380D02*
X-9969283Y+4188627D01*
X-9967518Y+4199122D01*
X-9963826Y+4209617D01*
X-9957798Y+4220112D01*
X-9948576Y+4230492D01*
X-9938081Y+4238180D01*
X-9927586Y+4243098D01*
X-9917091Y+4245904D01*
X-9906596Y+4246877D01*
X-9906000Y+4246880D01*
X-9969500Y+4183380D02*
X-9969283Y+4178133D01*
X-9967518Y+4167638D01*
X-9963826Y+4157143D01*
X-9957798Y+4146648D01*
X-9948576Y+4136268D01*
X-9938081Y+4128580D01*
X-9927586Y+4123662D01*
X-9917091Y+4120856D01*
X-9906596Y+4119883D01*
X-9906000Y+4119880D01*
X-9842500Y+4183380D02*
X-9842717Y+4178133D01*
X-9844482Y+4167638D01*
X-9848174Y+4157143D01*
X-9854202Y+4146648D01*
X-9863424Y+4136268D01*
X-9873919Y+4128580D01*
X-9884414Y+4123662D01*
X-9894909Y+4120856D01*
X-9905404Y+4119883D01*
X-9906000Y+4119880D01*
X-9950901Y+4228281D02*
X-9861099Y+4138479D01*
X-9950901Y+4138479D02*
X-9861099Y+4228281D01*
X-9842500Y+4681220D02*
X-9842717Y+4686467D01*
X-9844482Y+4696962D01*
X-9848174Y+4707457D01*
X-9854202Y+4717952D01*
X-9863424Y+4728332D01*
X-9873919Y+4736020D01*
X-9884414Y+4740938D01*
X-9894909Y+4743744D01*
X-9905404Y+4744717D01*
X-9906000Y+4744720D01*
X-9969500Y+4681220D02*
X-9969283Y+4686467D01*
X-9967518Y+4696962D01*
X-9963826Y+4707457D01*
X-9957798Y+4717952D01*
X-9948576Y+4728332D01*
X-9938081Y+4736020D01*
X-9927586Y+4740938D01*
X-9917091Y+4743744D01*
X-9906596Y+4744717D01*
X-9906000Y+4744720D01*
X-9969500Y+4681220D02*
X-9969283Y+4675973D01*
X-9967518Y+4665478D01*
X-9963826Y+4654983D01*
X-9957798Y+4644488D01*
X-9948576Y+4634108D01*
X-9938081Y+4626420D01*
X-9927586Y+4621502D01*
X-9917091Y+4618696D01*
X-9906596Y+4617723D01*
X-9906000Y+4617720D01*
X-9842500Y+4681220D02*
X-9842717Y+4675973D01*
X-9844482Y+4665478D01*
X-9848174Y+4654983D01*
X-9854202Y+4644488D01*
X-9863424Y+4634108D01*
X-9873919Y+4626420D01*
X-9884414Y+4621502D01*
X-9894909Y+4618696D01*
X-9905404Y+4617723D01*
X-9906000Y+4617720D01*
X-9906000Y+4744720D02*
X-9906000Y+4617720D01*
X-9969500Y+4681220D02*
X-9842500Y+4681220D01*
X-9842717Y+4686467D01*
X-9844482Y+4696962D01*
X-9848174Y+4707457D01*
X-9854202Y+4717952D01*
X-9863424Y+4728332D01*
X-9873919Y+4736020D01*
X-9884414Y+4740938D01*
X-9894909Y+4743744D01*
X-9905404Y+4744717D01*
X-9906000Y+4744720D01*
X-9969500Y+4681220D02*
X-9969283Y+4686467D01*
X-9967518Y+4696962D01*
X-9963826Y+4707457D01*
X-9957798Y+4717952D01*
X-9948576Y+4728332D01*
X-9938081Y+4736020D01*
X-9927586Y+4740938D01*
X-9917091Y+4743744D01*
X-9906596Y+4744717D01*
X-9906000Y+4744720D01*
X-9969500Y+4681220D02*
X-9969283Y+4675973D01*
X-9967518Y+4665478D01*
X-9963826Y+4654983D01*
X-9957798Y+4644488D01*
X-9948576Y+4634108D01*
X-9938081Y+4626420D01*
X-9927586Y+4621502D01*
X-9917091Y+4618696D01*
X-9906596Y+4617723D01*
X-9906000Y+4617720D01*
X-9842500Y+4681220D02*
X-9842717Y+4675973D01*
X-9844482Y+4665478D01*
X-9848174Y+4654983D01*
X-9854202Y+4644488D01*
X-9863424Y+4634108D01*
X-9873919Y+4626420D01*
X-9884414Y+4621502D01*
X-9894909Y+4618696D01*
X-9905404Y+4617723D01*
X-9906000Y+4617720D01*
X-9950901Y+4726121D02*
X-9861099Y+4636319D01*
X-9950901Y+4636319D02*
X-9861099Y+4726121D01*
X-9842500Y+5181600D02*
X-9842717Y+5186847D01*
X-9844482Y+5197342D01*
X-9848174Y+5207837D01*
X-9854202Y+5218332D01*
X-9863424Y+5228712D01*
X-9873919Y+5236400D01*
X-9884414Y+5241318D01*
X-9894909Y+5244124D01*
X-9905404Y+5245097D01*
X-9906000Y+5245100D01*
X-9969500Y+5181600D02*
X-9969283Y+5186847D01*
X-9967518Y+5197342D01*
X-9963826Y+5207837D01*
X-9957798Y+5218332D01*
X-9948576Y+5228712D01*
X-9938081Y+5236400D01*
X-9927586Y+5241318D01*
X-9917091Y+5244124D01*
X-9906596Y+5245097D01*
X-9906000Y+5245100D01*
X-9969500Y+5181600D02*
X-9969283Y+5176353D01*
X-9967518Y+5165858D01*
X-9963826Y+5155363D01*
X-9957798Y+5144868D01*
X-9948576Y+5134488D01*
X-9938081Y+5126800D01*
X-9927586Y+5121882D01*
X-9917091Y+5119076D01*
X-9906596Y+5118103D01*
X-9906000Y+5118100D01*
X-9842500Y+5181600D02*
X-9842717Y+5176353D01*
X-9844482Y+5165858D01*
X-9848174Y+5155363D01*
X-9854202Y+5144868D01*
X-9863424Y+5134488D01*
X-9873919Y+5126800D01*
X-9884414Y+5121882D01*
X-9894909Y+5119076D01*
X-9905404Y+5118103D01*
X-9906000Y+5118100D01*
X-9906000Y+5245100D02*
X-9906000Y+5118100D01*
X-9969500Y+5181600D02*
X-9842500Y+5181600D01*
X-9842717Y+5186847D01*
X-9844482Y+5197342D01*
X-9848174Y+5207837D01*
X-9854202Y+5218332D01*
X-9863424Y+5228712D01*
X-9873919Y+5236400D01*
X-9884414Y+5241318D01*
X-9894909Y+5244124D01*
X-9905404Y+5245097D01*
X-9906000Y+5245100D01*
X-9969500Y+5181600D02*
X-9969283Y+5186847D01*
X-9967518Y+5197342D01*
X-9963826Y+5207837D01*
X-9957798Y+5218332D01*
X-9948576Y+5228712D01*
X-9938081Y+5236400D01*
X-9927586Y+5241318D01*
X-9917091Y+5244124D01*
X-9906596Y+5245097D01*
X-9906000Y+5245100D01*
X-9969500Y+5181600D02*
X-9969283Y+5176353D01*
X-9967518Y+5165858D01*
X-9963826Y+5155363D01*
X-9957798Y+5144868D01*
X-9948576Y+5134488D01*
X-9938081Y+5126800D01*
X-9927586Y+5121882D01*
X-9917091Y+5119076D01*
X-9906596Y+5118103D01*
X-9906000Y+5118100D01*
X-9842500Y+5181600D02*
X-9842717Y+5176353D01*
X-9844482Y+5165858D01*
X-9848174Y+5155363D01*
X-9854202Y+5144868D01*
X-9863424Y+5134488D01*
X-9873919Y+5126800D01*
X-9884414Y+5121882D01*
X-9894909Y+5119076D01*
X-9905404Y+5118103D01*
X-9906000Y+5118100D01*
X-9950901Y+5226501D02*
X-9861099Y+5136699D01*
X-9950901Y+5136699D02*
X-9861099Y+5226501D01*
X+825500Y+2286000D02*
X+825283Y+2291247D01*
X+823518Y+2301742D01*
X+819826Y+2312237D01*
X+813798Y+2322732D01*
X+804576Y+2333112D01*
X+794081Y+2340800D01*
X+783586Y+2345718D01*
X+773091Y+2348524D01*
X+762596Y+2349497D01*
X+762000Y+2349500D01*
X+698500Y+2286000D02*
X+698717Y+2291247D01*
X+700482Y+2301742D01*
X+704174Y+2312237D01*
X+710202Y+2322732D01*
X+719424Y+2333112D01*
X+729919Y+2340800D01*
X+740414Y+2345718D01*
X+750909Y+2348524D01*
X+761404Y+2349497D01*
X+762000Y+2349500D01*
X+698500Y+2286000D02*
X+698717Y+2280753D01*
X+700482Y+2270258D01*
X+704174Y+2259763D01*
X+710202Y+2249268D01*
X+719424Y+2238888D01*
X+729919Y+2231200D01*
X+740414Y+2226282D01*
X+750909Y+2223476D01*
X+761404Y+2222503D01*
X+762000Y+2222500D01*
X+825500Y+2286000D02*
X+825283Y+2280753D01*
X+823518Y+2270258D01*
X+819826Y+2259763D01*
X+813798Y+2249268D01*
X+804576Y+2238888D01*
X+794081Y+2231200D01*
X+783586Y+2226282D01*
X+773091Y+2223476D01*
X+762596Y+2222503D01*
X+762000Y+2222500D01*
X+762000Y+2349500D02*
X+762000Y+2222500D01*
X+698500Y+2286000D02*
X+825500Y+2286000D01*
X+571500Y+2286000D02*
X+571283Y+2291247D01*
X+569518Y+2301742D01*
X+565826Y+2312237D01*
X+559798Y+2322732D01*
X+550576Y+2333112D01*
X+540081Y+2340800D01*
X+529586Y+2345718D01*
X+519091Y+2348524D01*
X+508596Y+2349497D01*
X+508000Y+2349500D01*
X+444500Y+2286000D02*
X+444717Y+2291247D01*
X+446482Y+2301742D01*
X+450174Y+2312237D01*
X+456202Y+2322732D01*
X+465424Y+2333112D01*
X+475919Y+2340800D01*
X+486414Y+2345718D01*
X+496909Y+2348524D01*
X+507404Y+2349497D01*
X+508000Y+2349500D01*
X+444500Y+2286000D02*
X+444717Y+2280753D01*
X+446482Y+2270258D01*
X+450174Y+2259763D01*
X+456202Y+2249268D01*
X+465424Y+2238888D01*
X+475919Y+2231200D01*
X+486414Y+2226282D01*
X+496909Y+2223476D01*
X+507404Y+2222503D01*
X+508000Y+2222500D01*
X+571500Y+2286000D02*
X+571283Y+2280753D01*
X+569518Y+2270258D01*
X+565826Y+2259763D01*
X+559798Y+2249268D01*
X+550576Y+2238888D01*
X+540081Y+2231200D01*
X+529586Y+2226282D01*
X+519091Y+2223476D01*
X+508596Y+2222503D01*
X+508000Y+2222500D01*
X+508000Y+2349500D02*
X+508000Y+2222500D01*
X+444500Y+2286000D02*
X+571500Y+2286000D01*
X+317500Y+2286000D02*
X+317283Y+2291247D01*
X+315518Y+2301742D01*
X+311826Y+2312237D01*
X+305798Y+2322732D01*
X+296576Y+2333112D01*
X+286081Y+2340800D01*
X+275586Y+2345718D01*
X+265091Y+2348524D01*
X+254596Y+2349497D01*
X+254000Y+2349500D01*
X+190500Y+2286000D02*
X+190717Y+2291247D01*
X+192482Y+2301742D01*
X+196174Y+2312237D01*
X+202202Y+2322732D01*
X+211424Y+2333112D01*
X+221919Y+2340800D01*
X+232414Y+2345718D01*
X+242909Y+2348524D01*
X+253404Y+2349497D01*
X+254000Y+2349500D01*
X+190500Y+2286000D02*
X+190717Y+2280753D01*
X+192482Y+2270258D01*
X+196174Y+2259763D01*
X+202202Y+2249268D01*
X+211424Y+2238888D01*
X+221919Y+2231200D01*
X+232414Y+2226282D01*
X+242909Y+2223476D01*
X+253404Y+2222503D01*
X+254000Y+2222500D01*
X+317500Y+2286000D02*
X+317283Y+2280753D01*
X+315518Y+2270258D01*
X+311826Y+2259763D01*
X+305798Y+2249268D01*
X+296576Y+2238888D01*
X+286081Y+2231200D01*
X+275586Y+2226282D01*
X+265091Y+2223476D01*
X+254596Y+2222503D01*
X+254000Y+2222500D01*
X+254000Y+2349500D02*
X+254000Y+2222500D01*
X+190500Y+2286000D02*
X+317500Y+2286000D01*
X+63500Y+2286000D02*
X+63283Y+2291247D01*
X+61518Y+2301742D01*
X+57826Y+2312237D01*
X+51798Y+2322732D01*
X+42576Y+2333112D01*
X+32081Y+2340800D01*
X+21586Y+2345718D01*
X+11091Y+2348524D01*
X+596Y+2349497D01*
X+0Y+2349500D01*
X-63500Y+2286000D02*
X-63283Y+2291247D01*
X-61518Y+2301742D01*
X-57826Y+2312237D01*
X-51798Y+2322732D01*
X-42576Y+2333112D01*
X-32081Y+2340800D01*
X-21586Y+2345718D01*
X-11091Y+2348524D01*
X-596Y+2349497D01*
X+0Y+2349500D01*
X-63500Y+2286000D02*
X-63283Y+2280753D01*
X-61518Y+2270258D01*
X-57826Y+2259763D01*
X-51798Y+2249268D01*
X-42576Y+2238888D01*
X-32081Y+2231200D01*
X-21586Y+2226282D01*
X-11091Y+2223476D01*
X-596Y+2222503D01*
X+0Y+2222500D01*
X+63500Y+2286000D02*
X+63283Y+2280753D01*
X+61518Y+2270258D01*
X+57826Y+2259763D01*
X+51798Y+2249268D01*
X+42576Y+2238888D01*
X+32081Y+2231200D01*
X+21586Y+2226282D01*
X+11091Y+2223476D01*
X+596Y+2222503D01*
X+0Y+2222500D01*
X+0Y+2349500D02*
X+0Y+2222500D01*
X-63500Y+2286000D02*
X+63500Y+2286000D01*
X-190500Y+2286000D02*
X-190717Y+2291247D01*
X-192482Y+2301742D01*
X-196174Y+2312237D01*
X-202202Y+2322732D01*
X-211424Y+2333112D01*
X-221919Y+2340800D01*
X-232414Y+2345718D01*
X-242909Y+2348524D01*
X-253404Y+2349497D01*
X-254000Y+2349500D01*
X-317500Y+2286000D02*
X-317283Y+2291247D01*
X-315518Y+2301742D01*
X-311826Y+2312237D01*
X-305798Y+2322732D01*
X-296576Y+2333112D01*
X-286081Y+2340800D01*
X-275586Y+2345718D01*
X-265091Y+2348524D01*
X-254596Y+2349497D01*
X-254000Y+2349500D01*
X-317500Y+2286000D02*
X-317283Y+2280753D01*
X-315518Y+2270258D01*
X-311826Y+2259763D01*
X-305798Y+2249268D01*
X-296576Y+2238888D01*
X-286081Y+2231200D01*
X-275586Y+2226282D01*
X-265091Y+2223476D01*
X-254596Y+2222503D01*
X-254000Y+2222500D01*
X-190500Y+2286000D02*
X-190717Y+2280753D01*
X-192482Y+2270258D01*
X-196174Y+2259763D01*
X-202202Y+2249268D01*
X-211424Y+2238888D01*
X-221919Y+2231200D01*
X-232414Y+2226282D01*
X-242909Y+2223476D01*
X-253404Y+2222503D01*
X-254000Y+2222500D01*
X-254000Y+2349500D02*
X-254000Y+2222500D01*
X-317500Y+2286000D02*
X-190500Y+2286000D01*
X-444500Y+2286000D02*
X-444717Y+2291247D01*
X-446482Y+2301742D01*
X-450174Y+2312237D01*
X-456202Y+2322732D01*
X-465424Y+2333112D01*
X-475919Y+2340800D01*
X-486414Y+2345718D01*
X-496909Y+2348524D01*
X-507404Y+2349497D01*
X-508000Y+2349500D01*
X-571500Y+2286000D02*
X-571283Y+2291247D01*
X-569518Y+2301742D01*
X-565826Y+2312237D01*
X-559798Y+2322732D01*
X-550576Y+2333112D01*
X-540081Y+2340800D01*
X-529586Y+2345718D01*
X-519091Y+2348524D01*
X-508596Y+2349497D01*
X-508000Y+2349500D01*
X-571500Y+2286000D02*
X-571283Y+2280753D01*
X-569518Y+2270258D01*
X-565826Y+2259763D01*
X-559798Y+2249268D01*
X-550576Y+2238888D01*
X-540081Y+2231200D01*
X-529586Y+2226282D01*
X-519091Y+2223476D01*
X-508596Y+2222503D01*
X-508000Y+2222500D01*
X-444500Y+2286000D02*
X-444717Y+2280753D01*
X-446482Y+2270258D01*
X-450174Y+2259763D01*
X-456202Y+2249268D01*
X-465424Y+2238888D01*
X-475919Y+2231200D01*
X-486414Y+2226282D01*
X-496909Y+2223476D01*
X-507404Y+2222503D01*
X-508000Y+2222500D01*
X-508000Y+2349500D02*
X-508000Y+2222500D01*
X-571500Y+2286000D02*
X-444500Y+2286000D01*
X+2349500Y+5016500D02*
X+2349283Y+5021747D01*
X+2347518Y+5032242D01*
X+2343826Y+5042737D01*
X+2337798Y+5053232D01*
X+2328576Y+5063612D01*
X+2318081Y+5071300D01*
X+2307586Y+5076218D01*
X+2297091Y+5079024D01*
X+2286596Y+5079997D01*
X+2286000Y+5080000D01*
X+2222500Y+5016500D02*
X+2222717Y+5021747D01*
X+2224482Y+5032242D01*
X+2228174Y+5042737D01*
X+2234202Y+5053232D01*
X+2243424Y+5063612D01*
X+2253919Y+5071300D01*
X+2264414Y+5076218D01*
X+2274909Y+5079024D01*
X+2285404Y+5079997D01*
X+2286000Y+5080000D01*
X+2222500Y+5016500D02*
X+2222717Y+5011253D01*
X+2224482Y+5000758D01*
X+2228174Y+4990263D01*
X+2234202Y+4979768D01*
X+2243424Y+4969388D01*
X+2253919Y+4961700D01*
X+2264414Y+4956782D01*
X+2274909Y+4953976D01*
X+2285404Y+4953003D01*
X+2286000Y+4953000D01*
X+2349500Y+5016500D02*
X+2349283Y+5011253D01*
X+2347518Y+5000758D01*
X+2343826Y+4990263D01*
X+2337798Y+4979768D01*
X+2328576Y+4969388D01*
X+2318081Y+4961700D01*
X+2307586Y+4956782D01*
X+2297091Y+4953976D01*
X+2286596Y+4953003D01*
X+2286000Y+4953000D01*
X+2286000Y+5080000D02*
X+2286000Y+4953000D01*
X+2222500Y+5016500D02*
X+2349500Y+5016500D01*
X+2349500Y+5270500D02*
X+2349283Y+5275747D01*
X+2347518Y+5286242D01*
X+2343826Y+5296737D01*
X+2337798Y+5307232D01*
X+2328576Y+5317612D01*
X+2318081Y+5325300D01*
X+2307586Y+5330218D01*
X+2297091Y+5333024D01*
X+2286596Y+5333997D01*
X+2286000Y+5334000D01*
X+2222500Y+5270500D02*
X+2222717Y+5275747D01*
X+2224482Y+5286242D01*
X+2228174Y+5296737D01*
X+2234202Y+5307232D01*
X+2243424Y+5317612D01*
X+2253919Y+5325300D01*
X+2264414Y+5330218D01*
X+2274909Y+5333024D01*
X+2285404Y+5333997D01*
X+2286000Y+5334000D01*
X+2222500Y+5270500D02*
X+2222717Y+5265253D01*
X+2224482Y+5254758D01*
X+2228174Y+5244263D01*
X+2234202Y+5233768D01*
X+2243424Y+5223388D01*
X+2253919Y+5215700D01*
X+2264414Y+5210782D01*
X+2274909Y+5207976D01*
X+2285404Y+5207003D01*
X+2286000Y+5207000D01*
X+2349500Y+5270500D02*
X+2349283Y+5265253D01*
X+2347518Y+5254758D01*
X+2343826Y+5244263D01*
X+2337798Y+5233768D01*
X+2328576Y+5223388D01*
X+2318081Y+5215700D01*
X+2307586Y+5210782D01*
X+2297091Y+5207976D01*
X+2286596Y+5207003D01*
X+2286000Y+5207000D01*
X+2286000Y+5334000D02*
X+2286000Y+5207000D01*
X+2222500Y+5270500D02*
X+2349500Y+5270500D01*
X+2349500Y+5524500D02*
X+2349283Y+5529747D01*
X+2347518Y+5540242D01*
X+2343826Y+5550737D01*
X+2337798Y+5561232D01*
X+2328576Y+5571612D01*
X+2318081Y+5579300D01*
X+2307586Y+5584218D01*
X+2297091Y+5587024D01*
X+2286596Y+5587997D01*
X+2286000Y+5588000D01*
X+2222500Y+5524500D02*
X+2222717Y+5529747D01*
X+2224482Y+5540242D01*
X+2228174Y+5550737D01*
X+2234202Y+5561232D01*
X+2243424Y+5571612D01*
X+2253919Y+5579300D01*
X+2264414Y+5584218D01*
X+2274909Y+5587024D01*
X+2285404Y+5587997D01*
X+2286000Y+5588000D01*
X+2222500Y+5524500D02*
X+2222717Y+5519253D01*
X+2224482Y+5508758D01*
X+2228174Y+5498263D01*
X+2234202Y+5487768D01*
X+2243424Y+5477388D01*
X+2253919Y+5469700D01*
X+2264414Y+5464782D01*
X+2274909Y+5461976D01*
X+2285404Y+5461003D01*
X+2286000Y+5461000D01*
X+2349500Y+5524500D02*
X+2349283Y+5519253D01*
X+2347518Y+5508758D01*
X+2343826Y+5498263D01*
X+2337798Y+5487768D01*
X+2328576Y+5477388D01*
X+2318081Y+5469700D01*
X+2307586Y+5464782D01*
X+2297091Y+5461976D01*
X+2286596Y+5461003D01*
X+2286000Y+5461000D01*
X+2286000Y+5588000D02*
X+2286000Y+5461000D01*
X+2222500Y+5524500D02*
X+2349500Y+5524500D01*
X+2349500Y+5778500D02*
X+2349283Y+5783747D01*
X+2347518Y+5794242D01*
X+2343826Y+5804737D01*
X+2337798Y+5815232D01*
X+2328576Y+5825612D01*
X+2318081Y+5833300D01*
X+2307586Y+5838218D01*
X+2297091Y+5841024D01*
X+2286596Y+5841997D01*
X+2286000Y+5842000D01*
X+2222500Y+5778500D02*
X+2222717Y+5783747D01*
X+2224482Y+5794242D01*
X+2228174Y+5804737D01*
X+2234202Y+5815232D01*
X+2243424Y+5825612D01*
X+2253919Y+5833300D01*
X+2264414Y+5838218D01*
X+2274909Y+5841024D01*
X+2285404Y+5841997D01*
X+2286000Y+5842000D01*
X+2222500Y+5778500D02*
X+2222717Y+5773253D01*
X+2224482Y+5762758D01*
X+2228174Y+5752263D01*
X+2234202Y+5741768D01*
X+2243424Y+5731388D01*
X+2253919Y+5723700D01*
X+2264414Y+5718782D01*
X+2274909Y+5715976D01*
X+2285404Y+5715003D01*
X+2286000Y+5715000D01*
X+2349500Y+5778500D02*
X+2349283Y+5773253D01*
X+2347518Y+5762758D01*
X+2343826Y+5752263D01*
X+2337798Y+5741768D01*
X+2328576Y+5731388D01*
X+2318081Y+5723700D01*
X+2307586Y+5718782D01*
X+2297091Y+5715976D01*
X+2286596Y+5715003D01*
X+2286000Y+5715000D01*
X+2286000Y+5842000D02*
X+2286000Y+5715000D01*
X+2222500Y+5778500D02*
X+2349500Y+5778500D01*
X+2349500Y+6032500D02*
X+2349283Y+6037747D01*
X+2347518Y+6048242D01*
X+2343826Y+6058737D01*
X+2337798Y+6069232D01*
X+2328576Y+6079612D01*
X+2318081Y+6087300D01*
X+2307586Y+6092218D01*
X+2297091Y+6095024D01*
X+2286596Y+6095997D01*
X+2286000Y+6096000D01*
X+2222500Y+6032500D02*
X+2222717Y+6037747D01*
X+2224482Y+6048242D01*
X+2228174Y+6058737D01*
X+2234202Y+6069232D01*
X+2243424Y+6079612D01*
X+2253919Y+6087300D01*
X+2264414Y+6092218D01*
X+2274909Y+6095024D01*
X+2285404Y+6095997D01*
X+2286000Y+6096000D01*
X+2222500Y+6032500D02*
X+2222717Y+6027253D01*
X+2224482Y+6016758D01*
X+2228174Y+6006263D01*
X+2234202Y+5995768D01*
X+2243424Y+5985388D01*
X+2253919Y+5977700D01*
X+2264414Y+5972782D01*
X+2274909Y+5969976D01*
X+2285404Y+5969003D01*
X+2286000Y+5969000D01*
X+2349500Y+6032500D02*
X+2349283Y+6027253D01*
X+2347518Y+6016758D01*
X+2343826Y+6006263D01*
X+2337798Y+5995768D01*
X+2328576Y+5985388D01*
X+2318081Y+5977700D01*
X+2307586Y+5972782D01*
X+2297091Y+5969976D01*
X+2286596Y+5969003D01*
X+2286000Y+5969000D01*
X+2286000Y+6096000D02*
X+2286000Y+5969000D01*
X+2222500Y+6032500D02*
X+2349500Y+6032500D01*
X+2349500Y+6286500D02*
X+2349283Y+6291747D01*
X+2347518Y+6302242D01*
X+2343826Y+6312737D01*
X+2337798Y+6323232D01*
X+2328576Y+6333612D01*
X+2318081Y+6341300D01*
X+2307586Y+6346218D01*
X+2297091Y+6349024D01*
X+2286596Y+6349997D01*
X+2286000Y+6350000D01*
X+2222500Y+6286500D02*
X+2222717Y+6291747D01*
X+2224482Y+6302242D01*
X+2228174Y+6312737D01*
X+2234202Y+6323232D01*
X+2243424Y+6333612D01*
X+2253919Y+6341300D01*
X+2264414Y+6346218D01*
X+2274909Y+6349024D01*
X+2285404Y+6349997D01*
X+2286000Y+6350000D01*
X+2222500Y+6286500D02*
X+2222717Y+6281253D01*
X+2224482Y+6270758D01*
X+2228174Y+6260263D01*
X+2234202Y+6249768D01*
X+2243424Y+6239388D01*
X+2253919Y+6231700D01*
X+2264414Y+6226782D01*
X+2274909Y+6223976D01*
X+2285404Y+6223003D01*
X+2286000Y+6223000D01*
X+2349500Y+6286500D02*
X+2349283Y+6281253D01*
X+2347518Y+6270758D01*
X+2343826Y+6260263D01*
X+2337798Y+6249768D01*
X+2328576Y+6239388D01*
X+2318081Y+6231700D01*
X+2307586Y+6226782D01*
X+2297091Y+6223976D01*
X+2286596Y+6223003D01*
X+2286000Y+6223000D01*
X+2286000Y+6350000D02*
X+2286000Y+6223000D01*
X+2222500Y+6286500D02*
X+2349500Y+6286500D01*
X+698500Y+5143500D02*
X+698500Y+5016500D01*
X+635000Y+5080000D02*
X+762000Y+5080000D01*
X+653599Y+5124901D02*
X+743401Y+5035099D01*
X+653599Y+5035099D02*
X+743401Y+5124901D01*
X+698500Y+5651500D02*
X+698500Y+5524500D01*
X+635000Y+5588000D02*
X+762000Y+5588000D01*
X+653599Y+5632901D02*
X+743401Y+5543099D01*
X+653599Y+5543099D02*
X+743401Y+5632901D01*
X-2984500Y+1333500D02*
X-2984717Y+1338747D01*
X-2986482Y+1349242D01*
X-2990174Y+1359737D01*
X-2996202Y+1370232D01*
X-3005424Y+1380612D01*
X-3015919Y+1388300D01*
X-3026414Y+1393218D01*
X-3036909Y+1396024D01*
X-3047404Y+1396997D01*
X-3048000Y+1397000D01*
X-3111500Y+1333500D02*
X-3111283Y+1338747D01*
X-3109518Y+1349242D01*
X-3105826Y+1359737D01*
X-3099798Y+1370232D01*
X-3090576Y+1380612D01*
X-3080081Y+1388300D01*
X-3069586Y+1393218D01*
X-3059091Y+1396024D01*
X-3048596Y+1396997D01*
X-3048000Y+1397000D01*
X-3111500Y+1333500D02*
X-3111283Y+1328253D01*
X-3109518Y+1317758D01*
X-3105826Y+1307263D01*
X-3099798Y+1296768D01*
X-3090576Y+1286388D01*
X-3080081Y+1278700D01*
X-3069586Y+1273782D01*
X-3059091Y+1270976D01*
X-3048596Y+1270003D01*
X-3048000Y+1270000D01*
X-2984500Y+1333500D02*
X-2984717Y+1328253D01*
X-2986482Y+1317758D01*
X-2990174Y+1307263D01*
X-2996202Y+1296768D01*
X-3005424Y+1286388D01*
X-3015919Y+1278700D01*
X-3026414Y+1273782D01*
X-3036909Y+1270976D01*
X-3047404Y+1270003D01*
X-3048000Y+1270000D01*
X-3092901Y+1378401D02*
X-3003099Y+1288599D01*
X-3092901Y+1288599D02*
X-3003099Y+1378401D01*
X-2984500Y-190500D02*
X-2984717Y-185253D01*
X-2986482Y-174758D01*
X-2990174Y-164263D01*
X-2996202Y-153768D01*
X-3005424Y-143388D01*
X-3015919Y-135700D01*
X-3026414Y-130782D01*
X-3036909Y-127976D01*
X-3047404Y-127003D01*
X-3048000Y-127000D01*
X-3111500Y-190500D02*
X-3111283Y-185253D01*
X-3109518Y-174758D01*
X-3105826Y-164263D01*
X-3099798Y-153768D01*
X-3090576Y-143388D01*
X-3080081Y-135700D01*
X-3069586Y-130782D01*
X-3059091Y-127976D01*
X-3048596Y-127003D01*
X-3048000Y-127000D01*
X-3111500Y-190500D02*
X-3111283Y-195747D01*
X-3109518Y-206242D01*
X-3105826Y-216737D01*
X-3099798Y-227232D01*
X-3090576Y-237612D01*
X-3080081Y-245300D01*
X-3069586Y-250218D01*
X-3059091Y-253024D01*
X-3048596Y-253997D01*
X-3048000Y-254000D01*
X-2984500Y-190500D02*
X-2984717Y-195747D01*
X-2986482Y-206242D01*
X-2990174Y-216737D01*
X-2996202Y-227232D01*
X-3005424Y-237612D01*
X-3015919Y-245300D01*
X-3026414Y-250218D01*
X-3036909Y-253024D01*
X-3047404Y-253997D01*
X-3048000Y-254000D01*
X-3092901Y-145599D02*
X-3003099Y-235401D01*
X-3092901Y-235401D02*
X-3003099Y-145599D01*
X-2984500Y+825500D02*
X-2984717Y+830747D01*
X-2986482Y+841242D01*
X-2990174Y+851737D01*
X-2996202Y+862232D01*
X-3005424Y+872612D01*
X-3015919Y+880300D01*
X-3026414Y+885218D01*
X-3036909Y+888024D01*
X-3047404Y+888997D01*
X-3048000Y+889000D01*
X-3111500Y+825500D02*
X-3111283Y+830747D01*
X-3109518Y+841242D01*
X-3105826Y+851737D01*
X-3099798Y+862232D01*
X-3090576Y+872612D01*
X-3080081Y+880300D01*
X-3069586Y+885218D01*
X-3059091Y+888024D01*
X-3048596Y+888997D01*
X-3048000Y+889000D01*
X-3111500Y+825500D02*
X-3111283Y+820253D01*
X-3109518Y+809758D01*
X-3105826Y+799263D01*
X-3099798Y+788768D01*
X-3090576Y+778388D01*
X-3080081Y+770700D01*
X-3069586Y+765782D01*
X-3059091Y+762976D01*
X-3048596Y+762003D01*
X-3048000Y+762000D01*
X-2984500Y+825500D02*
X-2984717Y+820253D01*
X-2986482Y+809758D01*
X-2990174Y+799263D01*
X-2996202Y+788768D01*
X-3005424Y+778388D01*
X-3015919Y+770700D01*
X-3026414Y+765782D01*
X-3036909Y+762976D01*
X-3047404Y+762003D01*
X-3048000Y+762000D01*
X-3092901Y+870401D02*
X-3003099Y+780599D01*
X-3092901Y+780599D02*
X-3003099Y+870401D01*
X-2984500Y+317500D02*
X-2984717Y+322747D01*
X-2986482Y+333242D01*
X-2990174Y+343737D01*
X-2996202Y+354232D01*
X-3005424Y+364612D01*
X-3015919Y+372300D01*
X-3026414Y+377218D01*
X-3036909Y+380024D01*
X-3047404Y+380997D01*
X-3048000Y+381000D01*
X-3111500Y+317500D02*
X-3111283Y+322747D01*
X-3109518Y+333242D01*
X-3105826Y+343737D01*
X-3099798Y+354232D01*
X-3090576Y+364612D01*
X-3080081Y+372300D01*
X-3069586Y+377218D01*
X-3059091Y+380024D01*
X-3048596Y+380997D01*
X-3048000Y+381000D01*
X-3111500Y+317500D02*
X-3111283Y+312253D01*
X-3109518Y+301758D01*
X-3105826Y+291263D01*
X-3099798Y+280768D01*
X-3090576Y+270388D01*
X-3080081Y+262700D01*
X-3069586Y+257782D01*
X-3059091Y+254976D01*
X-3048596Y+254003D01*
X-3048000Y+254000D01*
X-2984500Y+317500D02*
X-2984717Y+312253D01*
X-2986482Y+301758D01*
X-2990174Y+291263D01*
X-2996202Y+280768D01*
X-3005424Y+270388D01*
X-3015919Y+262700D01*
X-3026414Y+257782D01*
X-3036909Y+254976D01*
X-3047404Y+254003D01*
X-3048000Y+254000D01*
X-3092901Y+362401D02*
X-3003099Y+272599D01*
X-3092901Y+272599D02*
X-3003099Y+362401D01*
X-2159000Y+1333500D02*
X-2159217Y+1338747D01*
X-2160982Y+1349242D01*
X-2164674Y+1359737D01*
X-2170702Y+1370232D01*
X-2179924Y+1380612D01*
X-2190419Y+1388300D01*
X-2200914Y+1393218D01*
X-2211409Y+1396024D01*
X-2221904Y+1396997D01*
X-2222500Y+1397000D01*
X-2286000Y+1333500D02*
X-2285783Y+1338747D01*
X-2284018Y+1349242D01*
X-2280326Y+1359737D01*
X-2274298Y+1370232D01*
X-2265076Y+1380612D01*
X-2254581Y+1388300D01*
X-2244086Y+1393218D01*
X-2233591Y+1396024D01*
X-2223096Y+1396997D01*
X-2222500Y+1397000D01*
X-2286000Y+1333500D02*
X-2285783Y+1328253D01*
X-2284018Y+1317758D01*
X-2280326Y+1307263D01*
X-2274298Y+1296768D01*
X-2265076Y+1286388D01*
X-2254581Y+1278700D01*
X-2244086Y+1273782D01*
X-2233591Y+1270976D01*
X-2223096Y+1270003D01*
X-2222500Y+1270000D01*
X-2159000Y+1333500D02*
X-2159217Y+1328253D01*
X-2160982Y+1317758D01*
X-2164674Y+1307263D01*
X-2170702Y+1296768D01*
X-2179924Y+1286388D01*
X-2190419Y+1278700D01*
X-2200914Y+1273782D01*
X-2211409Y+1270976D01*
X-2221904Y+1270003D01*
X-2222500Y+1270000D01*
X-2267401Y+1378401D02*
X-2177599Y+1288599D01*
X-2267401Y+1288599D02*
X-2177599Y+1378401D01*
X-2159000Y+825500D02*
X-2159217Y+830747D01*
X-2160982Y+841242D01*
X-2164674Y+851737D01*
X-2170702Y+862232D01*
X-2179924Y+872612D01*
X-2190419Y+880300D01*
X-2200914Y+885218D01*
X-2211409Y+888024D01*
X-2221904Y+888997D01*
X-2222500Y+889000D01*
X-2286000Y+825500D02*
X-2285783Y+830747D01*
X-2284018Y+841242D01*
X-2280326Y+851737D01*
X-2274298Y+862232D01*
X-2265076Y+872612D01*
X-2254581Y+880300D01*
X-2244086Y+885218D01*
X-2233591Y+888024D01*
X-2223096Y+888997D01*
X-2222500Y+889000D01*
X-2286000Y+825500D02*
X-2285783Y+820253D01*
X-2284018Y+809758D01*
X-2280326Y+799263D01*
X-2274298Y+788768D01*
X-2265076Y+778388D01*
X-2254581Y+770700D01*
X-2244086Y+765782D01*
X-2233591Y+762976D01*
X-2223096Y+762003D01*
X-2222500Y+762000D01*
X-2159000Y+825500D02*
X-2159217Y+820253D01*
X-2160982Y+809758D01*
X-2164674Y+799263D01*
X-2170702Y+788768D01*
X-2179924Y+778388D01*
X-2190419Y+770700D01*
X-2200914Y+765782D01*
X-2211409Y+762976D01*
X-2221904Y+762003D01*
X-2222500Y+762000D01*
X-2267401Y+870401D02*
X-2177599Y+780599D01*
X-2267401Y+780599D02*
X-2177599Y+870401D01*
X-3873500Y-127000D02*
X-3873717Y-121753D01*
X-3875482Y-111258D01*
X-3879174Y-100763D01*
X-3885202Y-90268D01*
X-3894424Y-79888D01*
X-3904919Y-72200D01*
X-3915414Y-67282D01*
X-3925909Y-64476D01*
X-3936404Y-63503D01*
X-3937000Y-63500D01*
X-4000500Y-127000D02*
X-4000283Y-121753D01*
X-3998518Y-111258D01*
X-3994826Y-100763D01*
X-3988798Y-90268D01*
X-3979576Y-79888D01*
X-3969081Y-72200D01*
X-3958586Y-67282D01*
X-3948091Y-64476D01*
X-3937596Y-63503D01*
X-3937000Y-63500D01*
X-4000500Y-127000D02*
X-4000283Y-132247D01*
X-3998518Y-142742D01*
X-3994826Y-153237D01*
X-3988798Y-163732D01*
X-3979576Y-174112D01*
X-3969081Y-181800D01*
X-3958586Y-186718D01*
X-3948091Y-189524D01*
X-3937596Y-190497D01*
X-3937000Y-190500D01*
X-3873500Y-127000D02*
X-3873717Y-132247D01*
X-3875482Y-142742D01*
X-3879174Y-153237D01*
X-3885202Y-163732D01*
X-3894424Y-174112D01*
X-3904919Y-181800D01*
X-3915414Y-186718D01*
X-3925909Y-189524D01*
X-3936404Y-190497D01*
X-3937000Y-190500D01*
X-3937000Y-63500D02*
X-3937000Y-190500D01*
X-4000500Y-127000D02*
X-3873500Y-127000D01*
X-3873717Y-121753D01*
X-3875482Y-111258D01*
X-3879174Y-100763D01*
X-3885202Y-90268D01*
X-3894424Y-79888D01*
X-3904919Y-72200D01*
X-3915414Y-67282D01*
X-3925909Y-64476D01*
X-3936404Y-63503D01*
X-3937000Y-63500D01*
X-4000500Y-127000D02*
X-4000283Y-121753D01*
X-3998518Y-111258D01*
X-3994826Y-100763D01*
X-3988798Y-90268D01*
X-3979576Y-79888D01*
X-3969081Y-72200D01*
X-3958586Y-67282D01*
X-3948091Y-64476D01*
X-3937596Y-63503D01*
X-3937000Y-63500D01*
X-4000500Y-127000D02*
X-4000283Y-132247D01*
X-3998518Y-142742D01*
X-3994826Y-153237D01*
X-3988798Y-163732D01*
X-3979576Y-174112D01*
X-3969081Y-181800D01*
X-3958586Y-186718D01*
X-3948091Y-189524D01*
X-3937596Y-190497D01*
X-3937000Y-190500D01*
X-3873500Y-127000D02*
X-3873717Y-132247D01*
X-3875482Y-142742D01*
X-3879174Y-153237D01*
X-3885202Y-163732D01*
X-3894424Y-174112D01*
X-3904919Y-181800D01*
X-3915414Y-186718D01*
X-3925909Y-189524D01*
X-3936404Y-190497D01*
X-3937000Y-190500D01*
X-3981901Y-82099D02*
X-3892099Y-171901D01*
X-3981901Y-171901D02*
X-3892099Y-82099D01*
X-4381500Y-127000D02*
X-4381717Y-121753D01*
X-4383482Y-111258D01*
X-4387174Y-100763D01*
X-4393202Y-90268D01*
X-4402424Y-79888D01*
X-4412919Y-72200D01*
X-4423414Y-67282D01*
X-4433909Y-64476D01*
X-4444404Y-63503D01*
X-4445000Y-63500D01*
X-4508500Y-127000D02*
X-4508283Y-121753D01*
X-4506518Y-111258D01*
X-4502826Y-100763D01*
X-4496798Y-90268D01*
X-4487576Y-79888D01*
X-4477081Y-72200D01*
X-4466586Y-67282D01*
X-4456091Y-64476D01*
X-4445596Y-63503D01*
X-4445000Y-63500D01*
X-4508500Y-127000D02*
X-4508283Y-132247D01*
X-4506518Y-142742D01*
X-4502826Y-153237D01*
X-4496798Y-163732D01*
X-4487576Y-174112D01*
X-4477081Y-181800D01*
X-4466586Y-186718D01*
X-4456091Y-189524D01*
X-4445596Y-190497D01*
X-4445000Y-190500D01*
X-4381500Y-127000D02*
X-4381717Y-132247D01*
X-4383482Y-142742D01*
X-4387174Y-153237D01*
X-4393202Y-163732D01*
X-4402424Y-174112D01*
X-4412919Y-181800D01*
X-4423414Y-186718D01*
X-4433909Y-189524D01*
X-4444404Y-190497D01*
X-4445000Y-190500D01*
X-4445000Y-63500D02*
X-4445000Y-190500D01*
X-4508500Y-127000D02*
X-4381500Y-127000D01*
X-4381717Y-121753D01*
X-4383482Y-111258D01*
X-4387174Y-100763D01*
X-4393202Y-90268D01*
X-4402424Y-79888D01*
X-4412919Y-72200D01*
X-4423414Y-67282D01*
X-4433909Y-64476D01*
X-4444404Y-63503D01*
X-4445000Y-63500D01*
X-4508500Y-127000D02*
X-4508283Y-121753D01*
X-4506518Y-111258D01*
X-4502826Y-100763D01*
X-4496798Y-90268D01*
X-4487576Y-79888D01*
X-4477081Y-72200D01*
X-4466586Y-67282D01*
X-4456091Y-64476D01*
X-4445596Y-63503D01*
X-4445000Y-63500D01*
X-4508500Y-127000D02*
X-4508283Y-132247D01*
X-4506518Y-142742D01*
X-4502826Y-153237D01*
X-4496798Y-163732D01*
X-4487576Y-174112D01*
X-4477081Y-181800D01*
X-4466586Y-186718D01*
X-4456091Y-189524D01*
X-4445596Y-190497D01*
X-4445000Y-190500D01*
X-4381500Y-127000D02*
X-4381717Y-132247D01*
X-4383482Y-142742D01*
X-4387174Y-153237D01*
X-4393202Y-163732D01*
X-4402424Y-174112D01*
X-4412919Y-181800D01*
X-4423414Y-186718D01*
X-4433909Y-189524D01*
X-4444404Y-190497D01*
X-4445000Y-190500D01*
X-4489901Y-82099D02*
X-4400099Y-171901D01*
X-4489901Y-171901D02*
X-4400099Y-82099D01*
X-5905500Y+889000D02*
X-5905717Y+894247D01*
X-5907482Y+904742D01*
X-5911174Y+915237D01*
X-5917202Y+925732D01*
X-5926424Y+936112D01*
X-5936919Y+943800D01*
X-5947414Y+948718D01*
X-5957909Y+951524D01*
X-5968404Y+952497D01*
X-5969000Y+952500D01*
X-6032500Y+889000D02*
X-6032283Y+894247D01*
X-6030518Y+904742D01*
X-6026826Y+915237D01*
X-6020798Y+925732D01*
X-6011576Y+936112D01*
X-6001081Y+943800D01*
X-5990586Y+948718D01*
X-5980091Y+951524D01*
X-5969596Y+952497D01*
X-5969000Y+952500D01*
X-6032500Y+889000D02*
X-6032283Y+883753D01*
X-6030518Y+873258D01*
X-6026826Y+862763D01*
X-6020798Y+852268D01*
X-6011576Y+841888D01*
X-6001081Y+834200D01*
X-5990586Y+829282D01*
X-5980091Y+826476D01*
X-5969596Y+825503D01*
X-5969000Y+825500D01*
X-5905500Y+889000D02*
X-5905717Y+883753D01*
X-5907482Y+873258D01*
X-5911174Y+862763D01*
X-5917202Y+852268D01*
X-5926424Y+841888D01*
X-5936919Y+834200D01*
X-5947414Y+829282D01*
X-5957909Y+826476D01*
X-5968404Y+825503D01*
X-5969000Y+825500D01*
X-6013901Y+933901D02*
X-5924099Y+844099D01*
X-6013901Y+844099D02*
X-5924099Y+933901D01*
X-4381500Y+889000D02*
X-4381717Y+894247D01*
X-4383482Y+904742D01*
X-4387174Y+915237D01*
X-4393202Y+925732D01*
X-4402424Y+936112D01*
X-4412919Y+943800D01*
X-4423414Y+948718D01*
X-4433909Y+951524D01*
X-4444404Y+952497D01*
X-4445000Y+952500D01*
X-4508500Y+889000D02*
X-4508283Y+894247D01*
X-4506518Y+904742D01*
X-4502826Y+915237D01*
X-4496798Y+925732D01*
X-4487576Y+936112D01*
X-4477081Y+943800D01*
X-4466586Y+948718D01*
X-4456091Y+951524D01*
X-4445596Y+952497D01*
X-4445000Y+952500D01*
X-4508500Y+889000D02*
X-4508283Y+883753D01*
X-4506518Y+873258D01*
X-4502826Y+862763D01*
X-4496798Y+852268D01*
X-4487576Y+841888D01*
X-4477081Y+834200D01*
X-4466586Y+829282D01*
X-4456091Y+826476D01*
X-4445596Y+825503D01*
X-4445000Y+825500D01*
X-4381500Y+889000D02*
X-4381717Y+883753D01*
X-4383482Y+873258D01*
X-4387174Y+862763D01*
X-4393202Y+852268D01*
X-4402424Y+841888D01*
X-4412919Y+834200D01*
X-4423414Y+829282D01*
X-4433909Y+826476D01*
X-4444404Y+825503D01*
X-4445000Y+825500D01*
X-4489901Y+933901D02*
X-4400099Y+844099D01*
X-4489901Y+844099D02*
X-4400099Y+933901D01*
X-5397500Y+889000D02*
X-5397717Y+894247D01*
X-5399482Y+904742D01*
X-5403174Y+915237D01*
X-5409202Y+925732D01*
X-5418424Y+936112D01*
X-5428919Y+943800D01*
X-5439414Y+948718D01*
X-5449909Y+951524D01*
X-5460404Y+952497D01*
X-5461000Y+952500D01*
X-5524500Y+889000D02*
X-5524283Y+894247D01*
X-5522518Y+904742D01*
X-5518826Y+915237D01*
X-5512798Y+925732D01*
X-5503576Y+936112D01*
X-5493081Y+943800D01*
X-5482586Y+948718D01*
X-5472091Y+951524D01*
X-5461596Y+952497D01*
X-5461000Y+952500D01*
X-5524500Y+889000D02*
X-5524283Y+883753D01*
X-5522518Y+873258D01*
X-5518826Y+862763D01*
X-5512798Y+852268D01*
X-5503576Y+841888D01*
X-5493081Y+834200D01*
X-5482586Y+829282D01*
X-5472091Y+826476D01*
X-5461596Y+825503D01*
X-5461000Y+825500D01*
X-5397500Y+889000D02*
X-5397717Y+883753D01*
X-5399482Y+873258D01*
X-5403174Y+862763D01*
X-5409202Y+852268D01*
X-5418424Y+841888D01*
X-5428919Y+834200D01*
X-5439414Y+829282D01*
X-5449909Y+826476D01*
X-5460404Y+825503D01*
X-5461000Y+825500D01*
X-5505901Y+933901D02*
X-5416099Y+844099D01*
X-5505901Y+844099D02*
X-5416099Y+933901D01*
X-4889500Y+889000D02*
X-4889717Y+894247D01*
X-4891482Y+904742D01*
X-4895174Y+915237D01*
X-4901202Y+925732D01*
X-4910424Y+936112D01*
X-4920919Y+943800D01*
X-4931414Y+948718D01*
X-4941909Y+951524D01*
X-4952404Y+952497D01*
X-4953000Y+952500D01*
X-5016500Y+889000D02*
X-5016283Y+894247D01*
X-5014518Y+904742D01*
X-5010826Y+915237D01*
X-5004798Y+925732D01*
X-4995576Y+936112D01*
X-4985081Y+943800D01*
X-4974586Y+948718D01*
X-4964091Y+951524D01*
X-4953596Y+952497D01*
X-4953000Y+952500D01*
X-5016500Y+889000D02*
X-5016283Y+883753D01*
X-5014518Y+873258D01*
X-5010826Y+862763D01*
X-5004798Y+852268D01*
X-4995576Y+841888D01*
X-4985081Y+834200D01*
X-4974586Y+829282D01*
X-4964091Y+826476D01*
X-4953596Y+825503D01*
X-4953000Y+825500D01*
X-4889500Y+889000D02*
X-4889717Y+883753D01*
X-4891482Y+873258D01*
X-4895174Y+862763D01*
X-4901202Y+852268D01*
X-4910424Y+841888D01*
X-4920919Y+834200D01*
X-4931414Y+829282D01*
X-4941909Y+826476D01*
X-4952404Y+825503D01*
X-4953000Y+825500D01*
X-4997901Y+933901D02*
X-4908099Y+844099D01*
X-4997901Y+844099D02*
X-4908099Y+933901D01*
X-2159000Y-190500D02*
X-2159217Y-185253D01*
X-2160982Y-174758D01*
X-2164674Y-164263D01*
X-2170702Y-153768D01*
X-2179924Y-143388D01*
X-2190419Y-135700D01*
X-2200914Y-130782D01*
X-2211409Y-127976D01*
X-2221904Y-127003D01*
X-2222500Y-127000D01*
X-2286000Y-190500D02*
X-2285783Y-185253D01*
X-2284018Y-174758D01*
X-2280326Y-164263D01*
X-2274298Y-153768D01*
X-2265076Y-143388D01*
X-2254581Y-135700D01*
X-2244086Y-130782D01*
X-2233591Y-127976D01*
X-2223096Y-127003D01*
X-2222500Y-127000D01*
X-2286000Y-190500D02*
X-2285783Y-195747D01*
X-2284018Y-206242D01*
X-2280326Y-216737D01*
X-2274298Y-227232D01*
X-2265076Y-237612D01*
X-2254581Y-245300D01*
X-2244086Y-250218D01*
X-2233591Y-253024D01*
X-2223096Y-253997D01*
X-2222500Y-254000D01*
X-2159000Y-190500D02*
X-2159217Y-195747D01*
X-2160982Y-206242D01*
X-2164674Y-216737D01*
X-2170702Y-227232D01*
X-2179924Y-237612D01*
X-2190419Y-245300D01*
X-2200914Y-250218D01*
X-2211409Y-253024D01*
X-2221904Y-253997D01*
X-2222500Y-254000D01*
X-2267401Y-145599D02*
X-2177599Y-235401D01*
X-2267401Y-235401D02*
X-2177599Y-145599D01*
X-2159000Y+317500D02*
X-2159217Y+322747D01*
X-2160982Y+333242D01*
X-2164674Y+343737D01*
X-2170702Y+354232D01*
X-2179924Y+364612D01*
X-2190419Y+372300D01*
X-2200914Y+377218D01*
X-2211409Y+380024D01*
X-2221904Y+380997D01*
X-2222500Y+381000D01*
X-2286000Y+317500D02*
X-2285783Y+322747D01*
X-2284018Y+333242D01*
X-2280326Y+343737D01*
X-2274298Y+354232D01*
X-2265076Y+364612D01*
X-2254581Y+372300D01*
X-2244086Y+377218D01*
X-2233591Y+380024D01*
X-2223096Y+380997D01*
X-2222500Y+381000D01*
X-2286000Y+317500D02*
X-2285783Y+312253D01*
X-2284018Y+301758D01*
X-2280326Y+291263D01*
X-2274298Y+280768D01*
X-2265076Y+270388D01*
X-2254581Y+262700D01*
X-2244086Y+257782D01*
X-2233591Y+254976D01*
X-2223096Y+254003D01*
X-2222500Y+254000D01*
X-2159000Y+317500D02*
X-2159217Y+312253D01*
X-2160982Y+301758D01*
X-2164674Y+291263D01*
X-2170702Y+280768D01*
X-2179924Y+270388D01*
X-2190419Y+262700D01*
X-2200914Y+257782D01*
X-2211409Y+254976D01*
X-2221904Y+254003D01*
X-2222500Y+254000D01*
X-2267401Y+362401D02*
X-2177599Y+272599D01*
X-2267401Y+272599D02*
X-2177599Y+362401D01*
X+2164500Y+1587500D02*
X+2164283Y+1592747D01*
X+2162518Y+1603242D01*
X+2158826Y+1613737D01*
X+2152798Y+1624232D01*
X+2143576Y+1634612D01*
X+2133081Y+1642300D01*
X+2122586Y+1647218D01*
X+2112091Y+1650024D01*
X+2101596Y+1650997D01*
X+2101000Y+1651000D01*
X+2037500Y+1587500D02*
X+2037717Y+1592747D01*
X+2039482Y+1603242D01*
X+2043174Y+1613737D01*
X+2049202Y+1624232D01*
X+2058424Y+1634612D01*
X+2068919Y+1642300D01*
X+2079414Y+1647218D01*
X+2089909Y+1650024D01*
X+2100404Y+1650997D01*
X+2101000Y+1651000D01*
X+2037500Y+1587500D02*
X+2037717Y+1582253D01*
X+2039482Y+1571758D01*
X+2043174Y+1561263D01*
X+2049202Y+1550768D01*
X+2058424Y+1540388D01*
X+2068919Y+1532700D01*
X+2079414Y+1527782D01*
X+2089909Y+1524976D01*
X+2100404Y+1524003D01*
X+2101000Y+1524000D01*
X+2164500Y+1587500D02*
X+2164283Y+1582253D01*
X+2162518Y+1571758D01*
X+2158826Y+1561263D01*
X+2152798Y+1550768D01*
X+2143576Y+1540388D01*
X+2133081Y+1532700D01*
X+2122586Y+1527782D01*
X+2112091Y+1524976D01*
X+2101596Y+1524003D01*
X+2101000Y+1524000D01*
X+2056099Y+1632401D02*
X+2145901Y+1542599D01*
X+2056099Y+1542599D02*
X+2145901Y+1632401D01*
X+2164500Y+937500D02*
X+2164283Y+942747D01*
X+2162518Y+953242D01*
X+2158826Y+963737D01*
X+2152798Y+974232D01*
X+2143576Y+984612D01*
X+2133081Y+992300D01*
X+2122586Y+997218D01*
X+2112091Y+1000024D01*
X+2101596Y+1000997D01*
X+2101000Y+1001000D01*
X+2037500Y+937500D02*
X+2037717Y+942747D01*
X+2039482Y+953242D01*
X+2043174Y+963737D01*
X+2049202Y+974232D01*
X+2058424Y+984612D01*
X+2068919Y+992300D01*
X+2079414Y+997218D01*
X+2089909Y+1000024D01*
X+2100404Y+1000997D01*
X+2101000Y+1001000D01*
X+2037500Y+937500D02*
X+2037717Y+932253D01*
X+2039482Y+921758D01*
X+2043174Y+911263D01*
X+2049202Y+900768D01*
X+2058424Y+890388D01*
X+2068919Y+882700D01*
X+2079414Y+877782D01*
X+2089909Y+874976D01*
X+2100404Y+874003D01*
X+2101000Y+874000D01*
X+2164500Y+937500D02*
X+2164283Y+932253D01*
X+2162518Y+921758D01*
X+2158826Y+911263D01*
X+2152798Y+900768D01*
X+2143576Y+890388D01*
X+2133081Y+882700D01*
X+2122586Y+877782D01*
X+2112091Y+874976D01*
X+2101596Y+874003D01*
X+2101000Y+874000D01*
X+2056099Y+982401D02*
X+2145901Y+892599D01*
X+2056099Y+892599D02*
X+2145901Y+982401D01*
X+1714500Y+1587500D02*
X+1714283Y+1592747D01*
X+1712518Y+1603242D01*
X+1708826Y+1613737D01*
X+1702798Y+1624232D01*
X+1693576Y+1634612D01*
X+1683081Y+1642300D01*
X+1672586Y+1647218D01*
X+1662091Y+1650024D01*
X+1651596Y+1650997D01*
X+1651000Y+1651000D01*
X+1587500Y+1587500D02*
X+1587717Y+1592747D01*
X+1589482Y+1603242D01*
X+1593174Y+1613737D01*
X+1599202Y+1624232D01*
X+1608424Y+1634612D01*
X+1618919Y+1642300D01*
X+1629414Y+1647218D01*
X+1639909Y+1650024D01*
X+1650404Y+1650997D01*
X+1651000Y+1651000D01*
X+1587500Y+1587500D02*
X+1587717Y+1582253D01*
X+1589482Y+1571758D01*
X+1593174Y+1561263D01*
X+1599202Y+1550768D01*
X+1608424Y+1540388D01*
X+1618919Y+1532700D01*
X+1629414Y+1527782D01*
X+1639909Y+1524976D01*
X+1650404Y+1524003D01*
X+1651000Y+1524000D01*
X+1714500Y+1587500D02*
X+1714283Y+1582253D01*
X+1712518Y+1571758D01*
X+1708826Y+1561263D01*
X+1702798Y+1550768D01*
X+1693576Y+1540388D01*
X+1683081Y+1532700D01*
X+1672586Y+1527782D01*
X+1662091Y+1524976D01*
X+1651596Y+1524003D01*
X+1651000Y+1524000D01*
X+1606099Y+1632401D02*
X+1695901Y+1542599D01*
X+1606099Y+1542599D02*
X+1695901Y+1632401D01*
X+1714500Y+937500D02*
X+1714283Y+942747D01*
X+1712518Y+953242D01*
X+1708826Y+963737D01*
X+1702798Y+974232D01*
X+1693576Y+984612D01*
X+1683081Y+992300D01*
X+1672586Y+997218D01*
X+1662091Y+1000024D01*
X+1651596Y+1000997D01*
X+1651000Y+1001000D01*
X+1587500Y+937500D02*
X+1587717Y+942747D01*
X+1589482Y+953242D01*
X+1593174Y+963737D01*
X+1599202Y+974232D01*
X+1608424Y+984612D01*
X+1618919Y+992300D01*
X+1629414Y+997218D01*
X+1639909Y+1000024D01*
X+1650404Y+1000997D01*
X+1651000Y+1001000D01*
X+1587500Y+937500D02*
X+1587717Y+932253D01*
X+1589482Y+921758D01*
X+1593174Y+911263D01*
X+1599202Y+900768D01*
X+1608424Y+890388D01*
X+1618919Y+882700D01*
X+1629414Y+877782D01*
X+1639909Y+874976D01*
X+1650404Y+874003D01*
X+1651000Y+874000D01*
X+1714500Y+937500D02*
X+1714283Y+932253D01*
X+1712518Y+921758D01*
X+1708826Y+911263D01*
X+1702798Y+900768D01*
X+1693576Y+890388D01*
X+1683081Y+882700D01*
X+1672586Y+877782D01*
X+1662091Y+874976D01*
X+1651596Y+874003D01*
X+1651000Y+874000D01*
X+1606099Y+982401D02*
X+1695901Y+892599D01*
X+1606099Y+892599D02*
X+1695901Y+982401D01*
X-1397000Y+889000D02*
X-1397217Y+894247D01*
X-1398982Y+904742D01*
X-1402674Y+915237D01*
X-1408702Y+925732D01*
X-1417924Y+936112D01*
X-1428419Y+943800D01*
X-1438914Y+948718D01*
X-1449409Y+951524D01*
X-1459904Y+952497D01*
X-1460500Y+952500D01*
X-1524000Y+889000D02*
X-1523783Y+894247D01*
X-1522018Y+904742D01*
X-1518326Y+915237D01*
X-1512298Y+925732D01*
X-1503076Y+936112D01*
X-1492581Y+943800D01*
X-1482086Y+948718D01*
X-1471591Y+951524D01*
X-1461096Y+952497D01*
X-1460500Y+952500D01*
X-1524000Y+889000D02*
X-1523783Y+883753D01*
X-1522018Y+873258D01*
X-1518326Y+862763D01*
X-1512298Y+852268D01*
X-1503076Y+841888D01*
X-1492581Y+834200D01*
X-1482086Y+829282D01*
X-1471591Y+826476D01*
X-1461096Y+825503D01*
X-1460500Y+825500D01*
X-1397000Y+889000D02*
X-1397217Y+883753D01*
X-1398982Y+873258D01*
X-1402674Y+862763D01*
X-1408702Y+852268D01*
X-1417924Y+841888D01*
X-1428419Y+834200D01*
X-1438914Y+829282D01*
X-1449409Y+826476D01*
X-1459904Y+825503D01*
X-1460500Y+825500D01*
X-1460500Y+952500D02*
X-1460500Y+825500D01*
X-1524000Y+889000D02*
X-1397000Y+889000D01*
X-1397000Y+635000D02*
X-1397217Y+640247D01*
X-1398982Y+650742D01*
X-1402674Y+661237D01*
X-1408702Y+671732D01*
X-1417924Y+682112D01*
X-1428419Y+689800D01*
X-1438914Y+694718D01*
X-1449409Y+697524D01*
X-1459904Y+698497D01*
X-1460500Y+698500D01*
X-1524000Y+635000D02*
X-1523783Y+640247D01*
X-1522018Y+650742D01*
X-1518326Y+661237D01*
X-1512298Y+671732D01*
X-1503076Y+682112D01*
X-1492581Y+689800D01*
X-1482086Y+694718D01*
X-1471591Y+697524D01*
X-1461096Y+698497D01*
X-1460500Y+698500D01*
X-1524000Y+635000D02*
X-1523783Y+629753D01*
X-1522018Y+619258D01*
X-1518326Y+608763D01*
X-1512298Y+598268D01*
X-1503076Y+587888D01*
X-1492581Y+580200D01*
X-1482086Y+575282D01*
X-1471591Y+572476D01*
X-1461096Y+571503D01*
X-1460500Y+571500D01*
X-1397000Y+635000D02*
X-1397217Y+629753D01*
X-1398982Y+619258D01*
X-1402674Y+608763D01*
X-1408702Y+598268D01*
X-1417924Y+587888D01*
X-1428419Y+580200D01*
X-1438914Y+575282D01*
X-1449409Y+572476D01*
X-1459904Y+571503D01*
X-1460500Y+571500D01*
X-1460500Y+698500D02*
X-1460500Y+571500D01*
X-1524000Y+635000D02*
X-1397000Y+635000D01*
X-1397000Y+381000D02*
X-1397217Y+386247D01*
X-1398982Y+396742D01*
X-1402674Y+407237D01*
X-1408702Y+417732D01*
X-1417924Y+428112D01*
X-1428419Y+435800D01*
X-1438914Y+440718D01*
X-1449409Y+443524D01*
X-1459904Y+444497D01*
X-1460500Y+444500D01*
X-1524000Y+381000D02*
X-1523783Y+386247D01*
X-1522018Y+396742D01*
X-1518326Y+407237D01*
X-1512298Y+417732D01*
X-1503076Y+428112D01*
X-1492581Y+435800D01*
X-1482086Y+440718D01*
X-1471591Y+443524D01*
X-1461096Y+444497D01*
X-1460500Y+444500D01*
X-1524000Y+381000D02*
X-1523783Y+375753D01*
X-1522018Y+365258D01*
X-1518326Y+354763D01*
X-1512298Y+344268D01*
X-1503076Y+333888D01*
X-1492581Y+326200D01*
X-1482086Y+321282D01*
X-1471591Y+318476D01*
X-1461096Y+317503D01*
X-1460500Y+317500D01*
X-1397000Y+381000D02*
X-1397217Y+375753D01*
X-1398982Y+365258D01*
X-1402674Y+354763D01*
X-1408702Y+344268D01*
X-1417924Y+333888D01*
X-1428419Y+326200D01*
X-1438914Y+321282D01*
X-1449409Y+318476D01*
X-1459904Y+317503D01*
X-1460500Y+317500D01*
X-1460500Y+444500D02*
X-1460500Y+317500D01*
X-1524000Y+381000D02*
X-1397000Y+381000D01*
X-254000Y+4762500D02*
X-254000Y+4635500D01*
X-317500Y+4699000D02*
X-190500Y+4699000D01*
X-298901Y+4743901D02*
X-209099Y+4654099D01*
X-298901Y+4654099D02*
X-209099Y+4743901D01*
X-254000Y+5016500D02*
X-254000Y+4889500D01*
X-317500Y+4953000D02*
X-190500Y+4953000D01*
X-298901Y+4997901D02*
X-209099Y+4908099D01*
X-298901Y+4908099D02*
X-209099Y+4997901D01*
X+317500Y+3238500D02*
X+317500Y+3111500D01*
X+254000Y+3175000D02*
X+381000Y+3175000D01*
X+272599Y+3219901D02*
X+362401Y+3130099D01*
X+272599Y+3130099D02*
X+362401Y+3219901D01*
X+571500Y+3238500D02*
X+571500Y+3111500D01*
X+508000Y+3175000D02*
X+635000Y+3175000D01*
X+526599Y+3219901D02*
X+616401Y+3130099D01*
X+526599Y+3130099D02*
X+616401Y+3219901D01*
X-190500Y+2984500D02*
X-190500Y+2857500D01*
X-254000Y+2921000D02*
X-127000Y+2921000D01*
X-235401Y+2965901D02*
X-145599Y+2876099D01*
X-235401Y+2876099D02*
X-145599Y+2965901D01*
X+698500Y+2984500D02*
X+698500Y+2857500D01*
X+635000Y+2921000D02*
X+762000Y+2921000D01*
X+653599Y+2965901D02*
X+743401Y+2876099D01*
X+653599Y+2876099D02*
X+743401Y+2965901D01*
X+2349500Y+2794000D02*
X+2349283Y+2799247D01*
X+2347518Y+2809742D01*
X+2343826Y+2820237D01*
X+2337798Y+2830732D01*
X+2328576Y+2841112D01*
X+2318081Y+2848800D01*
X+2307586Y+2853718D01*
X+2297091Y+2856524D01*
X+2286596Y+2857497D01*
X+2286000Y+2857500D01*
X+2222500Y+2794000D02*
X+2222717Y+2799247D01*
X+2224482Y+2809742D01*
X+2228174Y+2820237D01*
X+2234202Y+2830732D01*
X+2243424Y+2841112D01*
X+2253919Y+2848800D01*
X+2264414Y+2853718D01*
X+2274909Y+2856524D01*
X+2285404Y+2857497D01*
X+2286000Y+2857500D01*
X+2222500Y+2794000D02*
X+2222717Y+2788753D01*
X+2224482Y+2778258D01*
X+2228174Y+2767763D01*
X+2234202Y+2757268D01*
X+2243424Y+2746888D01*
X+2253919Y+2739200D01*
X+2264414Y+2734282D01*
X+2274909Y+2731476D01*
X+2285404Y+2730503D01*
X+2286000Y+2730500D01*
X+2349500Y+2794000D02*
X+2349283Y+2788753D01*
X+2347518Y+2778258D01*
X+2343826Y+2767763D01*
X+2337798Y+2757268D01*
X+2328576Y+2746888D01*
X+2318081Y+2739200D01*
X+2307586Y+2734282D01*
X+2297091Y+2731476D01*
X+2286596Y+2730503D01*
X+2286000Y+2730500D01*
X+2286000Y+2857500D02*
X+2286000Y+2730500D01*
X+2222500Y+2794000D02*
X+2349500Y+2794000D01*
X+2349500Y+2540000D02*
X+2349283Y+2545247D01*
X+2347518Y+2555742D01*
X+2343826Y+2566237D01*
X+2337798Y+2576732D01*
X+2328576Y+2587112D01*
X+2318081Y+2594800D01*
X+2307586Y+2599718D01*
X+2297091Y+2602524D01*
X+2286596Y+2603497D01*
X+2286000Y+2603500D01*
X+2222500Y+2540000D02*
X+2222717Y+2545247D01*
X+2224482Y+2555742D01*
X+2228174Y+2566237D01*
X+2234202Y+2576732D01*
X+2243424Y+2587112D01*
X+2253919Y+2594800D01*
X+2264414Y+2599718D01*
X+2274909Y+2602524D01*
X+2285404Y+2603497D01*
X+2286000Y+2603500D01*
X+2222500Y+2540000D02*
X+2222717Y+2534753D01*
X+2224482Y+2524258D01*
X+2228174Y+2513763D01*
X+2234202Y+2503268D01*
X+2243424Y+2492888D01*
X+2253919Y+2485200D01*
X+2264414Y+2480282D01*
X+2274909Y+2477476D01*
X+2285404Y+2476503D01*
X+2286000Y+2476500D01*
X+2349500Y+2540000D02*
X+2349283Y+2534753D01*
X+2347518Y+2524258D01*
X+2343826Y+2513763D01*
X+2337798Y+2503268D01*
X+2328576Y+2492888D01*
X+2318081Y+2485200D01*
X+2307586Y+2480282D01*
X+2297091Y+2477476D01*
X+2286596Y+2476503D01*
X+2286000Y+2476500D01*
X+2286000Y+2603500D02*
X+2286000Y+2476500D01*
X+2222500Y+2540000D02*
X+2349500Y+2540000D01*
X+2349500Y+2286000D02*
X+2349283Y+2291247D01*
X+2347518Y+2301742D01*
X+2343826Y+2312237D01*
X+2337798Y+2322732D01*
X+2328576Y+2333112D01*
X+2318081Y+2340800D01*
X+2307586Y+2345718D01*
X+2297091Y+2348524D01*
X+2286596Y+2349497D01*
X+2286000Y+2349500D01*
X+2222500Y+2286000D02*
X+2222717Y+2291247D01*
X+2224482Y+2301742D01*
X+2228174Y+2312237D01*
X+2234202Y+2322732D01*
X+2243424Y+2333112D01*
X+2253919Y+2340800D01*
X+2264414Y+2345718D01*
X+2274909Y+2348524D01*
X+2285404Y+2349497D01*
X+2286000Y+2349500D01*
X+2222500Y+2286000D02*
X+2222717Y+2280753D01*
X+2224482Y+2270258D01*
X+2228174Y+2259763D01*
X+2234202Y+2249268D01*
X+2243424Y+2238888D01*
X+2253919Y+2231200D01*
X+2264414Y+2226282D01*
X+2274909Y+2223476D01*
X+2285404Y+2222503D01*
X+2286000Y+2222500D01*
X+2349500Y+2286000D02*
X+2349283Y+2280753D01*
X+2347518Y+2270258D01*
X+2343826Y+2259763D01*
X+2337798Y+2249268D01*
X+2328576Y+2238888D01*
X+2318081Y+2231200D01*
X+2307586Y+2226282D01*
X+2297091Y+2223476D01*
X+2286596Y+2222503D01*
X+2286000Y+2222500D01*
X+2286000Y+2349500D02*
X+2286000Y+2222500D01*
X+2222500Y+2286000D02*
X+2349500Y+2286000D01*
X-6731000Y+2095500D02*
X-6731000Y+1968500D01*
X-6794500Y+2032000D02*
X-6667500Y+2032000D01*
X-6775901Y+2076901D02*
X-6686099Y+1987099D01*
X-6775901Y+1987099D02*
X-6686099Y+2076901D01*
X-6731000Y+2857500D02*
X-6731000Y+2730500D01*
X-6794500Y+2794000D02*
X-6667500Y+2794000D01*
X-6775901Y+2838901D02*
X-6686099Y+2749099D01*
X-6775901Y+2749099D02*
X-6686099Y+2838901D01*
X-6731000Y+3873500D02*
X-6731000Y+3746500D01*
X-6794500Y+3810000D02*
X-6667500Y+3810000D01*
X-6775901Y+3854901D02*
X-6686099Y+3765099D01*
X-6775901Y+3765099D02*
X-6686099Y+3854901D01*
X-6731000Y+4635500D02*
X-6731000Y+4508500D01*
X-6794500Y+4572000D02*
X-6667500Y+4572000D01*
X-6775901Y+4616901D02*
X-6686099Y+4527099D01*
X-6775901Y+4527099D02*
X-6686099Y+4616901D01*
X-6731000Y+5651500D02*
X-6731000Y+5524500D01*
X-6794500Y+5588000D02*
X-6667500Y+5588000D01*
X-6775901Y+5632901D02*
X-6686099Y+5543099D01*
X-6775901Y+5543099D02*
X-6686099Y+5632901D01*
X-6731000Y+6413500D02*
X-6731000Y+6286500D01*
X-6794500Y+6350000D02*
X-6667500Y+6350000D01*
X-6775901Y+6394901D02*
X-6686099Y+6305099D01*
X-6775901Y+6305099D02*
X-6686099Y+6394901D01*
X-6093460Y+6944360D02*
X-6093460Y+6817360D01*
X-6156960Y+6880860D02*
X-6029960Y+6880860D01*
X-6138361Y+6925761D02*
X-6048559Y+6835959D01*
X-6138361Y+6835959D02*
X-6048559Y+6925761D01*
X-5331460Y+6944360D02*
X-5331460Y+6817360D01*
X-5394960Y+6880860D02*
X-5267960Y+6880860D01*
X-5376361Y+6925761D02*
X-5286559Y+6835959D01*
X-5376361Y+6835959D02*
X-5286559Y+6925761D01*
X-5077460Y+6944360D02*
X-5077460Y+6817360D01*
X-5140960Y+6880860D02*
X-5013960Y+6880860D01*
X-5122361Y+6925761D02*
X-5032559Y+6835959D01*
X-5122361Y+6835959D02*
X-5032559Y+6925761D01*
X-4315460Y+6944360D02*
X-4315460Y+6817360D01*
X-4378960Y+6880860D02*
X-4251960Y+6880860D01*
X-4360361Y+6925761D02*
X-4270559Y+6835959D01*
X-4360361Y+6835959D02*
X-4270559Y+6925761D01*
X-4061460Y+6944360D02*
X-4061460Y+6817360D01*
X-4124960Y+6880860D02*
X-3997960Y+6880860D01*
X-4106361Y+6925761D02*
X-4016559Y+6835959D01*
X-4106361Y+6835959D02*
X-4016559Y+6925761D01*
X-3299460Y+6944360D02*
X-3299460Y+6817360D01*
X-3362960Y+6880860D02*
X-3235960Y+6880860D01*
X-3344361Y+6925761D02*
X-3254559Y+6835959D01*
X-3344361Y+6835959D02*
X-3254559Y+6925761D01*
X-4826000Y+6032500D02*
X-4826000Y+5905500D01*
X-4889500Y+5969000D02*
X-4762500Y+5969000D01*
X-4870901Y+6013901D02*
X-4781099Y+5924099D01*
X-4870901Y+5924099D02*
X-4781099Y+6013901D01*
X-5588000Y+6032500D02*
X-5588000Y+5905500D01*
X-5651500Y+5969000D02*
X-5524500Y+5969000D01*
X-5632901Y+6013901D02*
X-5543099Y+5924099D01*
X-5632901Y+5924099D02*
X-5543099Y+6013901D01*
X+389000Y+889000D02*
X+389000Y+762000D01*
X+325500Y+825500D02*
X+452500Y+825500D01*
X+344099Y+870401D02*
X+433901Y+780599D01*
X+344099Y+780599D02*
X+433901Y+870401D01*
X+389000Y+1139000D02*
X+389000Y+1012000D01*
X+325500Y+1075500D02*
X+452500Y+1075500D01*
X+344099Y+1120401D02*
X+433901Y+1030599D01*
X+344099Y+1030599D02*
X+433901Y+1120401D01*
X+389000Y+1389000D02*
X+389000Y+1262000D01*
X+325500Y+1325500D02*
X+452500Y+1325500D01*
X+344099Y+1370401D02*
X+433901Y+1280599D01*
X+344099Y+1280599D02*
X+433901Y+1370401D01*
X+889000Y+1389000D02*
X+889000Y+1262000D01*
X+825500Y+1325500D02*
X+952500Y+1325500D01*
X+844099Y+1370401D02*
X+933901Y+1280599D01*
X+844099Y+1280599D02*
X+933901Y+1370401D01*
X+889000Y+1139000D02*
X+889000Y+1012000D01*
X+825500Y+1075500D02*
X+952500Y+1075500D01*
X+844099Y+1120401D02*
X+933901Y+1030599D01*
X+844099Y+1030599D02*
X+933901Y+1120401D01*
X+889000Y+889000D02*
X+889000Y+762000D01*
X+825500Y+825500D02*
X+952500Y+825500D01*
X+844099Y+870401D02*
X+933901Y+780599D01*
X+844099Y+780599D02*
X+933901Y+870401D01*
X+1397000Y+5143500D02*
X+1397000Y+5016500D01*
X+1333500Y+5080000D02*
X+1460500Y+5080000D01*
X+1352099Y+5124901D02*
X+1441901Y+5035099D01*
X+1352099Y+5035099D02*
X+1441901Y+5124901D01*
X+1143000Y+5143500D02*
X+1143000Y+5016500D01*
X+1079500Y+5080000D02*
X+1206500Y+5080000D01*
X+1098099Y+5124901D02*
X+1187901Y+5035099D01*
X+1098099Y+5035099D02*
X+1187901Y+5124901D01*
X+1397000Y+5651500D02*
X+1397000Y+5524500D01*
X+1333500Y+5588000D02*
X+1460500Y+5588000D01*
X+1352099Y+5632901D02*
X+1441901Y+5543099D01*
X+1352099Y+5543099D02*
X+1441901Y+5632901D01*
X+1143000Y+5651500D02*
X+1143000Y+5524500D01*
X+1079500Y+5588000D02*
X+1206500Y+5588000D01*
X+1098099Y+5632901D02*
X+1187901Y+5543099D01*
X+1098099Y+5543099D02*
X+1187901Y+5632901D01*
X+1778000Y+6794500D02*
X+1778000Y+6667500D01*
X+1714500Y+6731000D02*
X+1841500Y+6731000D01*
X+1733099Y+6775901D02*
X+1822901Y+6686099D01*
X+1733099Y+6686099D02*
X+1822901Y+6775901D01*
X+1778000Y+7556500D02*
X+1778000Y+7429500D01*
X+1714500Y+7493000D02*
X+1841500Y+7493000D01*
X+1733099Y+7537901D02*
X+1822901Y+7448099D01*
X+1733099Y+7448099D02*
X+1822901Y+7537901D01*
X+2349500Y+3302000D02*
X+2349283Y+3307247D01*
X+2347518Y+3317742D01*
X+2343826Y+3328237D01*
X+2337798Y+3338732D01*
X+2328576Y+3349112D01*
X+2318081Y+3356800D01*
X+2307586Y+3361718D01*
X+2297091Y+3364524D01*
X+2286596Y+3365497D01*
X+2286000Y+3365500D01*
X+2222500Y+3302000D02*
X+2222717Y+3307247D01*
X+2224482Y+3317742D01*
X+2228174Y+3328237D01*
X+2234202Y+3338732D01*
X+2243424Y+3349112D01*
X+2253919Y+3356800D01*
X+2264414Y+3361718D01*
X+2274909Y+3364524D01*
X+2285404Y+3365497D01*
X+2286000Y+3365500D01*
X+2222500Y+3302000D02*
X+2222717Y+3296753D01*
X+2224482Y+3286258D01*
X+2228174Y+3275763D01*
X+2234202Y+3265268D01*
X+2243424Y+3254888D01*
X+2253919Y+3247200D01*
X+2264414Y+3242282D01*
X+2274909Y+3239476D01*
X+2285404Y+3238503D01*
X+2286000Y+3238500D01*
X+2349500Y+3302000D02*
X+2349283Y+3296753D01*
X+2347518Y+3286258D01*
X+2343826Y+3275763D01*
X+2337798Y+3265268D01*
X+2328576Y+3254888D01*
X+2318081Y+3247200D01*
X+2307586Y+3242282D01*
X+2297091Y+3239476D01*
X+2286596Y+3238503D01*
X+2286000Y+3238500D01*
X+2286000Y+3365500D02*
X+2286000Y+3238500D01*
X+2222500Y+3302000D02*
X+2349500Y+3302000D01*
X+2349500Y+3556000D02*
X+2349283Y+3561247D01*
X+2347518Y+3571742D01*
X+2343826Y+3582237D01*
X+2337798Y+3592732D01*
X+2328576Y+3603112D01*
X+2318081Y+3610800D01*
X+2307586Y+3615718D01*
X+2297091Y+3618524D01*
X+2286596Y+3619497D01*
X+2286000Y+3619500D01*
X+2222500Y+3556000D02*
X+2222717Y+3561247D01*
X+2224482Y+3571742D01*
X+2228174Y+3582237D01*
X+2234202Y+3592732D01*
X+2243424Y+3603112D01*
X+2253919Y+3610800D01*
X+2264414Y+3615718D01*
X+2274909Y+3618524D01*
X+2285404Y+3619497D01*
X+2286000Y+3619500D01*
X+2222500Y+3556000D02*
X+2222717Y+3550753D01*
X+2224482Y+3540258D01*
X+2228174Y+3529763D01*
X+2234202Y+3519268D01*
X+2243424Y+3508888D01*
X+2253919Y+3501200D01*
X+2264414Y+3496282D01*
X+2274909Y+3493476D01*
X+2285404Y+3492503D01*
X+2286000Y+3492500D01*
X+2349500Y+3556000D02*
X+2349283Y+3550753D01*
X+2347518Y+3540258D01*
X+2343826Y+3529763D01*
X+2337798Y+3519268D01*
X+2328576Y+3508888D01*
X+2318081Y+3501200D01*
X+2307586Y+3496282D01*
X+2297091Y+3493476D01*
X+2286596Y+3492503D01*
X+2286000Y+3492500D01*
X+2286000Y+3619500D02*
X+2286000Y+3492500D01*
X+2222500Y+3556000D02*
X+2349500Y+3556000D01*
X+2349500Y+3810000D02*
X+2349283Y+3815247D01*
X+2347518Y+3825742D01*
X+2343826Y+3836237D01*
X+2337798Y+3846732D01*
X+2328576Y+3857112D01*
X+2318081Y+3864800D01*
X+2307586Y+3869718D01*
X+2297091Y+3872524D01*
X+2286596Y+3873497D01*
X+2286000Y+3873500D01*
X+2222500Y+3810000D02*
X+2222717Y+3815247D01*
X+2224482Y+3825742D01*
X+2228174Y+3836237D01*
X+2234202Y+3846732D01*
X+2243424Y+3857112D01*
X+2253919Y+3864800D01*
X+2264414Y+3869718D01*
X+2274909Y+3872524D01*
X+2285404Y+3873497D01*
X+2286000Y+3873500D01*
X+2222500Y+3810000D02*
X+2222717Y+3804753D01*
X+2224482Y+3794258D01*
X+2228174Y+3783763D01*
X+2234202Y+3773268D01*
X+2243424Y+3762888D01*
X+2253919Y+3755200D01*
X+2264414Y+3750282D01*
X+2274909Y+3747476D01*
X+2285404Y+3746503D01*
X+2286000Y+3746500D01*
X+2349500Y+3810000D02*
X+2349283Y+3804753D01*
X+2347518Y+3794258D01*
X+2343826Y+3783763D01*
X+2337798Y+3773268D01*
X+2328576Y+3762888D01*
X+2318081Y+3755200D01*
X+2307586Y+3750282D01*
X+2297091Y+3747476D01*
X+2286596Y+3746503D01*
X+2286000Y+3746500D01*
X+2286000Y+3873500D02*
X+2286000Y+3746500D01*
X+2222500Y+3810000D02*
X+2349500Y+3810000D01*
X+2349500Y+4064000D02*
X+2349283Y+4069247D01*
X+2347518Y+4079742D01*
X+2343826Y+4090237D01*
X+2337798Y+4100732D01*
X+2328576Y+4111112D01*
X+2318081Y+4118800D01*
X+2307586Y+4123718D01*
X+2297091Y+4126524D01*
X+2286596Y+4127497D01*
X+2286000Y+4127500D01*
X+2222500Y+4064000D02*
X+2222717Y+4069247D01*
X+2224482Y+4079742D01*
X+2228174Y+4090237D01*
X+2234202Y+4100732D01*
X+2243424Y+4111112D01*
X+2253919Y+4118800D01*
X+2264414Y+4123718D01*
X+2274909Y+4126524D01*
X+2285404Y+4127497D01*
X+2286000Y+4127500D01*
X+2222500Y+4064000D02*
X+2222717Y+4058753D01*
X+2224482Y+4048258D01*
X+2228174Y+4037763D01*
X+2234202Y+4027268D01*
X+2243424Y+4016888D01*
X+2253919Y+4009200D01*
X+2264414Y+4004282D01*
X+2274909Y+4001476D01*
X+2285404Y+4000503D01*
X+2286000Y+4000500D01*
X+2349500Y+4064000D02*
X+2349283Y+4058753D01*
X+2347518Y+4048258D01*
X+2343826Y+4037763D01*
X+2337798Y+4027268D01*
X+2328576Y+4016888D01*
X+2318081Y+4009200D01*
X+2307586Y+4004282D01*
X+2297091Y+4001476D01*
X+2286596Y+4000503D01*
X+2286000Y+4000500D01*
X+2286000Y+4127500D02*
X+2286000Y+4000500D01*
X+2222500Y+4064000D02*
X+2349500Y+4064000D01*
X+2349500Y+4318000D02*
X+2349283Y+4323247D01*
X+2347518Y+4333742D01*
X+2343826Y+4344237D01*
X+2337798Y+4354732D01*
X+2328576Y+4365112D01*
X+2318081Y+4372800D01*
X+2307586Y+4377718D01*
X+2297091Y+4380524D01*
X+2286596Y+4381497D01*
X+2286000Y+4381500D01*
X+2222500Y+4318000D02*
X+2222717Y+4323247D01*
X+2224482Y+4333742D01*
X+2228174Y+4344237D01*
X+2234202Y+4354732D01*
X+2243424Y+4365112D01*
X+2253919Y+4372800D01*
X+2264414Y+4377718D01*
X+2274909Y+4380524D01*
X+2285404Y+4381497D01*
X+2286000Y+4381500D01*
X+2222500Y+4318000D02*
X+2222717Y+4312753D01*
X+2224482Y+4302258D01*
X+2228174Y+4291763D01*
X+2234202Y+4281268D01*
X+2243424Y+4270888D01*
X+2253919Y+4263200D01*
X+2264414Y+4258282D01*
X+2274909Y+4255476D01*
X+2285404Y+4254503D01*
X+2286000Y+4254500D01*
X+2349500Y+4318000D02*
X+2349283Y+4312753D01*
X+2347518Y+4302258D01*
X+2343826Y+4291763D01*
X+2337798Y+4281268D01*
X+2328576Y+4270888D01*
X+2318081Y+4263200D01*
X+2307586Y+4258282D01*
X+2297091Y+4255476D01*
X+2286596Y+4254503D01*
X+2286000Y+4254500D01*
X+2286000Y+4381500D02*
X+2286000Y+4254500D01*
X+2222500Y+4318000D02*
X+2349500Y+4318000D01*
X+2349500Y+4572000D02*
X+2349283Y+4577247D01*
X+2347518Y+4587742D01*
X+2343826Y+4598237D01*
X+2337798Y+4608732D01*
X+2328576Y+4619112D01*
X+2318081Y+4626800D01*
X+2307586Y+4631718D01*
X+2297091Y+4634524D01*
X+2286596Y+4635497D01*
X+2286000Y+4635500D01*
X+2222500Y+4572000D02*
X+2222717Y+4577247D01*
X+2224482Y+4587742D01*
X+2228174Y+4598237D01*
X+2234202Y+4608732D01*
X+2243424Y+4619112D01*
X+2253919Y+4626800D01*
X+2264414Y+4631718D01*
X+2274909Y+4634524D01*
X+2285404Y+4635497D01*
X+2286000Y+4635500D01*
X+2222500Y+4572000D02*
X+2222717Y+4566753D01*
X+2224482Y+4556258D01*
X+2228174Y+4545763D01*
X+2234202Y+4535268D01*
X+2243424Y+4524888D01*
X+2253919Y+4517200D01*
X+2264414Y+4512282D01*
X+2274909Y+4509476D01*
X+2285404Y+4508503D01*
X+2286000Y+4508500D01*
X+2349500Y+4572000D02*
X+2349283Y+4566753D01*
X+2347518Y+4556258D01*
X+2343826Y+4545763D01*
X+2337798Y+4535268D01*
X+2328576Y+4524888D01*
X+2318081Y+4517200D01*
X+2307586Y+4512282D01*
X+2297091Y+4509476D01*
X+2286596Y+4508503D01*
X+2286000Y+4508500D01*
X+2286000Y+4635500D02*
X+2286000Y+4508500D01*
X+2222500Y+4572000D02*
X+2349500Y+4572000D01*
X+1651000Y+3873500D02*
X+1651000Y+3746500D01*
X+1587500Y+3810000D02*
X+1714500Y+3810000D01*
X+1606099Y+3854901D02*
X+1695901Y+3765099D01*
X+1606099Y+3765099D02*
X+1695901Y+3854901D01*
X+1651000Y+2984500D02*
X+1651000Y+2857500D01*
X+1587500Y+2921000D02*
X+1714500Y+2921000D01*
X+1606099Y+2965901D02*
X+1695901Y+2876099D01*
X+1606099Y+2876099D02*
X+1695901Y+2965901D01*
X-2584901Y+2203901D02*
X-2495099Y+2114099D01*
X-2584901Y+2114099D02*
X-2495099Y+2203901D01*
X-2540000Y+2476500D02*
X-2540000Y+2349500D01*
X-2603500Y+2413000D02*
X-2476500Y+2413000D01*
X-2584901Y+2457901D02*
X-2495099Y+2368099D01*
X-2584901Y+2368099D02*
X-2495099Y+2457901D01*
X-3302000Y+2476500D02*
X-3302000Y+2349500D01*
X-3365500Y+2413000D02*
X-3238500Y+2413000D01*
X-3346901Y+2457901D02*
X-3257099Y+2368099D01*
X-3346901Y+2368099D02*
X-3257099Y+2457901D01*
X-3302000Y+2222500D02*
X-3302000Y+2095500D01*
X-3365500Y+2159000D02*
X-3238500Y+2159000D01*
X-3346901Y+2203901D02*
X-3257099Y+2114099D01*
X-3346901Y+2114099D02*
X-3257099Y+2203901D01*
X-3937000Y+1968500D02*
X-3937000Y+1841500D01*
X-4000500Y+1905000D02*
X-3873500Y+1905000D01*
X-3981901Y+1949901D02*
X-3892099Y+1860099D01*
X-3981901Y+1860099D02*
X-3892099Y+1949901D01*
X-3048000Y+1968500D02*
X-3048000Y+1841500D01*
X-3111500Y+1905000D02*
X-2984500Y+1905000D01*
X-3092901Y+1949901D02*
X-3003099Y+1860099D01*
X-3092901Y+1860099D02*
X-3003099Y+1949901D01*
X-2794000Y+1968500D02*
X-2794000Y+1841500D01*
X-2857500Y+1905000D02*
X-2730500Y+1905000D01*
X-2838901Y+1949901D02*
X-2749099Y+1860099D01*
X-2838901Y+1860099D02*
X-2749099Y+1949901D01*
X-1905000Y+1968500D02*
X-1905000Y+1841500D01*
X-1968500Y+1905000D02*
X-1841500Y+1905000D01*
X-1949901Y+1949901D02*
X-1860099Y+1860099D01*
X-1949901Y+1860099D02*
X-1860099Y+1949901D01*
X-2584901Y+2965901D02*
X-2495099Y+2876099D01*
X-2584901Y+2876099D02*
X-2495099Y+2965901D01*
X-2540000Y+3238500D02*
X-2540000Y+3111500D01*
X-2603500Y+3175000D02*
X-2476500Y+3175000D01*
X-2584901Y+3219901D02*
X-2495099Y+3130099D01*
X-2584901Y+3130099D02*
X-2495099Y+3219901D01*
X-3302000Y+3238500D02*
X-3302000Y+3111500D01*
X-3365500Y+3175000D02*
X-3238500Y+3175000D01*
X-3346901Y+3219901D02*
X-3257099Y+3130099D01*
X-3346901Y+3130099D02*
X-3257099Y+3219901D01*
X-3302000Y+2984500D02*
X-3302000Y+2857500D01*
X-3365500Y+2921000D02*
X-3238500Y+2921000D01*
X-3346901Y+2965901D02*
X-3257099Y+2876099D01*
X-3346901Y+2876099D02*
X-3257099Y+2965901D01*
X-3937000Y+2730500D02*
X-3937000Y+2603500D01*
X-4000500Y+2667000D02*
X-3873500Y+2667000D01*
X-3981901Y+2711901D02*
X-3892099Y+2622099D01*
X-3981901Y+2622099D02*
X-3892099Y+2711901D01*
X-3048000Y+2730500D02*
X-3048000Y+2603500D01*
X-3111500Y+2667000D02*
X-2984500Y+2667000D01*
X-3092901Y+2711901D02*
X-3003099Y+2622099D01*
X-3092901Y+2622099D02*
X-3003099Y+2711901D01*
X-2794000Y+2730500D02*
X-2794000Y+2603500D01*
X-2857500Y+2667000D02*
X-2730500Y+2667000D01*
X-2838901Y+2711901D02*
X-2749099Y+2622099D01*
X-2838901Y+2622099D02*
X-2749099Y+2711901D01*
X-1905000Y+2730500D02*
X-1905000Y+2603500D01*
X-1968500Y+2667000D02*
X-1841500Y+2667000D01*
X-1949901Y+2711901D02*
X-1860099Y+2622099D01*
X-1949901Y+2622099D02*
X-1860099Y+2711901D01*
X-2584901Y+3727901D02*
X-2495099Y+3638099D01*
X-2584901Y+3638099D02*
X-2495099Y+3727901D01*
X-2540000Y+4000500D02*
X-2540000Y+3873500D01*
X-2603500Y+3937000D02*
X-2476500Y+3937000D01*
X-2584901Y+3981901D02*
X-2495099Y+3892099D01*
X-2584901Y+3892099D02*
X-2495099Y+3981901D01*
X-3302000Y+4000500D02*
X-3302000Y+3873500D01*
X-3365500Y+3937000D02*
X-3238500Y+3937000D01*
X-3346901Y+3981901D02*
X-3257099Y+3892099D01*
X-3346901Y+3892099D02*
X-3257099Y+3981901D01*
X-3302000Y+3746500D02*
X-3302000Y+3619500D01*
X-3365500Y+3683000D02*
X-3238500Y+3683000D01*
X-3346901Y+3727901D02*
X-3257099Y+3638099D01*
X-3346901Y+3638099D02*
X-3257099Y+3727901D01*
X-3937000Y+3492500D02*
X-3937000Y+3365500D01*
X-4000500Y+3429000D02*
X-3873500Y+3429000D01*
X-3981901Y+3473901D02*
X-3892099Y+3384099D01*
X-3981901Y+3384099D02*
X-3892099Y+3473901D01*
X-3048000Y+3492500D02*
X-3048000Y+3365500D01*
X-3111500Y+3429000D02*
X-2984500Y+3429000D01*
X-3092901Y+3473901D02*
X-3003099Y+3384099D01*
X-3092901Y+3384099D02*
X-3003099Y+3473901D01*
X-2794000Y+3492500D02*
X-2794000Y+3365500D01*
X-2857500Y+3429000D02*
X-2730500Y+3429000D01*
X-2838901Y+3473901D02*
X-2749099Y+3384099D01*
X-2838901Y+3384099D02*
X-2749099Y+3473901D01*
X-1905000Y+3492500D02*
X-1905000Y+3365500D01*
X-1968500Y+3429000D02*
X-1841500Y+3429000D01*
X-1949901Y+3473901D02*
X-1860099Y+3384099D01*
X-1949901Y+3384099D02*
X-1860099Y+3473901D01*
X-2584901Y+4489901D02*
X-2495099Y+4400099D01*
X-2584901Y+4400099D02*
X-2495099Y+4489901D01*
X-2540000Y+4762500D02*
X-2540000Y+4635500D01*
X-2603500Y+4699000D02*
X-2476500Y+4699000D01*
X-2584901Y+4743901D02*
X-2495099Y+4654099D01*
X-2584901Y+4654099D02*
X-2495099Y+4743901D01*
X-3302000Y+4762500D02*
X-3302000Y+4635500D01*
X-3365500Y+4699000D02*
X-3238500Y+4699000D01*
X-3346901Y+4743901D02*
X-3257099Y+4654099D01*
X-3346901Y+4654099D02*
X-3257099Y+4743901D01*
X-3302000Y+4508500D02*
X-3302000Y+4381500D01*
X-3365500Y+4445000D02*
X-3238500Y+4445000D01*
X-3346901Y+4489901D02*
X-3257099Y+4400099D01*
X-3346901Y+4400099D02*
X-3257099Y+4489901D01*
X-3937000Y+4254500D02*
X-3937000Y+4127500D01*
X-4000500Y+4191000D02*
X-3873500Y+4191000D01*
X-3981901Y+4235901D02*
X-3892099Y+4146099D01*
X-3981901Y+4146099D02*
X-3892099Y+4235901D01*
X-3048000Y+4254500D02*
X-3048000Y+4127500D01*
X-3111500Y+4191000D02*
X-2984500Y+4191000D01*
X-3092901Y+4235901D02*
X-3003099Y+4146099D01*
X-3092901Y+4146099D02*
X-3003099Y+4235901D01*
X-2794000Y+4254500D02*
X-2794000Y+4127500D01*
X-2857500Y+4191000D02*
X-2730500Y+4191000D01*
X-2838901Y+4235901D02*
X-2749099Y+4146099D01*
X-2838901Y+4146099D02*
X-2749099Y+4235901D01*
X-1905000Y+4254500D02*
X-1905000Y+4127500D01*
X-1968500Y+4191000D02*
X-1841500Y+4191000D01*
X-1949901Y+4235901D02*
X-1860099Y+4146099D01*
X-1949901Y+4146099D02*
X-1860099Y+4235901D01*
X-2584901Y+5251901D02*
X-2495099Y+5162099D01*
X-2584901Y+5162099D02*
X-2495099Y+5251901D01*
X-2540000Y+5524500D02*
X-2540000Y+5397500D01*
X-2603500Y+5461000D02*
X-2476500Y+5461000D01*
X-2584901Y+5505901D02*
X-2495099Y+5416099D01*
X-2584901Y+5416099D02*
X-2495099Y+5505901D01*
X-3302000Y+5524500D02*
X-3302000Y+5397500D01*
X-3365500Y+5461000D02*
X-3238500Y+5461000D01*
X-3346901Y+5505901D02*
X-3257099Y+5416099D01*
X-3346901Y+5416099D02*
X-3257099Y+5505901D01*
X-3302000Y+5270500D02*
X-3302000Y+5143500D01*
X-3365500Y+5207000D02*
X-3238500Y+5207000D01*
X-3346901Y+5251901D02*
X-3257099Y+5162099D01*
X-3346901Y+5162099D02*
X-3257099Y+5251901D01*
X-3937000Y+5016500D02*
X-3937000Y+4889500D01*
X-4000500Y+4953000D02*
X-3873500Y+4953000D01*
X-3981901Y+4997901D02*
X-3892099Y+4908099D01*
X-3981901Y+4908099D02*
X-3892099Y+4997901D01*
X-3048000Y+5016500D02*
X-3048000Y+4889500D01*
X-3111500Y+4953000D02*
X-2984500Y+4953000D01*
X-3092901Y+4997901D02*
X-3003099Y+4908099D01*
X-3092901Y+4908099D02*
X-3003099Y+4997901D01*
X-2794000Y+5016500D02*
X-2794000Y+4889500D01*
X-2857500Y+4953000D02*
X-2730500Y+4953000D01*
X-2838901Y+4997901D02*
X-2749099Y+4908099D01*
X-2838901Y+4908099D02*
X-2749099Y+4997901D01*
X-1905000Y+5016500D02*
X-1905000Y+4889500D01*
X-1968500Y+4953000D02*
X-1841500Y+4953000D01*
X-1949901Y+4997901D02*
X-1860099Y+4908099D01*
X-1949901Y+4908099D02*
X-1860099Y+4997901D01*
X-2584901Y+6140901D02*
X-2495099Y+6051099D01*
X-2584901Y+6051099D02*
X-2495099Y+6140901D01*
X-2540000Y+6413500D02*
X-2540000Y+6286500D01*
X-2603500Y+6350000D02*
X-2476500Y+6350000D01*
X-2584901Y+6394901D02*
X-2495099Y+6305099D01*
X-2584901Y+6305099D02*
X-2495099Y+6394901D01*
X-3302000Y+6413500D02*
X-3302000Y+6286500D01*
X-3365500Y+6350000D02*
X-3238500Y+6350000D01*
X-3346901Y+6394901D02*
X-3257099Y+6305099D01*
X-3346901Y+6305099D02*
X-3257099Y+6394901D01*
X-3302000Y+6159500D02*
X-3302000Y+6032500D01*
X-3365500Y+6096000D02*
X-3238500Y+6096000D01*
X-3346901Y+6140901D02*
X-3257099Y+6051099D01*
X-3346901Y+6051099D02*
X-3257099Y+6140901D01*
X-3937000Y+5778500D02*
X-3937000Y+5651500D01*
X-4000500Y+5715000D02*
X-3873500Y+5715000D01*
X-3981901Y+5759901D02*
X-3892099Y+5670099D01*
X-3981901Y+5670099D02*
X-3892099Y+5759901D01*
X-3048000Y+5778500D02*
X-3048000Y+5651500D01*
X-3111500Y+5715000D02*
X-2984500Y+5715000D01*
X-3092901Y+5759901D02*
X-3003099Y+5670099D01*
X-3092901Y+5670099D02*
X-3003099Y+5759901D01*
X-2794000Y+5778500D02*
X-2794000Y+5651500D01*
X-2857500Y+5715000D02*
X-2730500Y+5715000D01*
X-2838901Y+5759901D02*
X-2749099Y+5670099D01*
X-2838901Y+5670099D02*
X-2749099Y+5759901D01*
X-1905000Y+5778500D02*
X-1905000Y+5651500D01*
X-1968500Y+5715000D02*
X-1841500Y+5715000D01*
X-1949901Y+5759901D02*
X-1860099Y+5670099D01*
X-1949901Y+5670099D02*
X-1860099Y+5759901D01*
X-4889500Y-127000D02*
X-4889717Y-121753D01*
X-4891482Y-111258D01*
X-4895174Y-100763D01*
X-4901202Y-90268D01*
X-4910424Y-79888D01*
X-4920919Y-72200D01*
X-4931414Y-67282D01*
X-4941909Y-64476D01*
X-4952404Y-63503D01*
X-4953000Y-63500D01*
X-5016500Y-127000D02*
X-5016283Y-121753D01*
X-5014518Y-111258D01*
X-5010826Y-100763D01*
X-5004798Y-90268D01*
X-4995576Y-79888D01*
X-4985081Y-72200D01*
X-4974586Y-67282D01*
X-4964091Y-64476D01*
X-4953596Y-63503D01*
X-4953000Y-63500D01*
X-5016500Y-127000D02*
X-5016283Y-132247D01*
X-5014518Y-142742D01*
X-5010826Y-153237D01*
X-5004798Y-163732D01*
X-4995576Y-174112D01*
X-4985081Y-181800D01*
X-4974586Y-186718D01*
X-4964091Y-189524D01*
X-4953596Y-190497D01*
X-4953000Y-190500D01*
X-4889500Y-127000D02*
X-4889717Y-132247D01*
X-4891482Y-142742D01*
X-4895174Y-153237D01*
X-4901202Y-163732D01*
X-4910424Y-174112D01*
X-4920919Y-181800D01*
X-4931414Y-186718D01*
X-4941909Y-189524D01*
X-4952404Y-190497D01*
X-4953000Y-190500D01*
X-4953000Y-63500D02*
X-4953000Y-190500D01*
X-5016500Y-127000D02*
X-4889500Y-127000D01*
X-4889717Y-121753D01*
X-4891482Y-111258D01*
X-4895174Y-100763D01*
X-4901202Y-90268D01*
X-4910424Y-79888D01*
X-4920919Y-72200D01*
X-4931414Y-67282D01*
X-4941909Y-64476D01*
X-4952404Y-63503D01*
X-4953000Y-63500D01*
X-5016500Y-127000D02*
X-5016283Y-121753D01*
X-5014518Y-111258D01*
X-5010826Y-100763D01*
X-5004798Y-90268D01*
X-4995576Y-79888D01*
X-4985081Y-72200D01*
X-4974586Y-67282D01*
X-4964091Y-64476D01*
X-4953596Y-63503D01*
X-4953000Y-63500D01*
X-5016500Y-127000D02*
X-5016283Y-132247D01*
X-5014518Y-142742D01*
X-5010826Y-153237D01*
X-5004798Y-163732D01*
X-4995576Y-174112D01*
X-4985081Y-181800D01*
X-4974586Y-186718D01*
X-4964091Y-189524D01*
X-4953596Y-190497D01*
X-4953000Y-190500D01*
X-4889500Y-127000D02*
X-4889717Y-132247D01*
X-4891482Y-142742D01*
X-4895174Y-153237D01*
X-4901202Y-163732D01*
X-4910424Y-174112D01*
X-4920919Y-181800D01*
X-4931414Y-186718D01*
X-4941909Y-189524D01*
X-4952404Y-190497D01*
X-4953000Y-190500D01*
X-4997901Y-82099D02*
X-4908099Y-171901D01*
X-4997901Y-171901D02*
X-4908099Y-82099D01*
X-5397500Y-127000D02*
X-5397717Y-121753D01*
X-5399482Y-111258D01*
X-5403174Y-100763D01*
X-5409202Y-90268D01*
X-5418424Y-79888D01*
X-5428919Y-72200D01*
X-5439414Y-67282D01*
X-5449909Y-64476D01*
X-5460404Y-63503D01*
X-5461000Y-63500D01*
X-5524500Y-127000D02*
X-5524283Y-121753D01*
X-5522518Y-111258D01*
X-5518826Y-100763D01*
X-5512798Y-90268D01*
X-5503576Y-79888D01*
X-5493081Y-72200D01*
X-5482586Y-67282D01*
X-5472091Y-64476D01*
X-5461596Y-63503D01*
X-5461000Y-63500D01*
X-5524500Y-127000D02*
X-5524283Y-132247D01*
X-5522518Y-142742D01*
X-5518826Y-153237D01*
X-5512798Y-163732D01*
X-5503576Y-174112D01*
X-5493081Y-181800D01*
X-5482586Y-186718D01*
X-5472091Y-189524D01*
X-5461596Y-190497D01*
X-5461000Y-190500D01*
X-5397500Y-127000D02*
X-5397717Y-132247D01*
X-5399482Y-142742D01*
X-5403174Y-153237D01*
X-5409202Y-163732D01*
X-5418424Y-174112D01*
X-5428919Y-181800D01*
X-5439414Y-186718D01*
X-5449909Y-189524D01*
X-5460404Y-190497D01*
X-5461000Y-190500D01*
X-5461000Y-63500D02*
X-5461000Y-190500D01*
X-5524500Y-127000D02*
X-5397500Y-127000D01*
X-5397717Y-121753D01*
X-5399482Y-111258D01*
X-5403174Y-100763D01*
X-5409202Y-90268D01*
X-5418424Y-79888D01*
X-5428919Y-72200D01*
X-5439414Y-67282D01*
X-5449909Y-64476D01*
X-5460404Y-63503D01*
X-5461000Y-63500D01*
X-5524500Y-127000D02*
X-5524283Y-121753D01*
X-5522518Y-111258D01*
X-5518826Y-100763D01*
X-5512798Y-90268D01*
X-5503576Y-79888D01*
X-5493081Y-72200D01*
X-5482586Y-67282D01*
X-5472091Y-64476D01*
X-5461596Y-63503D01*
X-5461000Y-63500D01*
X-5524500Y-127000D02*
X-5524283Y-132247D01*
X-5522518Y-142742D01*
X-5518826Y-153237D01*
X-5512798Y-163732D01*
X-5503576Y-174112D01*
X-5493081Y-181800D01*
X-5482586Y-186718D01*
X-5472091Y-189524D01*
X-5461596Y-190497D01*
X-5461000Y-190500D01*
X-5397500Y-127000D02*
X-5397717Y-132247D01*
X-5399482Y-142742D01*
X-5403174Y-153237D01*
X-5409202Y-163732D01*
X-5418424Y-174112D01*
X-5428919Y-181800D01*
X-5439414Y-186718D01*
X-5449909Y-189524D01*
X-5460404Y-190497D01*
X-5461000Y-190500D01*
X-5505901Y-82099D02*
X-5416099Y-171901D01*
X-5505901Y-171901D02*
X-5416099Y-82099D01*
X+513899Y+7156901D02*
X+603701Y+7067099D01*
X+513899Y+7067099D02*
X+603701Y+7156901D01*
X+717099Y+7156901D02*
X+806901Y+7067099D01*
X+717099Y+7067099D02*
X+806901Y+7156901D01*
X+920299Y+7156901D02*
X+1010101Y+7067099D01*
X+920299Y+7067099D02*
X+1010101Y+7156901D01*
X+1143000Y+6794500D02*
X+1143000Y+6667500D01*
X+1079500Y+6731000D02*
X+1206500Y+6731000D01*
X+1098099Y+6775901D02*
X+1187901Y+6686099D01*
X+1098099Y+6686099D02*
X+1187901Y+6775901D01*
X+254000Y+6794500D02*
X+254000Y+6667500D01*
X+190500Y+6731000D02*
X+317500Y+6731000D01*
X+209099Y+6775901D02*
X+298901Y+6686099D01*
X+209099Y+6686099D02*
X+298901Y+6775901D01*
X+825500Y+381000D02*
X+825283Y+386247D01*
X+823518Y+396742D01*
X+819826Y+407237D01*
X+813798Y+417732D01*
X+804576Y+428112D01*
X+794081Y+435800D01*
X+783586Y+440718D01*
X+773091Y+443524D01*
X+762596Y+444497D01*
X+762000Y+444500D01*
X+698500Y+381000D02*
X+698717Y+386247D01*
X+700482Y+396742D01*
X+704174Y+407237D01*
X+710202Y+417732D01*
X+719424Y+428112D01*
X+729919Y+435800D01*
X+740414Y+440718D01*
X+750909Y+443524D01*
X+761404Y+444497D01*
X+762000Y+444500D01*
X+698500Y+381000D02*
X+698717Y+375753D01*
X+700482Y+365258D01*
X+704174Y+354763D01*
X+710202Y+344268D01*
X+719424Y+333888D01*
X+729919Y+326200D01*
X+740414Y+321282D01*
X+750909Y+318476D01*
X+761404Y+317503D01*
X+762000Y+317500D01*
X+825500Y+381000D02*
X+825283Y+375753D01*
X+823518Y+365258D01*
X+819826Y+354763D01*
X+813798Y+344268D01*
X+804576Y+333888D01*
X+794081Y+326200D01*
X+783586Y+321282D01*
X+773091Y+318476D01*
X+762596Y+317503D01*
X+762000Y+317500D01*
X+762000Y+444500D02*
X+762000Y+317500D01*
X+698500Y+381000D02*
X+825500Y+381000D01*
X+571500Y+381000D02*
X+571283Y+386247D01*
X+569518Y+396742D01*
X+565826Y+407237D01*
X+559798Y+417732D01*
X+550576Y+428112D01*
X+540081Y+435800D01*
X+529586Y+440718D01*
X+519091Y+443524D01*
X+508596Y+444497D01*
X+508000Y+444500D01*
X+444500Y+381000D02*
X+444717Y+386247D01*
X+446482Y+396742D01*
X+450174Y+407237D01*
X+456202Y+417732D01*
X+465424Y+428112D01*
X+475919Y+435800D01*
X+486414Y+440718D01*
X+496909Y+443524D01*
X+507404Y+444497D01*
X+508000Y+444500D01*
X+444500Y+381000D02*
X+444717Y+375753D01*
X+446482Y+365258D01*
X+450174Y+354763D01*
X+456202Y+344268D01*
X+465424Y+333888D01*
X+475919Y+326200D01*
X+486414Y+321282D01*
X+496909Y+318476D01*
X+507404Y+317503D01*
X+508000Y+317500D01*
X+571500Y+381000D02*
X+571283Y+375753D01*
X+569518Y+365258D01*
X+565826Y+354763D01*
X+559798Y+344268D01*
X+550576Y+333888D01*
X+540081Y+326200D01*
X+529586Y+321282D01*
X+519091Y+318476D01*
X+508596Y+317503D01*
X+508000Y+317500D01*
X+508000Y+444500D02*
X+508000Y+317500D01*
X+444500Y+381000D02*
X+571500Y+381000D01*
X+1206500Y+1206500D02*
X+1206500Y+1079500D01*
X+1143000Y+1143000D02*
X+1270000Y+1143000D01*
X+1161599Y+1187901D02*
X+1251401Y+1098099D01*
X+1161599Y+1098099D02*
X+1251401Y+1187901D01*
X+1206500Y+317500D02*
X+1206500Y+190500D01*
X+1143000Y+254000D02*
X+1270000Y+254000D01*
X+1161599Y+298901D02*
X+1251401Y+209099D01*
X+1161599Y+209099D02*
X+1251401Y+298901D01*
X-4635500Y+1397000D02*
X-4635717Y+1402247D01*
X-4637482Y+1412742D01*
X-4641174Y+1423237D01*
X-4647202Y+1433732D01*
X-4656424Y+1444112D01*
X-4666919Y+1451800D01*
X-4677414Y+1456718D01*
X-4687909Y+1459524D01*
X-4698404Y+1460497D01*
X-4699000Y+1460500D01*
X-4762500Y+1397000D02*
X-4762283Y+1402247D01*
X-4760518Y+1412742D01*
X-4756826Y+1423237D01*
X-4750798Y+1433732D01*
X-4741576Y+1444112D01*
X-4731081Y+1451800D01*
X-4720586Y+1456718D01*
X-4710091Y+1459524D01*
X-4699596Y+1460497D01*
X-4699000Y+1460500D01*
X-4762500Y+1397000D02*
X-4762283Y+1391753D01*
X-4760518Y+1381258D01*
X-4756826Y+1370763D01*
X-4750798Y+1360268D01*
X-4741576Y+1349888D01*
X-4731081Y+1342200D01*
X-4720586Y+1337282D01*
X-4710091Y+1334476D01*
X-4699596Y+1333503D01*
X-4699000Y+1333500D01*
X-4635500Y+1397000D02*
X-4635717Y+1391753D01*
X-4637482Y+1381258D01*
X-4641174Y+1370763D01*
X-4647202Y+1360268D01*
X-4656424Y+1349888D01*
X-4666919Y+1342200D01*
X-4677414Y+1337282D01*
X-4687909Y+1334476D01*
X-4698404Y+1333503D01*
X-4699000Y+1333500D01*
X-4699000Y+1460500D02*
X-4699000Y+1333500D01*
X-4762500Y+1397000D02*
X-4635500Y+1397000D01*
X-4381500Y+1397000D02*
X-4381717Y+1402247D01*
X-4383482Y+1412742D01*
X-4387174Y+1423237D01*
X-4393202Y+1433732D01*
X-4402424Y+1444112D01*
X-4412919Y+1451800D01*
X-4423414Y+1456718D01*
X-4433909Y+1459524D01*
X-4444404Y+1460497D01*
X-4445000Y+1460500D01*
X-4508500Y+1397000D02*
X-4508283Y+1402247D01*
X-4506518Y+1412742D01*
X-4502826Y+1423237D01*
X-4496798Y+1433732D01*
X-4487576Y+1444112D01*
X-4477081Y+1451800D01*
X-4466586Y+1456718D01*
X-4456091Y+1459524D01*
X-4445596Y+1460497D01*
X-4445000Y+1460500D01*
X-4508500Y+1397000D02*
X-4508283Y+1391753D01*
X-4506518Y+1381258D01*
X-4502826Y+1370763D01*
X-4496798Y+1360268D01*
X-4487576Y+1349888D01*
X-4477081Y+1342200D01*
X-4466586Y+1337282D01*
X-4456091Y+1334476D01*
X-4445596Y+1333503D01*
X-4445000Y+1333500D01*
X-4381500Y+1397000D02*
X-4381717Y+1391753D01*
X-4383482Y+1381258D01*
X-4387174Y+1370763D01*
X-4393202Y+1360268D01*
X-4402424Y+1349888D01*
X-4412919Y+1342200D01*
X-4423414Y+1337282D01*
X-4433909Y+1334476D01*
X-4444404Y+1333503D01*
X-4445000Y+1333500D01*
X-4445000Y+1460500D02*
X-4445000Y+1333500D01*
X-4508500Y+1397000D02*
X-4381500Y+1397000D01*
X-5969000Y+1460500D02*
X-5969000Y+1333500D01*
X-6032500Y+1397000D02*
X-5905500Y+1397000D01*
X-6013901Y+1441901D02*
X-5924099Y+1352099D01*
X-6013901Y+1352099D02*
X-5924099Y+1441901D01*
X-5080000Y+1460500D02*
X-5080000Y+1333500D01*
X-5143500Y+1397000D02*
X-5016500Y+1397000D01*
X-5124901Y+1441901D02*
X-5035099Y+1352099D01*
X-5124901Y+1352099D02*
X-5035099Y+1441901D01*
X-7485000Y+952500D02*
X-7485000Y+825500D01*
X-7548500Y+889000D02*
X-7421500Y+889000D01*
X-7529901Y+933901D02*
X-7440099Y+844099D01*
X-7529901Y+844099D02*
X-7440099Y+933901D01*
X-6985000Y+952500D02*
X-6985000Y+825500D01*
X-7048500Y+889000D02*
X-6921500Y+889000D01*
X-7029901Y+933901D02*
X-6940099Y+844099D01*
X-7029901Y+844099D02*
X-6940099Y+933901D01*
X-8985000Y+952500D02*
X-8985000Y+825500D01*
X-9048500Y+889000D02*
X-8921500Y+889000D01*
X-9029901Y+933901D02*
X-8940099Y+844099D01*
X-9029901Y+844099D02*
X-8940099Y+933901D01*
X-8485000Y+952500D02*
X-8485000Y+825500D01*
X-8548500Y+889000D02*
X-8421500Y+889000D01*
X-8529901Y+933901D02*
X-8440099Y+844099D01*
X-8529901Y+844099D02*
X-8440099Y+933901D01*
X-7429500Y-127000D02*
X-7429717Y-121753D01*
X-7431482Y-111258D01*
X-7435174Y-100763D01*
X-7441202Y-90268D01*
X-7450424Y-79888D01*
X-7460919Y-72200D01*
X-7471414Y-67282D01*
X-7481909Y-64476D01*
X-7492404Y-63503D01*
X-7493000Y-63500D01*
X-7556500Y-127000D02*
X-7556283Y-121753D01*
X-7554518Y-111258D01*
X-7550826Y-100763D01*
X-7544798Y-90268D01*
X-7535576Y-79888D01*
X-7525081Y-72200D01*
X-7514586Y-67282D01*
X-7504091Y-64476D01*
X-7493596Y-63503D01*
X-7493000Y-63500D01*
X-7556500Y-127000D02*
X-7556283Y-132247D01*
X-7554518Y-142742D01*
X-7550826Y-153237D01*
X-7544798Y-163732D01*
X-7535576Y-174112D01*
X-7525081Y-181800D01*
X-7514586Y-186718D01*
X-7504091Y-189524D01*
X-7493596Y-190497D01*
X-7493000Y-190500D01*
X-7429500Y-127000D02*
X-7429717Y-132247D01*
X-7431482Y-142742D01*
X-7435174Y-153237D01*
X-7441202Y-163732D01*
X-7450424Y-174112D01*
X-7460919Y-181800D01*
X-7471414Y-186718D01*
X-7481909Y-189524D01*
X-7492404Y-190497D01*
X-7493000Y-190500D01*
X-7493000Y-63500D02*
X-7493000Y-190500D01*
X-7556500Y-127000D02*
X-7429500Y-127000D01*
X-7429717Y-121753D01*
X-7431482Y-111258D01*
X-7435174Y-100763D01*
X-7441202Y-90268D01*
X-7450424Y-79888D01*
X-7460919Y-72200D01*
X-7471414Y-67282D01*
X-7481909Y-64476D01*
X-7492404Y-63503D01*
X-7493000Y-63500D01*
X-7556500Y-127000D02*
X-7556283Y-121753D01*
X-7554518Y-111258D01*
X-7550826Y-100763D01*
X-7544798Y-90268D01*
X-7535576Y-79888D01*
X-7525081Y-72200D01*
X-7514586Y-67282D01*
X-7504091Y-64476D01*
X-7493596Y-63503D01*
X-7493000Y-63500D01*
X-7556500Y-127000D02*
X-7556283Y-132247D01*
X-7554518Y-142742D01*
X-7550826Y-153237D01*
X-7544798Y-163732D01*
X-7535576Y-174112D01*
X-7525081Y-181800D01*
X-7514586Y-186718D01*
X-7504091Y-189524D01*
X-7493596Y-190497D01*
X-7493000Y-190500D01*
X-7429500Y-127000D02*
X-7429717Y-132247D01*
X-7431482Y-142742D01*
X-7435174Y-153237D01*
X-7441202Y-163732D01*
X-7450424Y-174112D01*
X-7460919Y-181800D01*
X-7471414Y-186718D01*
X-7481909Y-189524D01*
X-7492404Y-190497D01*
X-7493000Y-190500D01*
X-7537901Y-82099D02*
X-7448099Y-171901D01*
X-7537901Y-171901D02*
X-7448099Y-82099D01*
X-7937500Y-127000D02*
X-7937717Y-121753D01*
X-7939482Y-111258D01*
X-7943174Y-100763D01*
X-7949202Y-90268D01*
X-7958424Y-79888D01*
X-7968919Y-72200D01*
X-7979414Y-67282D01*
X-7989909Y-64476D01*
X-8000404Y-63503D01*
X-8001000Y-63500D01*
X-8064500Y-127000D02*
X-8064283Y-121753D01*
X-8062518Y-111258D01*
X-8058826Y-100763D01*
X-8052798Y-90268D01*
X-8043576Y-79888D01*
X-8033081Y-72200D01*
X-8022586Y-67282D01*
X-8012091Y-64476D01*
X-8001596Y-63503D01*
X-8001000Y-63500D01*
X-8064500Y-127000D02*
X-8064283Y-132247D01*
X-8062518Y-142742D01*
X-8058826Y-153237D01*
X-8052798Y-163732D01*
X-8043576Y-174112D01*
X-8033081Y-181800D01*
X-8022586Y-186718D01*
X-8012091Y-189524D01*
X-8001596Y-190497D01*
X-8001000Y-190500D01*
X-7937500Y-127000D02*
X-7937717Y-132247D01*
X-7939482Y-142742D01*
X-7943174Y-153237D01*
X-7949202Y-163732D01*
X-7958424Y-174112D01*
X-7968919Y-181800D01*
X-7979414Y-186718D01*
X-7989909Y-189524D01*
X-8000404Y-190497D01*
X-8001000Y-190500D01*
X-8001000Y-63500D02*
X-8001000Y-190500D01*
X-8064500Y-127000D02*
X-7937500Y-127000D01*
X-7937717Y-121753D01*
X-7939482Y-111258D01*
X-7943174Y-100763D01*
X-7949202Y-90268D01*
X-7958424Y-79888D01*
X-7968919Y-72200D01*
X-7979414Y-67282D01*
X-7989909Y-64476D01*
X-8000404Y-63503D01*
X-8001000Y-63500D01*
X-8064500Y-127000D02*
X-8064283Y-121753D01*
X-8062518Y-111258D01*
X-8058826Y-100763D01*
X-8052798Y-90268D01*
X-8043576Y-79888D01*
X-8033081Y-72200D01*
X-8022586Y-67282D01*
X-8012091Y-64476D01*
X-8001596Y-63503D01*
X-8001000Y-63500D01*
X-8064500Y-127000D02*
X-8064283Y-132247D01*
X-8062518Y-142742D01*
X-8058826Y-153237D01*
X-8052798Y-163732D01*
X-8043576Y-174112D01*
X-8033081Y-181800D01*
X-8022586Y-186718D01*
X-8012091Y-189524D01*
X-8001596Y-190497D01*
X-8001000Y-190500D01*
X-7937500Y-127000D02*
X-7937717Y-132247D01*
X-7939482Y-142742D01*
X-7943174Y-153237D01*
X-7949202Y-163732D01*
X-7958424Y-174112D01*
X-7968919Y-181800D01*
X-7979414Y-186718D01*
X-7989909Y-189524D01*
X-8000404Y-190497D01*
X-8001000Y-190500D01*
X-8045901Y-82099D02*
X-7956099Y-171901D01*
X-8045901Y-171901D02*
X-7956099Y-82099D01*
X+1968500Y+2603500D02*
X+1968500Y+2476500D01*
X+1905000Y+2540000D02*
X+2032000Y+2540000D01*
X+1923599Y+2584901D02*
X+2013401Y+2495099D01*
X+1923599Y+2495099D02*
X+2013401Y+2584901D01*
X+1968500Y+2349500D02*
X+1968500Y+2222500D01*
X+1905000Y+2286000D02*
X+2032000Y+2286000D01*
X+1923599Y+2330901D02*
X+2013401Y+2241099D01*
X+1923599Y+2241099D02*
X+2013401Y+2330901D01*
X-10223500Y+7620000D02*
X-10223500Y+7493000D01*
X-10287000Y+7556500D02*
X-10160000Y+7556500D01*
X-10287000Y+7493000D02*
X-10160000Y+7493000D01*
X-10160000Y+7620000D01*
X-10287000Y+7620000D01*
X-10287000Y+7493000D01*
X-10223500Y-190500D02*
X-10223500Y-317500D01*
X-10287000Y-254000D02*
X-10160000Y-254000D01*
X-10287000Y-317500D02*
X-10160000Y-317500D01*
X-10160000Y-190500D01*
X-10287000Y-190500D01*
X-10287000Y-317500D01*
X+2794000Y+7620000D02*
X+2794000Y+7493000D01*
X+2730500Y+7556500D02*
X+2857500Y+7556500D01*
X+2730500Y+7493000D02*
X+2857500Y+7493000D01*
X+2857500Y+7620000D01*
X+2730500Y+7620000D01*
X+2730500Y+7493000D01*
X+2794000Y-190500D02*
X+2794000Y-317500D01*
X+2730500Y-254000D02*
X+2857500Y-254000D01*
X+2730500Y-317500D02*
X+2857500Y-317500D01*
X+2857500Y-190500D01*
X+2730500Y-190500D01*
X+2730500Y-317500D01*
X-11049000Y-889000D02*
X+3365500Y-889000D01*
X+3365500Y+8128000D01*
X-11049000Y+8128000D01*
X-11049000Y-889000D01*
D55*
X-11059160Y-3136900D02*
X-8415020Y-3136900D01*
X-8415020Y-1168400D01*
X-11059160Y-1168400D01*
X-11059160Y-3136900D01*
D56*
X-10591798Y-1168400D02*
X-10591798Y-3136900D01*
X-9778998Y-1168400D02*
X-9778998Y-3136900D01*
X-8945878Y-1168400D02*
X-8945878Y-3136900D01*
X-11059160Y-1441450D02*
X-8415020Y-1441450D01*
X-11059160Y-1682750D02*
X-8415020Y-1682750D01*
X-11059160Y-1924050D02*
X-8415020Y-1924050D01*
X-11059160Y-2165350D02*
X-8415020Y-2165350D01*
X-11059160Y-2406650D02*
X-8415020Y-2406650D01*
X-11059160Y-2647950D02*
X-8415020Y-2647950D01*
X-11059160Y-2889250D02*
X-8415020Y-2889250D01*
D55*
X-11002010Y-1332230D02*
X-10986770Y-1347470D01*
X-10925810Y-1347470D01*
X-10910570Y-1332230D01*
X-10910570Y-1316990D01*
X-10925810Y-1301750D01*
X-10986770Y-1301750D01*
X-11002010Y-1286510D01*
X-11002010Y-1271270D01*
X-10986770Y-1256030D01*
X-10925810Y-1256030D01*
X-10910570Y-1271270D01*
X-10788650Y-1256030D02*
X-10880090Y-1347470D01*
X-10880090Y-1256030D02*
X-10834370Y-1301750D01*
X-10758170Y-1347470D02*
X-10758170Y-1256030D01*
X-10712450Y-1301750D01*
X-10666730Y-1256030D01*
X-10666730Y-1347470D01*
X-10534650Y-1332230D02*
X-10519410Y-1347470D01*
X-10458450Y-1347470D01*
X-10443210Y-1332230D01*
X-10443210Y-1316990D01*
X-10458450Y-1301750D01*
X-10519410Y-1301750D01*
X-10534650Y-1286510D01*
X-10534650Y-1271270D01*
X-10519410Y-1256030D01*
X-10458450Y-1256030D01*
X-10443210Y-1271270D01*
X-10397490Y-1256030D02*
X-10336530Y-1256030D01*
X-10367010Y-1256030D02*
X-10367010Y-1347470D01*
X-10397490Y-1347470D02*
X-10336530Y-1347470D01*
X-10290810Y-1256030D02*
X-10199370Y-1256030D01*
X-10290810Y-1347470D01*
X-10199370Y-1347470D01*
X-10077450Y-1347470D02*
X-10168890Y-1347470D01*
X-10168890Y-1256030D01*
X-10077450Y-1256030D01*
X-10168890Y-1301750D02*
X-10107930Y-1301750D01*
X-9721850Y-1347470D02*
X-9721850Y-1256030D01*
X-9645650Y-1256030D01*
X-9630410Y-1271270D01*
X-9630410Y-1286510D01*
X-9645650Y-1301750D01*
X-9721850Y-1301750D01*
X-9599930Y-1256030D02*
X-9599930Y-1347470D01*
X-9508490Y-1347470D01*
X-9478010Y-1347470D02*
X-9478010Y-1286510D01*
X-9447530Y-1256030D01*
X-9417050Y-1256030D01*
X-9386570Y-1286510D01*
X-9386570Y-1347470D01*
X-9478010Y-1316990D02*
X-9386570Y-1316990D01*
X-9356090Y-1256030D02*
X-9264650Y-1256030D01*
X-9310370Y-1256030D02*
X-9310370Y-1347470D01*
X-9142730Y-1347470D02*
X-9234170Y-1347470D01*
X-9234170Y-1256030D01*
X-9142730Y-1256030D01*
X-9234170Y-1301750D02*
X-9173210Y-1301750D01*
X-9112250Y-1347470D02*
X-9112250Y-1256030D01*
X-9051290Y-1256030D01*
X-9020810Y-1286510D01*
X-9020810Y-1316990D01*
X-9051290Y-1347470D01*
X-9112250Y-1347470D01*
X-8888730Y-1286510D02*
X-8858250Y-1256030D01*
X-8827770Y-1256030D01*
X-8797290Y-1286510D01*
X-8797290Y-1316990D01*
X-8827770Y-1347470D01*
X-8858250Y-1347470D01*
X-8888730Y-1316990D01*
X-8888730Y-1286510D01*
X-8827770Y-1316990D02*
X-8797290Y-1347470D01*
X-8766810Y-1256030D02*
X-8675370Y-1256030D01*
X-8721090Y-1256030D02*
X-8721090Y-1347470D01*
X-8553450Y-1256030D02*
X-8644890Y-1347470D01*
X-8644890Y-1256030D02*
X-8599170Y-1301750D01*
D20*
X-10812780Y-1492250D02*
X-10812780Y-1619250D01*
X-10876280Y-1555750D02*
X-10749280Y-1555750D01*
D55*
X-10515600Y-1581150D02*
X-10515600Y-1530350D01*
X-10502900Y-1517650D01*
X-10452100Y-1517650D01*
X-10439400Y-1530350D01*
X-10439400Y-1581150D01*
X-10452100Y-1593850D01*
X-10502900Y-1593850D01*
X-10515600Y-1581150D01*
X-10515600Y-1593850D02*
X-10439400Y-1517650D01*
X-10375900Y-1581150D02*
X-10363200Y-1581150D01*
X-10363200Y-1593850D01*
X-10375900Y-1593850D01*
X-10375900Y-1581150D01*
X-10236200Y-1517650D02*
X-10299700Y-1517650D01*
X-10299700Y-1543050D01*
X-10248900Y-1543050D01*
X-10236200Y-1555750D01*
X-10236200Y-1581150D01*
X-10248900Y-1593850D01*
X-10287000Y-1593850D01*
X-10299700Y-1581150D01*
X-10210800Y-1581150D02*
X-10210800Y-1530350D01*
X-10198100Y-1517650D01*
X-10147300Y-1517650D01*
X-10134600Y-1530350D01*
X-10134600Y-1581150D01*
X-10147300Y-1593850D01*
X-10198100Y-1593850D01*
X-10210800Y-1581150D01*
X-10210800Y-1593850D02*
X-10134600Y-1517650D01*
X-10083800Y-1555750D02*
X-10096500Y-1543050D01*
X-10096500Y-1530350D01*
X-10083800Y-1517650D01*
X-10045700Y-1517650D01*
X-10033000Y-1530350D01*
X-10033000Y-1543050D01*
X-10045700Y-1555750D01*
X-10083800Y-1555750D01*
X-10096500Y-1568450D01*
X-10096500Y-1581150D01*
X-10083800Y-1593850D01*
X-10045700Y-1593850D01*
X-10033000Y-1581150D01*
X-10033000Y-1568450D01*
X-10045700Y-1555750D01*
X-10007600Y-1593850D02*
X-10007600Y-1543050D01*
X-10007600Y-1555750D02*
X-9994900Y-1543050D01*
X-9969500Y-1568450D01*
X-9944100Y-1543050D01*
X-9931400Y-1555750D01*
X-9931400Y-1593850D01*
X-9906000Y-1593850D02*
X-9906000Y-1543050D01*
X-9906000Y-1555750D02*
X-9893300Y-1543050D01*
X-9867900Y-1568450D01*
X-9842500Y-1543050D01*
X-9829800Y-1555750D01*
X-9829800Y-1593850D01*
X-9613900Y-1517650D02*
X-9690100Y-1593850D01*
X-9690100Y-1517650D02*
X-9652000Y-1555750D01*
X-9512300Y-1593850D02*
X-9588500Y-1593850D01*
X-9588500Y-1517650D01*
X-9512300Y-1517650D01*
X-9588500Y-1555750D02*
X-9537700Y-1555750D01*
X-9486900Y-1581150D02*
X-9474200Y-1593850D01*
X-9423400Y-1593850D01*
X-9410700Y-1581150D01*
X-9410700Y-1568450D01*
X-9423400Y-1555750D01*
X-9474200Y-1555750D01*
X-9486900Y-1543050D01*
X-9486900Y-1530350D01*
X-9474200Y-1517650D01*
X-9423400Y-1517650D01*
X-9410700Y-1530350D01*
X-8818880Y-1543050D02*
X-8793480Y-1517650D01*
X-8793480Y-1593850D01*
X-8666480Y-1568450D02*
X-8742680Y-1568450D01*
X-8691880Y-1517650D01*
X-8691880Y-1593850D01*
D20*
X-10857681Y-1752149D02*
X-10767879Y-1841951D01*
X-10857681Y-1841951D02*
X-10767879Y-1752149D01*
D55*
X-10515600Y-1822450D02*
X-10515600Y-1771650D01*
X-10502900Y-1758950D01*
X-10452100Y-1758950D01*
X-10439400Y-1771650D01*
X-10439400Y-1822450D01*
X-10452100Y-1835150D01*
X-10502900Y-1835150D01*
X-10515600Y-1822450D01*
X-10515600Y-1835150D02*
X-10439400Y-1758950D01*
X-10375900Y-1822450D02*
X-10363200Y-1822450D01*
X-10363200Y-1835150D01*
X-10375900Y-1835150D01*
X-10375900Y-1822450D01*
X-10236200Y-1771650D02*
X-10248900Y-1758950D01*
X-10287000Y-1758950D01*
X-10299700Y-1771650D01*
X-10299700Y-1822450D01*
X-10287000Y-1835150D01*
X-10248900Y-1835150D01*
X-10236200Y-1822450D01*
X-10236200Y-1809750D01*
X-10248900Y-1797050D01*
X-10299700Y-1797050D01*
X-10198100Y-1771650D02*
X-10185400Y-1758950D01*
X-10147300Y-1758950D01*
X-10134600Y-1771650D01*
X-10134600Y-1784350D01*
X-10147300Y-1797050D01*
X-10134600Y-1809750D01*
X-10134600Y-1822450D01*
X-10147300Y-1835150D01*
X-10185400Y-1835150D01*
X-10198100Y-1822450D01*
X-10172700Y-1797050D02*
X-10147300Y-1797050D01*
X-10033000Y-1758950D02*
X-10096500Y-1758950D01*
X-10096500Y-1784350D01*
X-10045700Y-1784350D01*
X-10033000Y-1797050D01*
X-10033000Y-1822450D01*
X-10045700Y-1835150D01*
X-10083800Y-1835150D01*
X-10096500Y-1822450D01*
X-10007600Y-1835150D02*
X-10007600Y-1784350D01*
X-10007600Y-1797050D02*
X-9994900Y-1784350D01*
X-9969500Y-1809750D01*
X-9944100Y-1784350D01*
X-9931400Y-1797050D01*
X-9931400Y-1835150D01*
X-9906000Y-1835150D02*
X-9906000Y-1784350D01*
X-9906000Y-1797050D02*
X-9893300Y-1784350D01*
X-9867900Y-1809750D01*
X-9842500Y-1784350D01*
X-9829800Y-1797050D01*
X-9829800Y-1835150D01*
X-9613900Y-1758950D02*
X-9690100Y-1835150D01*
X-9690100Y-1758950D02*
X-9652000Y-1797050D01*
X-9512300Y-1835150D02*
X-9588500Y-1835150D01*
X-9588500Y-1758950D01*
X-9512300Y-1758950D01*
X-9588500Y-1797050D02*
X-9537700Y-1797050D01*
X-9486900Y-1822450D02*
X-9474200Y-1835150D01*
X-9423400Y-1835150D01*
X-9410700Y-1822450D01*
X-9410700Y-1809750D01*
X-9423400Y-1797050D01*
X-9474200Y-1797050D01*
X-9486900Y-1784350D01*
X-9486900Y-1771650D01*
X-9474200Y-1758950D01*
X-9423400Y-1758950D01*
X-9410700Y-1771650D01*
X-8818880Y-1784350D02*
X-8793480Y-1758950D01*
X-8793480Y-1835150D01*
X-8717280Y-1784350D02*
X-8691880Y-1758950D01*
X-8691880Y-1835150D01*
D20*
X-10812780Y-1974850D02*
X-10812780Y-2101850D01*
X-10876280Y-2038350D02*
X-10749280Y-2038350D01*
X-10857681Y-1993449D02*
X-10767879Y-2083251D01*
X-10857681Y-2083251D02*
X-10767879Y-1993449D01*
D55*
X-10515600Y-2063750D02*
X-10515600Y-2012950D01*
X-10502900Y-2000250D01*
X-10452100Y-2000250D01*
X-10439400Y-2012950D01*
X-10439400Y-2063750D01*
X-10452100Y-2076450D01*
X-10502900Y-2076450D01*
X-10515600Y-2063750D01*
X-10515600Y-2076450D02*
X-10439400Y-2000250D01*
X-10375900Y-2063750D02*
X-10363200Y-2063750D01*
X-10363200Y-2076450D01*
X-10375900Y-2076450D01*
X-10375900Y-2063750D01*
X-10299700Y-2000250D02*
X-10236200Y-2000250D01*
X-10236200Y-2012950D01*
X-10299700Y-2076450D01*
X-10134600Y-2012950D02*
X-10147300Y-2000250D01*
X-10185400Y-2000250D01*
X-10198100Y-2012950D01*
X-10198100Y-2063750D01*
X-10185400Y-2076450D01*
X-10147300Y-2076450D01*
X-10134600Y-2063750D01*
X-10134600Y-2051050D01*
X-10147300Y-2038350D01*
X-10198100Y-2038350D01*
X-10096500Y-2012950D02*
X-10083800Y-2000250D01*
X-10045700Y-2000250D01*
X-10033000Y-2012950D01*
X-10033000Y-2025650D01*
X-10045700Y-2038350D01*
X-10083800Y-2038350D01*
X-10096500Y-2051050D01*
X-10096500Y-2076450D01*
X-10033000Y-2076450D01*
X-10007600Y-2076450D02*
X-10007600Y-2025650D01*
X-10007600Y-2038350D02*
X-9994900Y-2025650D01*
X-9969500Y-2051050D01*
X-9944100Y-2025650D01*
X-9931400Y-2038350D01*
X-9931400Y-2076450D01*
X-9906000Y-2076450D02*
X-9906000Y-2025650D01*
X-9906000Y-2038350D02*
X-9893300Y-2025650D01*
X-9867900Y-2051050D01*
X-9842500Y-2025650D01*
X-9829800Y-2038350D01*
X-9829800Y-2076450D01*
X-9613900Y-2000250D02*
X-9690100Y-2076450D01*
X-9690100Y-2000250D02*
X-9652000Y-2038350D01*
X-9512300Y-2076450D02*
X-9588500Y-2076450D01*
X-9588500Y-2000250D01*
X-9512300Y-2000250D01*
X-9588500Y-2038350D02*
X-9537700Y-2038350D01*
X-9486900Y-2063750D02*
X-9474200Y-2076450D01*
X-9423400Y-2076450D01*
X-9410700Y-2063750D01*
X-9410700Y-2051050D01*
X-9423400Y-2038350D01*
X-9474200Y-2038350D01*
X-9486900Y-2025650D01*
X-9486900Y-2012950D01*
X-9474200Y-2000250D01*
X-9423400Y-2000250D01*
X-9410700Y-2012950D01*
X-8818880Y-2025650D02*
X-8793480Y-2000250D01*
X-8793480Y-2076450D01*
X-8729980Y-2012950D02*
X-8717280Y-2000250D01*
X-8679180Y-2000250D01*
X-8666480Y-2012950D01*
X-8666480Y-2025650D01*
X-8679180Y-2038350D01*
X-8666480Y-2051050D01*
X-8666480Y-2063750D01*
X-8679180Y-2076450D01*
X-8717280Y-2076450D01*
X-8729980Y-2063750D01*
X-8704580Y-2038350D02*
X-8679180Y-2038350D01*
X-8564880Y-2051050D02*
X-8641080Y-2051050D01*
X-8590280Y-2000250D01*
X-8590280Y-2076450D01*
D20*
X-10749280Y-2279650D02*
X-10749497Y-2274403D01*
X-10751262Y-2263908D01*
X-10754954Y-2253413D01*
X-10760982Y-2242918D01*
X-10770204Y-2232538D01*
X-10780699Y-2224850D01*
X-10791194Y-2219932D01*
X-10801689Y-2217126D01*
X-10812184Y-2216153D01*
X-10812780Y-2216150D01*
X-10876280Y-2279650D02*
X-10876063Y-2274403D01*
X-10874298Y-2263908D01*
X-10870606Y-2253413D01*
X-10864578Y-2242918D01*
X-10855356Y-2232538D01*
X-10844861Y-2224850D01*
X-10834366Y-2219932D01*
X-10823871Y-2217126D01*
X-10813376Y-2216153D01*
X-10812780Y-2216150D01*
X-10876280Y-2279650D02*
X-10876063Y-2284897D01*
X-10874298Y-2295392D01*
X-10870606Y-2305887D01*
X-10864578Y-2316382D01*
X-10855356Y-2326762D01*
X-10844861Y-2334450D01*
X-10834366Y-2339368D01*
X-10823871Y-2342174D01*
X-10813376Y-2343147D01*
X-10812780Y-2343150D01*
X-10749280Y-2279650D02*
X-10749497Y-2284897D01*
X-10751262Y-2295392D01*
X-10754954Y-2305887D01*
X-10760982Y-2316382D01*
X-10770204Y-2326762D01*
X-10780699Y-2334450D01*
X-10791194Y-2339368D01*
X-10801689Y-2342174D01*
X-10812184Y-2343147D01*
X-10812780Y-2343150D01*
X-10812780Y-2216150D02*
X-10812780Y-2343150D01*
X-10876280Y-2279650D02*
X-10749280Y-2279650D01*
D55*
X-10490200Y-2266950D02*
X-10464800Y-2241550D01*
X-10464800Y-2317750D01*
X-10375900Y-2305050D02*
X-10363200Y-2305050D01*
X-10363200Y-2317750D01*
X-10375900Y-2317750D01*
X-10375900Y-2305050D01*
X-10312400Y-2305050D02*
X-10312400Y-2254250D01*
X-10299700Y-2241550D01*
X-10248900Y-2241550D01*
X-10236200Y-2254250D01*
X-10236200Y-2305050D01*
X-10248900Y-2317750D01*
X-10299700Y-2317750D01*
X-10312400Y-2305050D01*
X-10312400Y-2317750D02*
X-10236200Y-2241550D01*
X-10185400Y-2266950D02*
X-10160000Y-2241550D01*
X-10160000Y-2317750D01*
X-10033000Y-2254250D02*
X-10045700Y-2241550D01*
X-10083800Y-2241550D01*
X-10096500Y-2254250D01*
X-10096500Y-2305050D01*
X-10083800Y-2317750D01*
X-10045700Y-2317750D01*
X-10033000Y-2305050D01*
X-10033000Y-2292350D01*
X-10045700Y-2279650D01*
X-10096500Y-2279650D01*
X-10007600Y-2317750D02*
X-10007600Y-2266950D01*
X-10007600Y-2279650D02*
X-9994900Y-2266950D01*
X-9969500Y-2292350D01*
X-9944100Y-2266950D01*
X-9931400Y-2279650D01*
X-9931400Y-2317750D01*
X-9906000Y-2317750D02*
X-9906000Y-2266950D01*
X-9906000Y-2279650D02*
X-9893300Y-2266950D01*
X-9867900Y-2292350D01*
X-9842500Y-2266950D01*
X-9829800Y-2279650D01*
X-9829800Y-2317750D01*
X-9613900Y-2241550D02*
X-9690100Y-2317750D01*
X-9690100Y-2241550D02*
X-9652000Y-2279650D01*
X-9512300Y-2317750D02*
X-9588500Y-2317750D01*
X-9588500Y-2241550D01*
X-9512300Y-2241550D01*
X-9588500Y-2279650D02*
X-9537700Y-2279650D01*
X-9486900Y-2305050D02*
X-9474200Y-2317750D01*
X-9423400Y-2317750D01*
X-9410700Y-2305050D01*
X-9410700Y-2292350D01*
X-9423400Y-2279650D01*
X-9474200Y-2279650D01*
X-9486900Y-2266950D01*
X-9486900Y-2254250D01*
X-9474200Y-2241550D01*
X-9423400Y-2241550D01*
X-9410700Y-2254250D01*
X-8831580Y-2254250D02*
X-8818880Y-2241550D01*
X-8780780Y-2241550D01*
X-8768080Y-2254250D01*
X-8768080Y-2266950D01*
X-8780780Y-2279650D01*
X-8818880Y-2279650D01*
X-8831580Y-2292350D01*
X-8831580Y-2317750D01*
X-8768080Y-2317750D01*
X-8717280Y-2279650D02*
X-8729980Y-2266950D01*
X-8729980Y-2254250D01*
X-8717280Y-2241550D01*
X-8679180Y-2241550D01*
X-8666480Y-2254250D01*
X-8666480Y-2266950D01*
X-8679180Y-2279650D01*
X-8717280Y-2279650D01*
X-8729980Y-2292350D01*
X-8729980Y-2305050D01*
X-8717280Y-2317750D01*
X-8679180Y-2317750D01*
X-8666480Y-2305050D01*
X-8666480Y-2292350D01*
X-8679180Y-2279650D01*
D20*
X-10749280Y-2520950D02*
X-10749497Y-2515703D01*
X-10751262Y-2505208D01*
X-10754954Y-2494713D01*
X-10760982Y-2484218D01*
X-10770204Y-2473838D01*
X-10780699Y-2466150D01*
X-10791194Y-2461232D01*
X-10801689Y-2458426D01*
X-10812184Y-2457453D01*
X-10812780Y-2457450D01*
X-10876280Y-2520950D02*
X-10876063Y-2515703D01*
X-10874298Y-2505208D01*
X-10870606Y-2494713D01*
X-10864578Y-2484218D01*
X-10855356Y-2473838D01*
X-10844861Y-2466150D01*
X-10834366Y-2461232D01*
X-10823871Y-2458426D01*
X-10813376Y-2457453D01*
X-10812780Y-2457450D01*
X-10876280Y-2520950D02*
X-10876063Y-2526197D01*
X-10874298Y-2536692D01*
X-10870606Y-2547187D01*
X-10864578Y-2557682D01*
X-10855356Y-2568062D01*
X-10844861Y-2575750D01*
X-10834366Y-2580668D01*
X-10823871Y-2583474D01*
X-10813376Y-2584447D01*
X-10812780Y-2584450D01*
X-10749280Y-2520950D02*
X-10749497Y-2526197D01*
X-10751262Y-2536692D01*
X-10754954Y-2547187D01*
X-10760982Y-2557682D01*
X-10770204Y-2568062D01*
X-10780699Y-2575750D01*
X-10791194Y-2580668D01*
X-10801689Y-2583474D01*
X-10812184Y-2584447D01*
X-10812780Y-2584450D01*
X-10857681Y-2476049D02*
X-10767879Y-2565851D01*
X-10857681Y-2565851D02*
X-10767879Y-2476049D01*
D55*
X-10490200Y-2508250D02*
X-10464800Y-2482850D01*
X-10464800Y-2559050D01*
X-10375900Y-2546350D02*
X-10363200Y-2546350D01*
X-10363200Y-2559050D01*
X-10375900Y-2559050D01*
X-10375900Y-2546350D01*
X-10287000Y-2508250D02*
X-10261600Y-2482850D01*
X-10261600Y-2559050D01*
X-10134600Y-2533650D02*
X-10210800Y-2533650D01*
X-10160000Y-2482850D01*
X-10160000Y-2559050D01*
X-10096500Y-2495550D02*
X-10083800Y-2482850D01*
X-10045700Y-2482850D01*
X-10033000Y-2495550D01*
X-10033000Y-2508250D01*
X-10045700Y-2520950D01*
X-10033000Y-2533650D01*
X-10033000Y-2546350D01*
X-10045700Y-2559050D01*
X-10083800Y-2559050D01*
X-10096500Y-2546350D01*
X-10071100Y-2520950D02*
X-10045700Y-2520950D01*
X-10007600Y-2559050D02*
X-10007600Y-2508250D01*
X-10007600Y-2520950D02*
X-9994900Y-2508250D01*
X-9969500Y-2533650D01*
X-9944100Y-2508250D01*
X-9931400Y-2520950D01*
X-9931400Y-2559050D01*
X-9906000Y-2559050D02*
X-9906000Y-2508250D01*
X-9906000Y-2520950D02*
X-9893300Y-2508250D01*
X-9867900Y-2533650D01*
X-9842500Y-2508250D01*
X-9829800Y-2520950D01*
X-9829800Y-2559050D01*
X-9613900Y-2482850D02*
X-9690100Y-2559050D01*
X-9690100Y-2482850D02*
X-9652000Y-2520950D01*
X-9512300Y-2559050D02*
X-9588500Y-2559050D01*
X-9588500Y-2482850D01*
X-9512300Y-2482850D01*
X-9588500Y-2520950D02*
X-9537700Y-2520950D01*
X-9486900Y-2546350D02*
X-9474200Y-2559050D01*
X-9423400Y-2559050D01*
X-9410700Y-2546350D01*
X-9410700Y-2533650D01*
X-9423400Y-2520950D01*
X-9474200Y-2520950D01*
X-9486900Y-2508250D01*
X-9486900Y-2495550D01*
X-9474200Y-2482850D01*
X-9423400Y-2482850D01*
X-9410700Y-2495550D01*
X-8818880Y-2508250D02*
X-8793480Y-2482850D01*
X-8793480Y-2559050D01*
X-8717280Y-2520950D02*
X-8729980Y-2508250D01*
X-8729980Y-2495550D01*
X-8717280Y-2482850D01*
X-8679180Y-2482850D01*
X-8666480Y-2495550D01*
X-8666480Y-2508250D01*
X-8679180Y-2520950D01*
X-8717280Y-2520950D01*
X-8729980Y-2533650D01*
X-8729980Y-2546350D01*
X-8717280Y-2559050D01*
X-8679180Y-2559050D01*
X-8666480Y-2546350D01*
X-8666480Y-2533650D01*
X-8679180Y-2520950D01*
D20*
X-10749280Y-2762250D02*
X-10749497Y-2757003D01*
X-10751262Y-2746508D01*
X-10754954Y-2736013D01*
X-10760982Y-2725518D01*
X-10770204Y-2715138D01*
X-10780699Y-2707450D01*
X-10791194Y-2702532D01*
X-10801689Y-2699726D01*
X-10812184Y-2698753D01*
X-10812780Y-2698750D01*
X-10876280Y-2762250D02*
X-10876063Y-2757003D01*
X-10874298Y-2746508D01*
X-10870606Y-2736013D01*
X-10864578Y-2725518D01*
X-10855356Y-2715138D01*
X-10844861Y-2707450D01*
X-10834366Y-2702532D01*
X-10823871Y-2699726D01*
X-10813376Y-2698753D01*
X-10812780Y-2698750D01*
X-10876280Y-2762250D02*
X-10876063Y-2767497D01*
X-10874298Y-2777992D01*
X-10870606Y-2788487D01*
X-10864578Y-2798982D01*
X-10855356Y-2809362D01*
X-10844861Y-2817050D01*
X-10834366Y-2821968D01*
X-10823871Y-2824774D01*
X-10813376Y-2825747D01*
X-10812780Y-2825750D01*
X-10749280Y-2762250D02*
X-10749497Y-2767497D01*
X-10751262Y-2777992D01*
X-10754954Y-2788487D01*
X-10760982Y-2798982D01*
X-10770204Y-2809362D01*
X-10780699Y-2817050D01*
X-10791194Y-2821968D01*
X-10801689Y-2824774D01*
X-10812184Y-2825747D01*
X-10812780Y-2825750D01*
X-10812780Y-2698750D02*
X-10812780Y-2825750D01*
X-10876280Y-2762250D02*
X-10749280Y-2762250D01*
X-10749497Y-2757003D01*
X-10751262Y-2746508D01*
X-10754954Y-2736013D01*
X-10760982Y-2725518D01*
X-10770204Y-2715138D01*
X-10780699Y-2707450D01*
X-10791194Y-2702532D01*
X-10801689Y-2699726D01*
X-10812184Y-2698753D01*
X-10812780Y-2698750D01*
X-10876280Y-2762250D02*
X-10876063Y-2757003D01*
X-10874298Y-2746508D01*
X-10870606Y-2736013D01*
X-10864578Y-2725518D01*
X-10855356Y-2715138D01*
X-10844861Y-2707450D01*
X-10834366Y-2702532D01*
X-10823871Y-2699726D01*
X-10813376Y-2698753D01*
X-10812780Y-2698750D01*
X-10876280Y-2762250D02*
X-10876063Y-2767497D01*
X-10874298Y-2777992D01*
X-10870606Y-2788487D01*
X-10864578Y-2798982D01*
X-10855356Y-2809362D01*
X-10844861Y-2817050D01*
X-10834366Y-2821968D01*
X-10823871Y-2824774D01*
X-10813376Y-2825747D01*
X-10812780Y-2825750D01*
X-10749280Y-2762250D02*
X-10749497Y-2767497D01*
X-10751262Y-2777992D01*
X-10754954Y-2788487D01*
X-10760982Y-2798982D01*
X-10770204Y-2809362D01*
X-10780699Y-2817050D01*
X-10791194Y-2821968D01*
X-10801689Y-2824774D01*
X-10812184Y-2825747D01*
X-10812780Y-2825750D01*
X-10857681Y-2717349D02*
X-10767879Y-2807151D01*
X-10857681Y-2807151D02*
X-10767879Y-2717349D01*
D55*
X-10490200Y-2749550D02*
X-10464800Y-2724150D01*
X-10464800Y-2800350D01*
X-10375900Y-2787650D02*
X-10363200Y-2787650D01*
X-10363200Y-2800350D01*
X-10375900Y-2800350D01*
X-10375900Y-2787650D01*
X-10236200Y-2724150D02*
X-10299700Y-2724150D01*
X-10299700Y-2749550D01*
X-10248900Y-2749550D01*
X-10236200Y-2762250D01*
X-10236200Y-2787650D01*
X-10248900Y-2800350D01*
X-10287000Y-2800350D01*
X-10299700Y-2787650D01*
X-10198100Y-2736850D02*
X-10185400Y-2724150D01*
X-10147300Y-2724150D01*
X-10134600Y-2736850D01*
X-10134600Y-2749550D01*
X-10147300Y-2762250D01*
X-10185400Y-2762250D01*
X-10198100Y-2774950D01*
X-10198100Y-2800350D01*
X-10134600Y-2800350D01*
X-10033000Y-2774950D02*
X-10109200Y-2774950D01*
X-10058400Y-2724150D01*
X-10058400Y-2800350D01*
X-10007600Y-2800350D02*
X-10007600Y-2749550D01*
X-10007600Y-2762250D02*
X-9994900Y-2749550D01*
X-9969500Y-2774950D01*
X-9944100Y-2749550D01*
X-9931400Y-2762250D01*
X-9931400Y-2800350D01*
X-9906000Y-2800350D02*
X-9906000Y-2749550D01*
X-9906000Y-2762250D02*
X-9893300Y-2749550D01*
X-9867900Y-2774950D01*
X-9842500Y-2749550D01*
X-9829800Y-2762250D01*
X-9829800Y-2800350D01*
X-9613900Y-2724150D02*
X-9690100Y-2800350D01*
X-9690100Y-2724150D02*
X-9652000Y-2762250D01*
X-9512300Y-2800350D02*
X-9588500Y-2800350D01*
X-9588500Y-2724150D01*
X-9512300Y-2724150D01*
X-9588500Y-2762250D02*
X-9537700Y-2762250D01*
X-9486900Y-2787650D02*
X-9474200Y-2800350D01*
X-9423400Y-2800350D01*
X-9410700Y-2787650D01*
X-9410700Y-2774950D01*
X-9423400Y-2762250D01*
X-9474200Y-2762250D01*
X-9486900Y-2749550D01*
X-9486900Y-2736850D01*
X-9474200Y-2724150D01*
X-9423400Y-2724150D01*
X-9410700Y-2736850D01*
X-8831580Y-2736850D02*
X-8818880Y-2724150D01*
X-8780780Y-2724150D01*
X-8768080Y-2736850D01*
X-8768080Y-2749550D01*
X-8780780Y-2762250D01*
X-8768080Y-2774950D01*
X-8768080Y-2787650D01*
X-8780780Y-2800350D01*
X-8818880Y-2800350D01*
X-8831580Y-2787650D01*
X-8806180Y-2762250D02*
X-8780780Y-2762250D01*
X-8666480Y-2749550D02*
X-8679180Y-2762250D01*
X-8717280Y-2762250D01*
X-8729980Y-2749550D01*
X-8729980Y-2736850D01*
X-8717280Y-2724150D01*
X-8679180Y-2724150D01*
X-8666480Y-2736850D01*
X-8666480Y-2787650D01*
X-8679180Y-2800350D01*
X-8717280Y-2800350D01*
D20*
X-10812780Y-2940050D02*
X-10812780Y-3067050D01*
X-10876280Y-3003550D02*
X-10749280Y-3003550D01*
X-10876280Y-3067050D02*
X-10749280Y-3067050D01*
X-10749280Y-2940050D01*
X-10876280Y-2940050D01*
X-10876280Y-3067050D01*
D55*
X-10502900Y-2978150D02*
X-10490200Y-2965450D01*
X-10452100Y-2965450D01*
X-10439400Y-2978150D01*
X-10439400Y-2990850D01*
X-10452100Y-3003550D01*
X-10490200Y-3003550D01*
X-10502900Y-3016250D01*
X-10502900Y-3041650D01*
X-10439400Y-3041650D01*
X-10375900Y-3028950D02*
X-10363200Y-3028950D01*
X-10363200Y-3041650D01*
X-10375900Y-3041650D01*
X-10375900Y-3028950D01*
X-10312400Y-3028950D02*
X-10312400Y-2978150D01*
X-10299700Y-2965450D01*
X-10248900Y-2965450D01*
X-10236200Y-2978150D01*
X-10236200Y-3028950D01*
X-10248900Y-3041650D01*
X-10299700Y-3041650D01*
X-10312400Y-3028950D01*
X-10312400Y-3041650D02*
X-10236200Y-2965450D01*
X-10198100Y-2978150D02*
X-10185400Y-2965450D01*
X-10147300Y-2965450D01*
X-10134600Y-2978150D01*
X-10134600Y-2990850D01*
X-10147300Y-3003550D01*
X-10134600Y-3016250D01*
X-10134600Y-3028950D01*
X-10147300Y-3041650D01*
X-10185400Y-3041650D01*
X-10198100Y-3028950D01*
X-10172700Y-3003550D02*
X-10147300Y-3003550D01*
X-10096500Y-2978150D02*
X-10083800Y-2965450D01*
X-10045700Y-2965450D01*
X-10033000Y-2978150D01*
X-10033000Y-2990850D01*
X-10045700Y-3003550D01*
X-10083800Y-3003550D01*
X-10096500Y-3016250D01*
X-10096500Y-3041650D01*
X-10033000Y-3041650D01*
X-10007600Y-3041650D02*
X-10007600Y-2990850D01*
X-10007600Y-3003550D02*
X-9994900Y-2990850D01*
X-9969500Y-3016250D01*
X-9944100Y-2990850D01*
X-9931400Y-3003550D01*
X-9931400Y-3041650D01*
X-9906000Y-3041650D02*
X-9906000Y-2990850D01*
X-9906000Y-3003550D02*
X-9893300Y-2990850D01*
X-9867900Y-3016250D01*
X-9842500Y-2990850D01*
X-9829800Y-3003550D01*
X-9829800Y-3041650D01*
X-9613900Y-2965450D02*
X-9690100Y-3041650D01*
X-9690100Y-2965450D02*
X-9652000Y-3003550D01*
X-9512300Y-3041650D02*
X-9588500Y-3041650D01*
X-9588500Y-2965450D01*
X-9512300Y-2965450D01*
X-9588500Y-3003550D02*
X-9537700Y-3003550D01*
X-9486900Y-3028950D02*
X-9474200Y-3041650D01*
X-9423400Y-3041650D01*
X-9410700Y-3028950D01*
X-9410700Y-3016250D01*
X-9423400Y-3003550D01*
X-9474200Y-3003550D01*
X-9486900Y-2990850D01*
X-9486900Y-2978150D01*
X-9474200Y-2965450D01*
X-9423400Y-2965450D01*
X-9410700Y-2978150D01*
X-8768080Y-3016250D02*
X-8844280Y-3016250D01*
X-8793480Y-2965450D01*
X-8793480Y-3041650D01*
M02*
